<svg xmlns="http://www.w3.org/2000/svg" width="600" height="800" viewBox="0 0 600 800">
<title>Alocasia amazonica (Alocasia 'Polly')</title>
<ellipse cx="300" cy="588" rx="98" ry="14.7" fill="#92543D"/><ellipse cx="300" cy="590.5" rx="90" ry="11.5" fill="#5C4331"/><path d="M216 589 Q300 579.9 384 589" fill="none" stroke="#4F392A" stroke-width="3"/><g transform="translate(300 600) scale(1.07) translate(-300 -600)"><path d="M294.2 600.1C294.2 600.1 294.7 578.6 294.9 565.7C295.1 552.8 295.4 535.8 295.5 522.9C295.6 510 295.6 499.4 295.5 488.2C295.4 477.1 295.2 466.4 295 456C294.7 445.7 294.3 435.8 293.9 426.3C293.4 416.7 292.8 407.6 292.1 398.8C291.5 390 290.7 381.6 289.7 373.6C288.8 365.5 287.8 357.8 286.6 350.5C285.4 343.2 284.1 336.2 282.6 329.5C281.2 322.8 279.6 316.5 277.8 310.5C276.1 304.5 274.2 298.8 272.1 293.4C270 288 267.8 282.9 265.4 278.1C262.9 273.3 260.4 268.8 257.6 264.6C254.8 260.3 252.1 256.5 248.7 252.7C245.2 248.9 240.5 244.8 237 241.7C233.5 238.6 229.7 234.7 227.6 234.1C225.5 233.4 223.4 236 224.4 237.9C225.4 239.9 230.2 242.6 233.6 245.7C237 248.7 241.4 252.6 244.6 256.3C247.8 260 250.2 263.6 252.8 267.6C255.4 271.7 257.8 276.1 260.1 280.7C262.4 285.3 264.4 290.3 266.4 295.5C268.3 300.8 270.1 306.3 271.8 312.2C273.4 318.1 274.9 324.3 276.3 330.9C277.6 337.4 278.8 344.3 279.9 351.5C281 358.8 282 366.4 282.8 374.3C283.7 382.3 284.4 390.6 285 399.3C285.6 408 286.1 417.1 286.5 426.6C286.9 436.1 287.1 445.9 287.3 456.2C287.5 466.5 287.6 477.2 287.7 488.3C287.7 499.4 287.6 510 287.5 522.9C287.3 535.7 286.9 552.7 286.6 565.5C286.3 578.4 285.8 599.9 285.8 599.9C285.8 599.9 294.2 600.1 294.2 600.1Z" fill="#A5B296"/><g transform="translate(226 236) rotate(-56)"><clipPath id="alam-ac6"><path d="M-0.1 11.1C-0.1 11.1 6.2 15.2 10.2 19.2C14.2 23.3 19.3 31.3 23.8 35.5C28.4 39.7 33.6 43.8 37.5 44.4C41.5 45 45.3 42.9 47.8 39.2C50.2 35.5 51.5 28 52.1 22.2C52.7 16.4 52.6 10.9 51.6 4.4C50.5 -2 48 -10.1 45.7 -16.3C43.5 -22.4 39.7 -27.1 38 -32.6C36.3 -38 37.2 -43.5 35.5 -48.8C33.9 -54.1 29.9 -59.2 28 -64.4C26 -69.6 25.8 -74.7 23.7 -79.9C21.7 -85.1 18.2 -90.3 15.9 -95.5C13.5 -100.6 13.3 -103.8 9.8 -111C6.3 -118.2 -1.7 -132.2 -5 -138.4C-8.4 -144.5 -10.4 -148 -10.4 -148C-10.4 -148 -11.1 -144.5 -12.8 -138.4C-14.4 -132.2 -18.6 -118.2 -20.2 -111C-21.9 -103.8 -21.6 -100.6 -22.8 -95.5C-24.1 -90.3 -26.6 -85.1 -27.7 -79.9C-28.8 -74.7 -28.2 -69.6 -29.4 -64.4C-30.6 -59.2 -33.9 -54.1 -35 -48.8C-36.1 -43.5 -34.6 -38 -35.8 -32.6C-37.1 -27.1 -40.5 -22.4 -42.5 -16.3C-44.4 -10.1 -46.6 -2 -47.6 4.4C-48.6 10.9 -48.9 16.4 -48.5 22.2C-48.2 28 -47.5 35.5 -45.5 39.2C-43.5 42.9 -39.9 45 -36.5 44.4C-33 43.8 -29.3 39.7 -25 35.5C-20.7 31.3 -14.7 23.3 -10.5 19.2C-6.4 15.2 -0.1 11.1 -0.1 11.1Z"/></clipPath><path d="M-0.1 11.1C-0.1 11.1 6.2 15.2 10.2 19.2C14.2 23.3 19.3 31.3 23.8 35.5C28.4 39.7 33.6 43.8 37.5 44.4C41.5 45 45.3 42.9 47.8 39.2C50.2 35.5 51.5 28 52.1 22.2C52.7 16.4 52.6 10.9 51.6 4.4C50.5 -2 48 -10.1 45.7 -16.3C43.5 -22.4 39.7 -27.1 38 -32.6C36.3 -38 37.2 -43.5 35.5 -48.8C33.9 -54.1 29.9 -59.2 28 -64.4C26 -69.6 25.8 -74.7 23.7 -79.9C21.7 -85.1 18.2 -90.3 15.9 -95.5C13.5 -100.6 13.3 -103.8 9.8 -111C6.3 -118.2 -1.7 -132.2 -5 -138.4C-8.4 -144.5 -10.4 -148 -10.4 -148C-10.4 -148 -11.1 -144.5 -12.8 -138.4C-14.4 -132.2 -18.6 -118.2 -20.2 -111C-21.9 -103.8 -21.6 -100.6 -22.8 -95.5C-24.1 -90.3 -26.6 -85.1 -27.7 -79.9C-28.8 -74.7 -28.2 -69.6 -29.4 -64.4C-30.6 -59.2 -33.9 -54.1 -35 -48.8C-36.1 -43.5 -34.6 -38 -35.8 -32.6C-37.1 -27.1 -40.5 -22.4 -42.5 -16.3C-44.4 -10.1 -46.6 -2 -47.6 4.4C-48.6 10.9 -48.9 16.4 -48.5 22.2C-48.2 28 -47.5 35.5 -45.5 39.2C-43.5 42.9 -39.9 45 -36.5 44.4C-33 43.8 -29.3 39.7 -25 35.5C-20.7 31.3 -14.7 23.3 -10.5 19.2C-6.4 15.2 -0.1 11.1 -0.1 11.1Z" fill="#27392C"/><g clip-path="url(#alam-ac6)"><path d="M-3.7 88.8C-3.7 88.8 -1.6 59.2 -0.9 44.4C-0.3 29.6 0 13.6 0 0C0 -13.6 -0.2 -24.7 -0.6 -37C-1.1 -49.3 -1.7 -61.7 -2.6 -74C-3.5 -86.3 -4.5 -98.7 -5.8 -111C-7.1 -123.3 -8.4 -134.4 -10.4 -148C-12.3 -161.6 -17.5 -192.4 -17.5 -192.4C-17.5 -192.4 160.1 -192.4 160.1 -192.4C160.1 -192.4 165.3 -161.6 167.2 -148C169.2 -134.4 170.5 -123.3 171.8 -111C173.1 -98.7 174.1 -86.3 175 -74C175.9 -61.7 176.5 -49.3 177 -37C177.4 -24.7 177.6 -13.6 177.6 0C177.6 13.6 177.3 29.6 176.7 44.4C176 59.2 173.9 88.8 173.9 88.8C173.9 88.8 -3.7 88.8 -3.7 88.8Z" fill="#1F3025"/><path d="M3.2 3Q2.4 -69 -8.7 -143.7L-10.8 -143.4Q-1.8 -68.7 -3.2 2.9ZM-1.5 2.1Q19.9 16 39.2 42L40.8 40.9Q22.4 13.6 1.5 -2.1ZM1.3 2.2Q25.9 -13 50.7 -15.3L50.6 -17.3Q24.8 -16.3 -1.3 -2.2ZM1.5 -25Q18.1 -45.2 35.3 -47.8L35.1 -49.8Q16.3 -48.1 -2.2 -28.2ZM0.7 -53.7Q11.7 -76.2 23.7 -78.9L23.3 -80.9Q9.3 -78.6 -3.5 -55.9ZM-1 -82.4Q3.8 -107.5 10 -110.1L9.3 -111.9Q0.8 -108.9 -5.5 -83.4ZM-1.4 -2.2Q-23.8 13.6 -39.3 40.9L-37.6 42Q-21.2 16 1.4 2.2ZM1.3 -2.1Q-22.9 -16.3 -46.9 -17.3L-47.1 -15.3Q-24.1 -13 -1.3 2.1ZM1.5 -28.2Q-16.8 -48.1 -34.5 -49.8L-34.8 -47.8Q-18.6 -45.2 -2.2 -25ZM0.6 -56Q-13.8 -78.6 -27.3 -80.9L-27.7 -78.9Q-16.1 -76.2 -3.4 -53.6ZM-1.1 -83.7Q-11.1 -109 -19.7 -111.9L-20.4 -110.1Q-14 -107.3 -5.4 -82.1Z" fill="#C9D2BC"/><path d="M-0.1 11.1C-0.1 11.1 6.2 15.2 10.2 19.2C14.2 23.3 19.3 31.3 23.8 35.5C28.4 39.7 33.6 43.8 37.5 44.4C41.5 45 45.3 42.9 47.8 39.2C50.2 35.5 51.5 28 52.1 22.2C52.7 16.4 52.6 10.9 51.6 4.4C50.5 -2 48 -10.1 45.7 -16.3C43.5 -22.4 39.7 -27.1 38 -32.6C36.3 -38 37.2 -43.5 35.5 -48.8C33.9 -54.1 29.9 -59.2 28 -64.4C26 -69.6 25.8 -74.7 23.7 -79.9C21.7 -85.1 18.2 -90.3 15.9 -95.5C13.5 -100.6 13.3 -103.8 9.8 -111C6.3 -118.2 -1.7 -132.2 -5 -138.4C-8.4 -144.5 -10.4 -148 -10.4 -148C-10.4 -148 -11.1 -144.5 -12.8 -138.4C-14.4 -132.2 -18.6 -118.2 -20.2 -111C-21.9 -103.8 -21.6 -100.6 -22.8 -95.5C-24.1 -90.3 -26.6 -85.1 -27.7 -79.9C-28.8 -74.7 -28.2 -69.6 -29.4 -64.4C-30.6 -59.2 -33.9 -54.1 -35 -48.8C-36.1 -43.5 -34.6 -38 -35.8 -32.6C-37.1 -27.1 -40.5 -22.4 -42.5 -16.3C-44.4 -10.1 -46.6 -2 -47.6 4.4C-48.6 10.9 -48.9 16.4 -48.5 22.2C-48.2 28 -47.5 35.5 -45.5 39.2C-43.5 42.9 -39.9 45 -36.5 44.4C-33 43.8 -29.3 39.7 -25 35.5C-20.7 31.3 -14.7 23.3 -10.5 19.2C-6.4 15.2 -0.1 11.1 -0.1 11.1Z" fill="none" stroke="#C9D2BC" stroke-width="7.6" stroke-linejoin="round"/></g></g><path d="M310.2 599.9C310.2 599.9 309.8 579.1 309.6 566.5C309.4 553.9 309.2 537.4 309.2 524.5C309.2 511.7 309.5 500.9 309.8 489.5C310.1 478 310.6 466.9 311.2 456.1C311.8 445.3 312.5 434.8 313.3 424.6C314.2 414.4 315.2 404.6 316.3 395C317.4 385.5 318.7 376.3 320.1 367.4C321.5 358.5 323.1 350 324.8 341.8C326.5 333.6 328.3 325.7 330.3 318.2C332.3 310.7 334.4 303.6 336.7 296.8C339 290 341.5 283.6 344.1 277.6C346.7 271.6 349.5 265.9 352.4 260.6C355.3 255.4 358.4 250.5 361.6 246C364.8 241.5 367.9 237.5 371.8 233.7C375.6 230 380.7 226.3 384.7 223.3C388.6 220.4 394.1 218 395.4 216.1C396.7 214.2 394.9 211.4 392.6 211.9C390.3 212.4 385.8 216 381.7 219C377.6 222 372 225.9 367.9 229.9C363.8 233.8 360.5 238 357 242.7C353.6 247.3 350.4 252.3 347.3 257.8C344.2 263.2 341.3 269 338.5 275.2C335.8 281.3 333.2 287.9 330.8 294.8C328.4 301.6 326.1 308.9 324 316.5C321.9 324.1 320 332.1 318.2 340.4C316.4 348.7 314.7 357.3 313.2 366.3C311.7 375.2 310.4 384.5 309.2 394.2C307.9 403.8 306.9 413.7 305.9 424C305 434.2 304.2 444.8 303.6 455.7C302.9 466.6 302.4 477.7 302 489.2C301.6 500.7 301.3 511.6 301.2 524.5C301 537.4 301.2 554 301.3 566.6C301.4 579.2 301.8 600.1 301.8 600.1C301.8 600.1 310.2 599.9 310.2 599.9Z" fill="#A5B296"/><g transform="translate(394 214) rotate(64) scale(0.9 1)"><clipPath id="alam-ac7"><path d="M0.1 11.7C0.1 11.7 6.7 16 11.1 20.3C15.5 24.6 21.9 33 26.5 37.4C31 41.9 35 46.1 38.6 46.8C42.2 47.4 45.9 45.2 48.1 41.3C50.2 37.4 50.8 29.5 51.2 23.4C51.6 17.3 51.3 11.4 50.2 4.7C49.1 -2.1 46.8 -10.7 44.8 -17.2C42.7 -23.7 39.1 -28.6 37.9 -34.3C36.6 -40 38.1 -45.9 37 -51.5C36 -57.1 32.5 -62.4 31.3 -67.9C30.1 -73.3 30.8 -78.8 29.7 -84.2C28.6 -89.7 26 -95.2 24.7 -100.6C23.5 -106.1 23.9 -109.5 22.2 -117C20.6 -124.5 16.5 -139.4 14.8 -145.9C13.2 -152.4 12.5 -156 12.5 -156C12.5 -156 10.3 -152.4 6.6 -145.9C3 -139.4 -5.7 -124.5 -9.4 -117C-13.2 -109.5 -13.5 -106.1 -16.1 -100.6C-18.6 -95.2 -22.4 -89.7 -24.6 -84.2C-26.8 -78.8 -27 -73.3 -29.2 -67.9C-31.3 -62.4 -35.5 -57.1 -37.3 -51.5C-39.1 -45.9 -38.2 -40 -40 -34.3C-41.8 -28.6 -45.8 -23.7 -48.2 -17.2C-50.6 -10.7 -53.2 -2.1 -54.3 4.7C-55.5 11.4 -55.6 17.3 -54.9 23.4C-54.2 29.5 -52.8 37.4 -50.2 41.3C-47.7 45.2 -43.6 47.4 -39.4 46.8C-35.2 46.1 -29.8 41.9 -25 37.4C-20.2 33 -14.9 24.6 -10.7 20.3C-6.5 16 0.1 11.7 0.1 11.7Z"/></clipPath><path d="M0.1 11.7C0.1 11.7 6.7 16 11.1 20.3C15.5 24.6 21.9 33 26.5 37.4C31 41.9 35 46.1 38.6 46.8C42.2 47.4 45.9 45.2 48.1 41.3C50.2 37.4 50.8 29.5 51.2 23.4C51.6 17.3 51.3 11.4 50.2 4.7C49.1 -2.1 46.8 -10.7 44.8 -17.2C42.7 -23.7 39.1 -28.6 37.9 -34.3C36.6 -40 38.1 -45.9 37 -51.5C36 -57.1 32.5 -62.4 31.3 -67.9C30.1 -73.3 30.8 -78.8 29.7 -84.2C28.6 -89.7 26 -95.2 24.7 -100.6C23.5 -106.1 23.9 -109.5 22.2 -117C20.6 -124.5 16.5 -139.4 14.8 -145.9C13.2 -152.4 12.5 -156 12.5 -156C12.5 -156 10.3 -152.4 6.6 -145.9C3 -139.4 -5.7 -124.5 -9.4 -117C-13.2 -109.5 -13.5 -106.1 -16.1 -100.6C-18.6 -95.2 -22.4 -89.7 -24.6 -84.2C-26.8 -78.8 -27 -73.3 -29.2 -67.9C-31.3 -62.4 -35.5 -57.1 -37.3 -51.5C-39.1 -45.9 -38.2 -40 -40 -34.3C-41.8 -28.6 -45.8 -23.7 -48.2 -17.2C-50.6 -10.7 -53.2 -2.1 -54.3 4.7C-55.5 11.4 -55.6 17.3 -54.9 23.4C-54.2 29.5 -52.8 37.4 -50.2 41.3C-47.7 45.2 -43.6 47.4 -39.4 46.8C-35.2 46.1 -29.8 41.9 -25 37.4C-20.2 33 -14.9 24.6 -10.7 20.3C-6.5 16 0.1 11.7 0.1 11.7Z" fill="#27392C"/><g clip-path="url(#alam-ac7)"><path d="M4.5 93.6C4.5 93.6 1.9 62.4 1.1 46.8C0.4 31.2 0.1 14.3 0 0C-0.1 -14.3 0.3 -26 0.8 -39C1.3 -52 2.1 -65 3.1 -78C4.2 -91 5.5 -104 7 -117C8.6 -130 10.1 -141.7 12.5 -156C14.8 -170.3 21.1 -202.8 21.1 -202.8C21.1 -202.8 -166.1 -202.8 -166.1 -202.8C-166.1 -202.8 -172.4 -170.3 -174.7 -156C-177.1 -141.7 -178.6 -130 -180.2 -117C-181.7 -104 -183 -91 -184.1 -78C-185.1 -65 -185.9 -52 -186.4 -39C-186.9 -26 -187.3 -14.3 -187.2 0C-187.1 14.3 -186.8 31.2 -186.1 46.8C-185.3 62.4 -182.7 93.6 -182.7 93.6C-182.7 93.6 4.5 93.6 4.5 93.6Z" fill="#1F3025"/><path d="M3.2 3.1Q1.8 -72.4 12.8 -151.2L10.7 -151.5Q-2.5 -72.7 -3.2 3.1ZM-1.4 2.2Q22.4 16.8 39.8 44.2L41.5 43.2Q25 14.4 1.4 -2.2ZM1.3 2.1Q25.4 -13.8 49.6 -16.2L49.5 -18.2Q24.2 -17.1 -1.3 -2.1ZM2.2 -26.5Q19.7 -47.7 36.8 -50.5L36.6 -52.5Q17.9 -50.6 -1.4 -29.7ZM3.7 -56.5Q17.3 -80.4 29.6 -83.3L29.2 -85.2Q15 -82.8 -0.3 -58.9ZM6 -86.6Q15.4 -113.2 22.4 -116.1L21.7 -117.9Q12.6 -114.9 1.8 -88.2ZM-1.5 -2.1Q-23.6 14.4 -42.8 43.1L-41.2 44.3Q-21 16.8 1.5 2.1ZM1.3 -2.2Q-26.2 -17.1 -53.3 -18.2L-53.5 -16.2Q-27.2 -13.8 -1.3 2.2ZM2.2 -29.7Q-17.1 -50.6 -36.8 -52.5L-37 -50.5Q-18.9 -47.7 -1.4 -26.5ZM3.8 -58.8Q-9.5 -82.8 -24.1 -85.2L-24.5 -83.3Q-11.9 -80.4 -0.4 -56.6ZM6.1 -87.8Q-0.1 -114.7 -8.9 -117.9L-9.6 -116.1Q-3.1 -113.4 1.7 -86.9Z" fill="#C9D2BC"/><path d="M0.1 11.7C0.1 11.7 6.7 16 11.1 20.3C15.5 24.6 21.9 33 26.5 37.4C31 41.9 35 46.1 38.6 46.8C42.2 47.4 45.9 45.2 48.1 41.3C50.2 37.4 50.8 29.5 51.2 23.4C51.6 17.3 51.3 11.4 50.2 4.7C49.1 -2.1 46.8 -10.7 44.8 -17.2C42.7 -23.7 39.1 -28.6 37.9 -34.3C36.6 -40 38.1 -45.9 37 -51.5C36 -57.1 32.5 -62.4 31.3 -67.9C30.1 -73.3 30.8 -78.8 29.7 -84.2C28.6 -89.7 26 -95.2 24.7 -100.6C23.5 -106.1 23.9 -109.5 22.2 -117C20.6 -124.5 16.5 -139.4 14.8 -145.9C13.2 -152.4 12.5 -156 12.5 -156C12.5 -156 10.3 -152.4 6.6 -145.9C3 -139.4 -5.7 -124.5 -9.4 -117C-13.2 -109.5 -13.5 -106.1 -16.1 -100.6C-18.6 -95.2 -22.4 -89.7 -24.6 -84.2C-26.8 -78.8 -27 -73.3 -29.2 -67.9C-31.3 -62.4 -35.5 -57.1 -37.3 -51.5C-39.1 -45.9 -38.2 -40 -40 -34.3C-41.8 -28.6 -45.8 -23.7 -48.2 -17.2C-50.6 -10.7 -53.2 -2.1 -54.3 4.7C-55.5 11.4 -55.6 17.3 -54.9 23.4C-54.2 29.5 -52.8 37.4 -50.2 41.3C-47.7 45.2 -43.6 47.4 -39.4 46.8C-35.2 46.1 -29.8 41.9 -25 37.4C-20.2 33 -14.9 24.6 -10.7 20.3C-6.5 16 0.1 11.7 0.1 11.7Z" fill="none" stroke="#C9D2BC" stroke-width="8.4" stroke-linejoin="round"/></g></g><path d="M306 599.9C306 599.9 304.7 564.7 304 543C303.3 521.3 302.5 493.2 301.8 469.9C301.2 446.6 300.6 425 300.2 403.3C299.9 381.7 299.5 360.6 299.7 340C299.9 319.5 300.8 297.3 301.5 280C302.1 262.7 304.3 243.5 303.5 236.2C302.7 228.8 298 228.6 296.5 235.8C295 243.1 295 262.4 294.3 279.7C293.6 297.1 292.6 319.3 292.3 340C292.1 360.6 292.4 381.8 292.8 403.4C293.1 425.1 293.6 446.8 294.2 470.1C294.7 493.4 295.6 521.6 296.2 543.3C296.8 564.9 298 600.1 298 600.1C298 600.1 306 599.9 306 599.9Z" fill="#A5B296"/><g transform="translate(300 242) rotate(-5)"><clipPath id="alam-rl8"><path d="M0 0C1.5 0 2.8 3.3 4.6 0C6.4 -3.3 9.3 -9.8 10.7 -19.6C12.2 -29.4 12.9 -45.7 13.2 -58.8C13.5 -71.9 12.9 -87.7 12.3 -98.3C11.8 -108.9 10.5 -116.8 9.7 -122.4C9 -128.1 7.9 -132 7.9 -132C7.9 -132 5.9 -128.5 4 -123.1C2.1 -117.7 -1.1 -110.2 -3.4 -99.7C-5.8 -89.2 -8.8 -73.3 -10 -60C-11.2 -46.7 -11.3 -30 -10.4 -20C-9.5 -10 -6.4 -3.3 -4.6 0C-2.9 3.3 -1.5 0 0 0Z"/></clipPath><path d="M0 0C1.5 0 2.8 3.3 4.6 0C6.4 -3.3 9.3 -9.8 10.7 -19.6C12.2 -29.4 12.9 -45.7 13.2 -58.8C13.5 -71.9 12.9 -87.7 12.3 -98.3C11.8 -108.9 10.5 -116.8 9.7 -122.4C9 -128.1 7.9 -132 7.9 -132C7.9 -132 5.9 -128.5 4 -123.1C2.1 -117.7 -1.1 -110.2 -3.4 -99.7C-5.8 -89.2 -8.8 -73.3 -10 -60C-11.2 -46.7 -11.3 -30 -10.4 -20C-9.5 -10 -6.4 -3.3 -4.6 0C-2.9 3.3 -1.5 0 0 0Z" fill="#5B7458"/><g clip-path="url(#alam-rl8)"><path d="M0.7 39.6C0.7 39.6 0.4 30.8 0.3 26.4C0.2 22 0.1 17.6 0.1 13.2C0 8.8 0 4.4 0 0C0 -4.4 0 -8.8 0.1 -13.2C0.1 -17.6 0.2 -22 0.3 -26.4C0.4 -30.8 0.6 -35.2 0.7 -39.6C0.9 -44 1.1 -48.4 1.3 -52.8C1.5 -57.2 1.7 -61.6 2 -66C2.2 -70.4 2.5 -74.8 2.9 -79.2C3.2 -83.6 3.5 -88 3.9 -92.4C4.3 -96.8 4.6 -101.2 5.1 -105.6C5.5 -110 5.9 -114.4 6.4 -118.8C6.9 -123.2 7.4 -127.6 7.9 -132C8.4 -136.4 9 -140.8 9.6 -145.2C10.2 -149.6 11.4 -158.4 11.4 -158.4C11.4 -158.4 403.4 -102 403.4 -102C403.4 -102 402.6 -96.2 402.2 -93.4C401.8 -90.5 401.4 -87.7 401.1 -84.8C400.8 -82 400.4 -79.1 400.1 -76.3C399.8 -73.4 399.5 -70.6 399.3 -67.8C399 -64.9 398.7 -62.1 398.5 -59.3C398.3 -56.4 398 -53.6 397.8 -50.8C397.6 -47.9 397.4 -45.1 397.3 -42.3C397.1 -39.5 396.9 -36.6 396.8 -33.8C396.7 -31 396.6 -28.2 396.5 -25.4C396.4 -22.5 396.3 -19.7 396.2 -16.9C396.1 -14.1 396.1 -11.3 396.1 -8.4C396 -5.6 396 -2.8 396 0C396 2.8 396 5.6 396.1 8.4C396.1 11.3 396.1 14.1 396.2 16.9C396.3 19.7 396.5 25.4 396.5 25.4C396.5 25.4 0.7 39.6 0.7 39.6Z" fill="#4B6349"/><path d="M-10.5 -6.7C-8.6 -13.3 -2.7 -33.1 1 -46.2C4.6 -59.3 9.8 -72.7 11.2 -85.2C12.6 -97.7 9.6 -115.2 9.3 -121.2" fill="none" stroke="#A5B296" stroke-width="4.5" stroke-linecap="round"/><path d="M0 0C1.5 0 2.8 3.3 4.6 0C6.4 -3.3 9.3 -9.8 10.7 -19.6C12.2 -29.4 12.9 -45.7 13.2 -58.8C13.5 -71.9 12.9 -87.7 12.3 -98.3C11.8 -108.9 10.5 -116.8 9.7 -122.4C9 -128.1 7.9 -132 7.9 -132C7.9 -132 5.9 -128.5 4 -123.1C2.1 -117.7 -1.1 -110.2 -3.4 -99.7C-5.8 -89.2 -8.8 -73.3 -10 -60C-11.2 -46.7 -11.3 -30 -10.4 -20C-9.5 -10 -6.4 -3.3 -4.6 0C-2.9 3.3 -1.5 0 0 0Z" fill="none" stroke="#A5B296" stroke-width="8"/></g></g><path d="M288 599.7C288 599.7 286.2 578.2 285.1 565.5C284 552.8 282.6 536 281.5 523.4C280.4 510.8 279.5 500.5 278.4 489.8C277.4 479.2 276.3 469 275.2 459.3C274.1 449.7 273 440.5 271.7 431.9C270.5 423.2 269.3 415.1 267.9 407.4C266.5 399.8 265.1 392.6 263.5 386C261.9 379.3 260.2 373.1 258.4 367.5C256.5 361.8 254.6 356.6 252.4 351.9C250.2 347.2 247.9 343 245.3 339.3C242.7 335.6 240 332.3 237 329.6C233.9 326.9 230.6 324.7 227.1 323C223.6 321.3 219.8 320.2 215.8 319.5C211.8 318.9 207.9 318.7 203.1 319.3C198.2 320 191.5 322 186.6 323.4C181.6 324.8 175.3 326.3 173.3 327.8C171.3 329.3 172.3 332.2 174.7 332.2C177.2 332.2 183.2 329.3 188 328C192.8 326.7 199.1 324.8 203.7 324.3C208.2 323.8 211.5 324.1 215 324.7C218.5 325.3 221.7 326.4 224.7 327.9C227.8 329.4 230.5 331.3 233.1 333.8C235.7 336.2 238.2 339.1 240.5 342.6C242.8 346 244.9 350 246.9 354.4C248.8 358.9 250.7 363.9 252.4 369.4C254.1 374.9 255.7 380.9 257.2 387.4C258.6 394 260 401 261.3 408.6C262.6 416.1 263.7 424.2 264.9 432.8C266 441.4 267.1 450.5 268.1 460.1C269.1 469.7 270.1 479.9 271.1 490.5C272 501.2 272.9 511.4 274 524C275 536.6 276.4 553.4 277.4 566.2C278.4 578.9 280 600.3 280 600.3C280 600.3 288 599.7 288 599.7Z" fill="#7F9273"/><g transform="translate(174 330) rotate(-113)"><clipPath id="alam-ac9"><path d="M-0.1 9.6C-0.1 9.6 5.3 12.5 8.7 15.8C12.2 19.1 16.7 25.7 20.4 29.2C24.1 32.6 27.7 36 30.9 36.5C34 37 37.4 35.3 39.4 32.2C41.5 29.2 42.7 23 43.2 18.2C43.8 13.5 43.7 9.2 42.9 3.8C42 -1.5 39.9 -8.7 38 -14.1C36 -19.4 32.8 -23.5 31.3 -28.2C29.8 -32.9 30.5 -37.7 29 -42.2C27.4 -46.8 23.9 -51.2 22.1 -55.7C20.3 -60.2 20 -64.6 18.2 -69.1C16.3 -73.6 13 -78.1 10.9 -82.6C8.7 -87 8.4 -89.8 5.1 -96C1.8 -102.2 -5.8 -114.3 -8.9 -119.7C-12.1 -125 -14.1 -128 -14.1 -128C-14.1 -128 -14.5 -125 -15.7 -119.7C-16.8 -114.3 -19.8 -102.2 -20.9 -96C-22.1 -89.8 -21.7 -87 -22.6 -82.6C-23.5 -78.1 -25.5 -73.6 -26.4 -69.1C-27.2 -64.6 -26.5 -60.2 -27.5 -55.7C-28.4 -51.2 -31.2 -46.8 -32 -42.2C-32.9 -37.7 -31.6 -32.9 -32.6 -28.2C-33.7 -23.5 -36.6 -19.4 -38.3 -14.1C-40 -8.7 -42 -1.5 -42.9 3.8C-43.8 9.2 -44.1 13.5 -43.8 18.2C-43.5 23 -43 29.2 -41.2 32.2C-39.4 35.3 -36.4 37 -33.1 36.5C-29.9 36 -25.8 32.6 -21.9 29.2C-17.9 25.7 -12.8 19.1 -9.2 15.8C-5.5 12.5 -0.1 9.6 -0.1 9.6Z"/></clipPath><path d="M-0.1 9.6C-0.1 9.6 5.3 12.5 8.7 15.8C12.2 19.1 16.7 25.7 20.4 29.2C24.1 32.6 27.7 36 30.9 36.5C34 37 37.4 35.3 39.4 32.2C41.5 29.2 42.7 23 43.2 18.2C43.8 13.5 43.7 9.2 42.9 3.8C42 -1.5 39.9 -8.7 38 -14.1C36 -19.4 32.8 -23.5 31.3 -28.2C29.8 -32.9 30.5 -37.7 29 -42.2C27.4 -46.8 23.9 -51.2 22.1 -55.7C20.3 -60.2 20 -64.6 18.2 -69.1C16.3 -73.6 13 -78.1 10.9 -82.6C8.7 -87 8.4 -89.8 5.1 -96C1.8 -102.2 -5.8 -114.3 -8.9 -119.7C-12.1 -125 -14.1 -128 -14.1 -128C-14.1 -128 -14.5 -125 -15.7 -119.7C-16.8 -114.3 -19.8 -102.2 -20.9 -96C-22.1 -89.8 -21.7 -87 -22.6 -82.6C-23.5 -78.1 -25.5 -73.6 -26.4 -69.1C-27.2 -64.6 -26.5 -60.2 -27.5 -55.7C-28.4 -51.2 -31.2 -46.8 -32 -42.2C-32.9 -37.7 -31.6 -32.9 -32.6 -28.2C-33.7 -23.5 -36.6 -19.4 -38.3 -14.1C-40 -8.7 -42 -1.5 -42.9 3.8C-43.8 9.2 -44.1 13.5 -43.8 18.2C-43.5 23 -43 29.2 -41.2 32.2C-39.4 35.3 -36.4 37 -33.1 36.5C-29.9 36 -25.8 32.6 -21.9 29.2C-17.9 25.7 -12.8 19.1 -9.2 15.8C-5.5 12.5 -0.1 9.6 -0.1 9.6Z" fill="#314B37"/><g clip-path="url(#alam-ac9)"><path d="M-5.1 76.8C-5.1 76.8 -2.1 51.2 -1.3 38.4C-0.4 25.6 -0.1 11.7 0 0C0.1 -11.7 -0.3 -21.3 -0.9 -32C-1.5 -42.7 -2.3 -53.3 -3.5 -64C-4.7 -74.7 -6.2 -85.3 -7.9 -96C-9.7 -106.7 -11.4 -116.3 -14.1 -128C-16.7 -139.7 -23.8 -166.4 -23.8 -166.4C-23.8 -166.4 -177.4 -166.4 -177.4 -166.4C-177.4 -166.4 -170.3 -139.7 -167.7 -128C-165 -116.3 -163.3 -106.7 -161.5 -96C-159.8 -85.3 -158.3 -74.7 -157.1 -64C-155.9 -53.3 -155.1 -42.7 -154.5 -32C-153.9 -21.3 -153.5 -11.7 -153.6 0C-153.7 11.7 -154 25.6 -154.9 38.4C-155.7 51.2 -158.7 76.8 -158.7 76.8C-158.7 76.8 -5.1 76.8 -5.1 76.8Z" fill="#27392C"/><path d="M3.2 2.6Q2.5 -59.7 -12.2 -124.4L-14.3 -123.9Q-1.7 -59.3 -3.2 2.5ZM-1.4 2.2Q17.7 13.4 32.1 34.6L33.8 33.5Q20.3 10.9 1.4 -2.2ZM1.3 2.1Q21.6 -11 42.1 -13.1L42 -15.1Q20.5 -14.3 -1.3 -2.1ZM1.4 -21.5Q14.7 -38.9 28.8 -41.2L28.5 -43.2Q12.9 -41.7 -2.3 -24.6ZM0.2 -46.4Q8.5 -65.8 18.1 -68.1L17.7 -70.1Q6.1 -68.1 -4.1 -48.4ZM-2.2 -71.3Q0.6 -93 5.3 -95.1L4.6 -96.9Q-2.5 -94.2 -6.7 -72ZM-1.4 -2.2Q-20 10.9 -35.7 33.5L-34.1 34.6Q-17.5 13.4 1.4 2.2ZM1.3 -2.1Q-20.7 -14.3 -42.3 -15.1L-42.5 -13.1Q-21.8 -11 -1.3 2.1ZM1.3 -24.7Q-15.5 -41.8 -31.6 -43.2L-31.9 -41.2Q-17.3 -38.9 -2.2 -21.4ZM0 -48.6Q-13.6 -68.2 -26 -70.1L-26.3 -68.1Q-15.9 -65.7 -3.9 -46.1ZM-2.3 -72.6Q-12.4 -94.5 -20.4 -96.9L-21.1 -95.1Q-15.1 -92.7 -6.5 -70.8Z" fill="#C9D2BC"/><path d="M-0.1 9.6C-0.1 9.6 5.3 12.5 8.7 15.8C12.2 19.1 16.7 25.7 20.4 29.2C24.1 32.6 27.7 36 30.9 36.5C34 37 37.4 35.3 39.4 32.2C41.5 29.2 42.7 23 43.2 18.2C43.8 13.5 43.7 9.2 42.9 3.8C42 -1.5 39.9 -8.7 38 -14.1C36 -19.4 32.8 -23.5 31.3 -28.2C29.8 -32.9 30.5 -37.7 29 -42.2C27.4 -46.8 23.9 -51.2 22.1 -55.7C20.3 -60.2 20 -64.6 18.2 -69.1C16.3 -73.6 13 -78.1 10.9 -82.6C8.7 -87 8.4 -89.8 5.1 -96C1.8 -102.2 -5.8 -114.3 -8.9 -119.7C-12.1 -125 -14.1 -128 -14.1 -128C-14.1 -128 -14.5 -125 -15.7 -119.7C-16.8 -114.3 -19.8 -102.2 -20.9 -96C-22.1 -89.8 -21.7 -87 -22.6 -82.6C-23.5 -78.1 -25.5 -73.6 -26.4 -69.1C-27.2 -64.6 -26.5 -60.2 -27.5 -55.7C-28.4 -51.2 -31.2 -46.8 -32 -42.2C-32.9 -37.7 -31.6 -32.9 -32.6 -28.2C-33.7 -23.5 -36.6 -19.4 -38.3 -14.1C-40 -8.7 -42 -1.5 -42.9 3.8C-43.8 9.2 -44.1 13.5 -43.8 18.2C-43.5 23 -43 29.2 -41.2 32.2C-39.4 35.3 -36.4 37 -33.1 36.5C-29.9 36 -25.8 32.6 -21.9 29.2C-17.9 25.7 -12.8 19.1 -9.2 15.8C-5.5 12.5 -0.1 9.6 -0.1 9.6Z" fill="none" stroke="#C9D2BC" stroke-width="7.6" stroke-linejoin="round"/></g></g><path d="M297.9 600.9C297.9 600.9 301.8 584.1 304.1 574.1C306.5 564.1 309.6 550.9 312.1 540.8C314.6 530.8 316.7 522.4 319 513.7C321.2 505 323.5 496.6 325.8 488.6C328 480.6 330.3 472.9 332.6 465.6C334.9 458.3 337.2 451.4 339.6 444.8C342 438.3 344.4 432.1 346.9 426.3C349.3 420.6 351.9 415.2 354.5 410.2C357.1 405.3 359.7 400.7 362.5 396.6C365.2 392.5 368.1 388.8 371 385.5C373.9 382.2 376.9 379.4 380.1 376.9C383.2 374.5 386.4 372.6 389.8 371C393.2 369.5 396.7 368.4 400.4 367.7C404.1 367 407.5 366.6 411.9 367C416.3 367.4 422.3 369.1 426.8 370.3C431.4 371.5 437 374.3 439.3 374.2C441.6 374.1 442.5 371.2 440.7 369.8C438.9 368.4 433 367 428.2 365.7C423.5 364.4 417.2 362.5 412.4 362C407.6 361.5 403.6 361.9 399.5 362.5C395.3 363.2 391.4 364.4 387.6 366C383.8 367.7 380.1 369.9 376.7 372.4C373.2 375 369.9 378.1 366.7 381.5C363.5 385 360.4 388.9 357.4 393.2C354.5 397.5 351.7 402.2 348.9 407.3C346.1 412.4 343.5 417.9 340.9 423.7C338.3 429.6 335.8 435.9 333.3 442.5C330.8 449.1 328.4 456.1 326 463.5C323.6 470.8 321.2 478.5 318.9 486.6C316.5 494.7 314.2 503.1 311.8 511.8C309.5 520.5 307.3 528.9 304.8 539C302.2 549.1 299 562.3 296.6 572.3C294.1 582.3 290.1 599.1 290.1 599.1C290.1 599.1 297.9 600.9 297.9 600.9Z" fill="#7F9273"/><g transform="translate(440 372) rotate(114) scale(0.9 1)"><clipPath id="alam-ac10"><path d="M0.1 8.8C0.1 8.8 5.1 11.6 8.5 14.6C11.8 17.6 16.5 23.7 20.1 26.9C23.8 30.1 27.6 33.2 30.6 33.6C33.5 34.1 36.4 32.5 38 29.7C39.6 26.9 40.1 21.2 40.4 16.8C40.6 12.5 40.4 8.5 39.5 3.5C38.7 -1.4 36.9 -8.1 35.3 -13C33.7 -17.9 31 -21.6 30.1 -26C29.1 -30.3 30.3 -34.7 29.5 -38.9C28.7 -43.2 26.2 -47.2 25.3 -51.3C24.5 -55.5 25.1 -59.6 24.3 -63.7C23.6 -67.9 21.7 -72 20.8 -76.1C20 -80.2 20.3 -82.8 19.3 -88.5C18.2 -94.2 15.5 -105.4 14.4 -110.3C13.4 -115.2 13 -118 13 -118C13 -118 11.2 -115.2 8.2 -110.3C5.3 -105.4 -1.6 -94.2 -4.7 -88.5C-7.7 -82.8 -8 -80.2 -10 -76.1C-12 -72 -15 -67.9 -16.7 -63.7C-18.5 -59.6 -18.8 -55.5 -20.4 -51.3C-22.1 -47.2 -25.3 -43.2 -26.7 -38.9C-28.1 -34.7 -27.4 -30.3 -28.8 -26C-30.2 -21.6 -33.2 -17.9 -35 -13C-36.8 -8.1 -38.7 -1.4 -39.5 3.5C-40.3 8.5 -40.4 12.5 -39.9 16.8C-39.3 21.2 -38.2 26.9 -36.3 29.7C-34.4 32.5 -31.4 34.1 -28.4 33.6C-25.5 33.2 -22.2 30.1 -18.8 26.9C-15.4 23.7 -11.2 17.6 -8.1 14.6C-4.9 11.6 0.1 8.8 0.1 8.8Z"/></clipPath><path d="M0.1 8.8C0.1 8.8 5.1 11.6 8.5 14.6C11.8 17.6 16.5 23.7 20.1 26.9C23.8 30.1 27.6 33.2 30.6 33.6C33.5 34.1 36.4 32.5 38 29.7C39.6 26.9 40.1 21.2 40.4 16.8C40.6 12.5 40.4 8.5 39.5 3.5C38.7 -1.4 36.9 -8.1 35.3 -13C33.7 -17.9 31 -21.6 30.1 -26C29.1 -30.3 30.3 -34.7 29.5 -38.9C28.7 -43.2 26.2 -47.2 25.3 -51.3C24.5 -55.5 25.1 -59.6 24.3 -63.7C23.6 -67.9 21.7 -72 20.8 -76.1C20 -80.2 20.3 -82.8 19.3 -88.5C18.2 -94.2 15.5 -105.4 14.4 -110.3C13.4 -115.2 13 -118 13 -118C13 -118 11.2 -115.2 8.2 -110.3C5.3 -105.4 -1.6 -94.2 -4.7 -88.5C-7.7 -82.8 -8 -80.2 -10 -76.1C-12 -72 -15 -67.9 -16.7 -63.7C-18.5 -59.6 -18.8 -55.5 -20.4 -51.3C-22.1 -47.2 -25.3 -43.2 -26.7 -38.9C-28.1 -34.7 -27.4 -30.3 -28.8 -26C-30.2 -21.6 -33.2 -17.9 -35 -13C-36.8 -8.1 -38.7 -1.4 -39.5 3.5C-40.3 8.5 -40.4 12.5 -39.9 16.8C-39.3 21.2 -38.2 26.9 -36.3 29.7C-34.4 32.5 -31.4 34.1 -28.4 33.6C-25.5 33.2 -22.2 30.1 -18.8 26.9C-15.4 23.7 -11.2 17.6 -8.1 14.6C-4.9 11.6 0.1 8.8 0.1 8.8Z" fill="#314B37"/><g clip-path="url(#alam-ac10)"><path d="M4.7 70.8C4.7 70.8 1.9 47.2 1.2 35.4C0.4 23.6 0.1 10.8 0 0C-0.1 -10.8 0.3 -19.7 0.8 -29.5C1.4 -39.3 2.2 -49.2 3.2 -59C4.3 -68.8 5.7 -78.7 7.3 -88.5C8.9 -98.3 10.5 -107.2 13 -118C15.4 -128.8 21.9 -153.4 21.9 -153.4C21.9 -153.4 163.5 -153.4 163.5 -153.4C163.5 -153.4 157 -128.8 154.6 -118C152.1 -107.2 150.5 -98.3 148.9 -88.5C147.3 -78.7 145.9 -68.8 144.8 -59C143.8 -49.2 143 -39.3 142.4 -29.5C141.9 -19.7 141.5 -10.8 141.6 0C141.7 10.8 142 23.6 142.8 35.4C143.5 47.2 146.3 70.8 146.3 70.8C146.3 70.8 4.7 70.8 4.7 70.8Z" fill="#27392C"/><path d="M3.2 2.3Q1.8 -54.6 13.3 -114.2L11.1 -114.7Q-2.5 -55.1 -3.2 2.4ZM-1.4 2.2Q16 12.5 31.4 32L33 30.8Q18.5 9.9 1.4 -2.2ZM1.3 2.1Q20.1 -10 39.2 -12L39 -14Q19 -13.3 -1.3 -2.1ZM2.2 -19.6Q16 -35.7 29.4 -37.9L29.1 -39.9Q14.2 -38.6 -1.4 -22.9ZM3.7 -42.4Q14.7 -60.5 24.3 -62.7L23.9 -64.7Q12.5 -63 -0.2 -44.9ZM6.2 -65.2Q14.1 -85.3 19.5 -87.6L18.8 -89.4Q11.3 -87.2 2 -67ZM-1.4 -2.2Q-18.8 10 -31.2 30.9L-29.5 31.9Q-16.2 12.5 1.4 2.2ZM1.3 -2.1Q-18.8 -13.3 -38.7 -14L-38.8 -12Q-20 -10 -1.3 2.1ZM2.3 -22.8Q-11.8 -38.6 -26.3 -39.9L-26.6 -37.9Q-13.7 -35.7 -1.4 -19.7ZM3.9 -44.7Q-5.5 -62.8 -16.3 -64.7L-16.7 -62.7Q-8 -60.6 -0.3 -42.7ZM6.3 -66.4Q2.4 -86.8 -4.2 -89.4L-4.9 -87.6Q-0.7 -85.7 1.8 -65.7Z" fill="#C9D2BC"/><path d="M0.1 8.8C0.1 8.8 5.1 11.6 8.5 14.6C11.8 17.6 16.5 23.7 20.1 26.9C23.8 30.1 27.6 33.2 30.6 33.6C33.5 34.1 36.4 32.5 38 29.7C39.6 26.9 40.1 21.2 40.4 16.8C40.6 12.5 40.4 8.5 39.5 3.5C38.7 -1.4 36.9 -8.1 35.3 -13C33.7 -17.9 31 -21.6 30.1 -26C29.1 -30.3 30.3 -34.7 29.5 -38.9C28.7 -43.2 26.2 -47.2 25.3 -51.3C24.5 -55.5 25.1 -59.6 24.3 -63.7C23.6 -67.9 21.7 -72 20.8 -76.1C20 -80.2 20.3 -82.8 19.3 -88.5C18.2 -94.2 15.5 -105.4 14.4 -110.3C13.4 -115.2 13 -118 13 -118C13 -118 11.2 -115.2 8.2 -110.3C5.3 -105.4 -1.6 -94.2 -4.7 -88.5C-7.7 -82.8 -8 -80.2 -10 -76.1C-12 -72 -15 -67.9 -16.7 -63.7C-18.5 -59.6 -18.8 -55.5 -20.4 -51.3C-22.1 -47.2 -25.3 -43.2 -26.7 -38.9C-28.1 -34.7 -27.4 -30.3 -28.8 -26C-30.2 -21.6 -33.2 -17.9 -35 -13C-36.8 -8.1 -38.7 -1.4 -39.5 3.5C-40.3 8.5 -40.4 12.5 -39.9 16.8C-39.3 21.2 -38.2 26.9 -36.3 29.7C-34.4 32.5 -31.4 34.1 -28.4 33.6C-25.5 33.2 -22.2 30.1 -18.8 26.9C-15.4 23.7 -11.2 17.6 -8.1 14.6C-4.9 11.6 0.1 8.8 0.1 8.8Z" fill="none" stroke="#C9D2BC" stroke-width="8.8" stroke-linejoin="round"/></g></g><path d="M279.5 599.6C279.5 599.6 278.1 587 277.3 579.5C276.6 572 275.5 562.1 274.7 554.7C273.9 547.2 273.3 541.2 272.7 535C272 528.7 271.3 522.8 270.7 517.2C270 511.6 269.3 506.3 268.6 501.3C267.8 496.3 267.1 491.6 266.3 487.2C265.5 482.9 264.6 478.8 263.6 475.1C262.7 471.4 261.7 467.9 260.5 464.8C259.4 461.7 258.2 458.9 256.8 456.5C255.4 454 253.9 451.8 252.2 449.9C250.4 448.1 248.6 446.6 246.5 445.4C244.4 444.3 242.1 443.6 239.7 443.2C237.3 442.9 234.8 442.9 232.1 443.3C229.3 443.7 226.8 444.3 223.4 445.6C220.1 446.9 215.6 449.3 212.2 451C208.7 452.8 204.2 454.7 203 456.2C201.8 457.6 203.1 460.1 205 459.8C206.9 459.6 210.9 456.6 214.2 454.9C217.5 453.2 222 451 225 449.8C228.1 448.7 230.4 448.3 232.7 448C235 447.7 237.1 447.7 238.9 448.1C240.8 448.4 242.4 449 244 449.9C245.5 450.8 246.9 451.9 248.3 453.5C249.6 455 250.8 456.8 252 459C253.2 461.2 254.3 463.8 255.3 466.7C256.3 469.6 257.2 472.9 258 476.5C258.9 480.1 259.7 484 260.4 488.3C261.2 492.6 261.8 497.2 262.5 502.1C263.2 507 263.8 512.3 264.4 517.9C265 523.5 265.6 529.4 266.2 535.6C266.8 541.9 267.4 547.9 268.1 555.3C268.8 562.8 269.8 572.7 270.6 580.2C271.3 587.7 272.5 600.4 272.5 600.4C272.5 600.4 279.5 599.6 279.5 599.6Z" fill="#7F9273"/><g transform="translate(204 458) rotate(-122) scale(-0.9 1)"><clipPath id="alam-ac11"><path d="M0 7.8C0 7.8 4.5 10.7 7.4 13.5C10.4 16.4 14.4 22 17.6 25C20.9 27.9 24.1 30.8 26.7 31.2C29.4 31.6 31.9 30.2 33.3 27.6C34.8 25 35.3 19.7 35.5 15.6C35.8 11.5 35.6 7.6 34.8 3.1C34.1 -1.4 32.5 -7.1 31.1 -11.4C29.7 -15.8 27.3 -19.1 26.4 -22.9C25.5 -26.7 26.5 -30.6 25.7 -34.3C24.9 -38 22.6 -41.6 21.7 -45.2C20.9 -48.9 21.3 -52.5 20.5 -56.2C19.7 -59.8 17.9 -63.4 17.1 -67.1C16.2 -70.7 16.4 -73 15.2 -78C14.1 -83 11.2 -92.9 10 -97.2C8.9 -101.6 8.3 -104 8.3 -104C8.3 -104 6.9 -101.6 4.5 -97.2C2.2 -92.9 -3.4 -83 -5.9 -78C-8.3 -73 -8.5 -70.7 -10.1 -67.1C-11.8 -63.4 -14.2 -59.8 -15.7 -56.2C-17.1 -52.5 -17.2 -48.9 -18.6 -45.2C-20 -41.6 -22.7 -38 -23.9 -34.3C-25 -30.6 -24.4 -26.7 -25.6 -22.9C-26.7 -19.1 -29.3 -15.8 -30.9 -11.4C-32.4 -7.1 -34.1 -1.4 -34.8 3.1C-35.5 7.6 -35.6 11.5 -35.2 15.6C-34.7 19.7 -33.8 25 -32.2 27.6C-30.5 30.2 -27.8 31.6 -25.3 31.2C-22.7 30.8 -19.7 27.9 -16.7 25C-13.7 22 -9.9 16.4 -7.1 13.5C-4.4 10.7 0 7.8 0 7.8Z"/></clipPath><path d="M0 7.8C0 7.8 4.5 10.7 7.4 13.5C10.4 16.4 14.4 22 17.6 25C20.9 27.9 24.1 30.8 26.7 31.2C29.4 31.6 31.9 30.2 33.3 27.6C34.8 25 35.3 19.7 35.5 15.6C35.8 11.5 35.6 7.6 34.8 3.1C34.1 -1.4 32.5 -7.1 31.1 -11.4C29.7 -15.8 27.3 -19.1 26.4 -22.9C25.5 -26.7 26.5 -30.6 25.7 -34.3C24.9 -38 22.6 -41.6 21.7 -45.2C20.9 -48.9 21.3 -52.5 20.5 -56.2C19.7 -59.8 17.9 -63.4 17.1 -67.1C16.2 -70.7 16.4 -73 15.2 -78C14.1 -83 11.2 -92.9 10 -97.2C8.9 -101.6 8.3 -104 8.3 -104C8.3 -104 6.9 -101.6 4.5 -97.2C2.2 -92.9 -3.4 -83 -5.9 -78C-8.3 -73 -8.5 -70.7 -10.1 -67.1C-11.8 -63.4 -14.2 -59.8 -15.7 -56.2C-17.1 -52.5 -17.2 -48.9 -18.6 -45.2C-20 -41.6 -22.7 -38 -23.9 -34.3C-25 -30.6 -24.4 -26.7 -25.6 -22.9C-26.7 -19.1 -29.3 -15.8 -30.9 -11.4C-32.4 -7.1 -34.1 -1.4 -34.8 3.1C-35.5 7.6 -35.6 11.5 -35.2 15.6C-34.7 19.7 -33.8 25 -32.2 27.6C-30.5 30.2 -27.8 31.6 -25.3 31.2C-22.7 30.8 -19.7 27.9 -16.7 25C-13.7 22 -9.9 16.4 -7.1 13.5C-4.4 10.7 0 7.8 0 7.8Z" fill="#74464D"/><g clip-path="url(#alam-ac11)"><path d="M3 62.4C3 62.4 1.2 41.6 0.7 31.2C0.2 20.8 0 9.5 0 0C0 -9.5 0.2 -17.3 0.5 -26C0.9 -34.7 1.4 -43.3 2.1 -52C2.8 -60.7 3.6 -69.3 4.7 -78C5.7 -86.7 6.8 -94.5 8.3 -104C9.9 -113.5 14.1 -135.2 14.1 -135.2C14.1 -135.2 138.9 -135.2 138.9 -135.2C138.9 -135.2 134.7 -113.5 133.1 -104C131.6 -94.5 130.5 -86.7 129.5 -78C128.4 -69.3 127.6 -60.7 126.9 -52C126.2 -43.3 125.7 -34.7 125.3 -26C125 -17.3 124.8 -9.5 124.8 0C124.8 9.5 125 20.8 125.5 31.2C126 41.6 127.8 62.4 127.8 62.4C127.8 62.4 3 62.4 3 62.4Z" fill="#5E3A40"/><path d="M3.2 2.1Q1.9 -48.2 8.9 -100.7L6.7 -101Q-2.4 -48.5 -3.2 2.1ZM-1.5 2.1Q14 11.7 27.4 29.7L29 28.6Q16.5 9.1 1.5 -2.1ZM1.3 2.1Q17.8 -8.6 34.5 -10.4L34.4 -12.4Q16.7 -12 -1.3 -2.1ZM2.1 -17.1Q13.9 -31.3 25.6 -33.3L25.3 -35.3Q12.1 -34.2 -1.5 -20.4ZM3.1 -37.2Q12.3 -53.2 20.5 -55.2L20.1 -57.1Q10 -55.6 -0.9 -39.7ZM4.7 -57.4Q11 -75.1 15.5 -77.1L14.8 -78.9Q8.2 -76.9 0.5 -59.1ZM-1.5 -2.2Q-16.7 9.2 -27.8 28.6L-26.1 29.6Q-14.1 11.6 1.5 2.2ZM1.3 -2.1Q-16.6 -12 -34.2 -12.4L-34.3 -10.4Q-17.7 -8.6 -1.3 2.1ZM2.1 -20.3Q-10.6 -34.2 -23.5 -35.3L-23.8 -33.3Q-12.4 -31.3 -1.6 -17.2ZM3.2 -39.5Q-5.5 -55.5 -15.3 -57.1L-15.7 -55.2Q-8 -53.2 -1 -37.4ZM4.8 -58.7Q0.6 -76.7 -5.4 -78.9L-6.1 -77.1Q-2.4 -75.4 0.4 -57.8Z" fill="#B97479"/><path d="M0 7.8C0 7.8 4.5 10.7 7.4 13.5C10.4 16.4 14.4 22 17.6 25C20.9 27.9 24.1 30.8 26.7 31.2C29.4 31.6 31.9 30.2 33.3 27.6C34.8 25 35.3 19.7 35.5 15.6C35.8 11.5 35.6 7.6 34.8 3.1C34.1 -1.4 32.5 -7.1 31.1 -11.4C29.7 -15.8 27.3 -19.1 26.4 -22.9C25.5 -26.7 26.5 -30.6 25.7 -34.3C24.9 -38 22.6 -41.6 21.7 -45.2C20.9 -48.9 21.3 -52.5 20.5 -56.2C19.7 -59.8 17.9 -63.4 17.1 -67.1C16.2 -70.7 16.4 -73 15.2 -78C14.1 -83 11.2 -92.9 10 -97.2C8.9 -101.6 8.3 -104 8.3 -104C8.3 -104 6.9 -101.6 4.5 -97.2C2.2 -92.9 -3.4 -83 -5.9 -78C-8.3 -73 -8.5 -70.7 -10.1 -67.1C-11.8 -63.4 -14.2 -59.8 -15.7 -56.2C-17.1 -52.5 -17.2 -48.9 -18.6 -45.2C-20 -41.6 -22.7 -38 -23.9 -34.3C-25 -30.6 -24.4 -26.7 -25.6 -22.9C-26.7 -19.1 -29.3 -15.8 -30.9 -11.4C-32.4 -7.1 -34.1 -1.4 -34.8 3.1C-35.5 7.6 -35.6 11.5 -35.2 15.6C-34.7 19.7 -33.8 25 -32.2 27.6C-30.5 30.2 -27.8 31.6 -25.3 31.2C-22.7 30.8 -19.7 27.9 -16.7 25C-13.7 22 -9.9 16.4 -7.1 13.5C-4.4 10.7 0 7.8 0 7.8Z" fill="none" stroke="#B97479" stroke-width="8.3" stroke-linejoin="round"/></g></g><path d="M304.5 599.9C304.5 599.9 304 585.5 303.8 576.9C303.6 568.4 303.2 557.1 303 548.6C302.8 540.2 302.6 533.5 302.5 526.4C302.3 519.4 302.2 512.7 302.1 506.2C302 499.7 301.9 493.6 301.9 487.7C301.8 481.8 301.8 476.2 301.8 470.7C301.9 465.3 301.9 460.1 302 455.1C302.1 450 302.2 445.2 302.4 440.5C302.5 435.7 302.7 431.2 303 426.7C303.2 422.2 303.5 417.9 303.8 413.5C304.1 409.2 304.5 405 304.9 400.8C305.3 396.5 305.8 392.3 306.3 388.1C306.8 383.9 307.3 379.7 307.9 375.4C308.5 371.1 309.1 367.2 309.8 362.4C310.6 357.6 311.7 351.5 312.5 346.9C313.3 342.2 315.2 336.7 314.7 334.5C314.2 332.3 310.6 331.6 309.3 333.5C308 335.4 307.8 341.2 306.9 345.8C306 350.5 304.8 356.6 304 361.4C303.1 366.2 302.5 370.2 301.8 374.5C301.1 378.8 300.5 383.1 299.9 387.3C299.4 391.6 298.8 395.8 298.3 400.1C297.9 404.3 297.4 408.6 297 413C296.6 417.3 296.3 421.7 296 426.3C295.6 430.8 295.4 435.4 295.1 440.2C294.9 444.9 294.7 449.8 294.5 454.9C294.4 460 294.2 465.2 294.2 470.7C294.1 476.1 294 481.8 294 487.7C293.9 493.7 293.9 499.8 294 506.3C294 512.8 294.1 519.5 294.1 526.6C294.2 533.7 294.3 540.4 294.5 548.8C294.6 557.3 294.9 568.6 295 577.1C295.2 585.7 295.5 600.1 295.5 600.1C295.5 600.1 304.5 599.9 304.5 599.9Z" fill="#7F9273"/><g transform="translate(312 334) rotate(11) scale(0.9 1)"><clipPath id="alam-ac12"><path d="M0 10.9C0 10.9 6.2 15 10.3 19C14.3 23 19.9 30.9 24.3 35C28.8 39.2 33.2 43.2 36.9 43.8C40.6 44.4 44.2 42.3 46.3 38.7C48.4 35 49.3 27.6 49.7 21.9C50.2 16.2 49.9 10.7 48.9 4.4C47.9 -1.9 45.6 -10 43.6 -16.1C41.5 -22.1 38 -26.8 36.6 -32.1C35.3 -37.5 36.5 -42.9 35.3 -48.2C34 -53.4 30.6 -58.4 29.1 -63.5C27.7 -68.6 28 -73.7 26.7 -78.8C25.3 -84 22.5 -89.1 20.9 -94.2C19.3 -99.3 19.5 -102.4 17.3 -109.5C15.1 -116.6 9.8 -130.4 7.7 -136.5C5.5 -142.6 4.4 -146 4.4 -146C4.4 -146 2.8 -142.6 0 -136.5C-2.8 -130.4 -9.5 -116.6 -12.3 -109.5C-15.2 -102.4 -15.3 -99.3 -17.3 -94.2C-19.2 -89.1 -22.4 -84 -24.1 -78.8C-25.8 -73.7 -25.8 -68.6 -27.5 -63.5C-29.2 -58.4 -32.9 -53.4 -34.3 -48.2C-35.8 -42.9 -34.7 -37.5 -36.2 -32.1C-37.7 -26.8 -41.3 -22.1 -43.5 -16.1C-45.6 -10 -47.9 -1.9 -48.9 4.4C-49.9 10.7 -50.1 16.2 -49.5 21.9C-49 27.6 -47.9 35 -45.7 38.7C-43.4 42.3 -39.7 44.4 -36.1 43.8C-32.5 43.2 -28.2 39.2 -23.8 35C-19.5 30.9 -14.1 23 -10.1 19C-6.2 15 0 10.9 0 10.9Z"/></clipPath><path d="M0 10.9C0 10.9 6.2 15 10.3 19C14.3 23 19.9 30.9 24.3 35C28.8 39.2 33.2 43.2 36.9 43.8C40.6 44.4 44.2 42.3 46.3 38.7C48.4 35 49.3 27.6 49.7 21.9C50.2 16.2 49.9 10.7 48.9 4.4C47.9 -1.9 45.6 -10 43.6 -16.1C41.5 -22.1 38 -26.8 36.6 -32.1C35.3 -37.5 36.5 -42.9 35.3 -48.2C34 -53.4 30.6 -58.4 29.1 -63.5C27.7 -68.6 28 -73.7 26.7 -78.8C25.3 -84 22.5 -89.1 20.9 -94.2C19.3 -99.3 19.5 -102.4 17.3 -109.5C15.1 -116.6 9.8 -130.4 7.7 -136.5C5.5 -142.6 4.4 -146 4.4 -146C4.4 -146 2.8 -142.6 0 -136.5C-2.8 -130.4 -9.5 -116.6 -12.3 -109.5C-15.2 -102.4 -15.3 -99.3 -17.3 -94.2C-19.2 -89.1 -22.4 -84 -24.1 -78.8C-25.8 -73.7 -25.8 -68.6 -27.5 -63.5C-29.2 -58.4 -32.9 -53.4 -34.3 -48.2C-35.8 -42.9 -34.7 -37.5 -36.2 -32.1C-37.7 -26.8 -41.3 -22.1 -43.5 -16.1C-45.6 -10 -47.9 -1.9 -48.9 4.4C-49.9 10.7 -50.1 16.2 -49.5 21.9C-49 27.6 -47.9 35 -45.7 38.7C-43.4 42.3 -39.7 44.4 -36.1 43.8C-32.5 43.2 -28.2 39.2 -23.8 35C-19.5 30.9 -14.1 23 -10.1 19C-6.2 15 0 10.9 0 10.9Z" fill="#405D43"/><g clip-path="url(#alam-ac12)"><path d="M1.6 87.6C1.6 87.6 0.7 58.4 0.4 43.8C0.1 29.2 0 13.4 0 0C0 -13.4 0.1 -24.3 0.3 -36.5C0.5 -48.7 0.7 -60.8 1.1 -73C1.5 -85.2 1.9 -97.3 2.5 -109.5C3 -121.7 3.6 -132.6 4.4 -146C5.2 -159.4 7.4 -189.8 7.4 -189.8C7.4 -189.8 182.6 -189.8 182.6 -189.8C182.6 -189.8 180.4 -159.4 179.6 -146C178.8 -132.6 178.2 -121.7 177.7 -109.5C177.1 -97.3 176.7 -85.2 176.3 -73C175.9 -60.8 175.7 -48.7 175.5 -36.5C175.3 -24.3 175.2 -13.4 175.2 0C175.2 13.4 175.3 29.2 175.6 43.8C175.9 58.4 176.8 87.6 176.8 87.6C176.8 87.6 1.6 87.6 1.6 87.6Z" fill="#34503A"/><path d="M3.2 2.9Q2 -67.8 5.2 -141.6L3 -141.7Q-2.3 -68 -3.2 2.9ZM-1.5 2.2Q20.2 15.8 38.2 41.4L39.9 40.3Q22.8 13.4 1.5 -2.2ZM1.3 2.1Q24.7 -12.8 48.3 -15.1L48.2 -17.1Q23.6 -16.1 -1.3 -2.1ZM2 -24.7Q18.5 -44.5 35 -47.2L34.8 -49.2Q16.7 -47.4 -1.7 -27.9ZM2.6 -52.8Q14.9 -75.2 26.6 -77.9L26.2 -79.8Q12.6 -77.6 -1.4 -55.2ZM3.5 -81Q11 -105.9 17.5 -108.6L16.8 -110.4Q8.2 -107.5 -0.8 -82.5ZM-1.5 -2.2Q-22.9 13.4 -39.2 40.3L-37.5 41.4Q-20.3 15.8 1.5 2.2ZM1.3 -2.1Q-23.5 -16.1 -48.1 -17.1L-48.2 -15.1Q-24.6 -12.8 -1.3 2.1ZM2 -27.9Q-15.9 -47.4 -33.8 -49.2L-34.1 -47.2Q-17.7 -44.5 -1.7 -24.7ZM2.7 -55.1Q-10.2 -77.5 -23.7 -79.8L-24.1 -77.9Q-12.6 -75.2 -1.5 -52.9ZM3.6 -82.3Q-3.6 -107.4 -11.8 -110.4L-12.6 -108.6Q-6.5 -106 -0.8 -81.2Z" fill="#C9D2BC"/><path d="M0 10.9C0 10.9 6.2 15 10.3 19C14.3 23 19.9 30.9 24.3 35C28.8 39.2 33.2 43.2 36.9 43.8C40.6 44.4 44.2 42.3 46.3 38.7C48.4 35 49.3 27.6 49.7 21.9C50.2 16.2 49.9 10.7 48.9 4.4C47.9 -1.9 45.6 -10 43.6 -16.1C41.5 -22.1 38 -26.8 36.6 -32.1C35.3 -37.5 36.5 -42.9 35.3 -48.2C34 -53.4 30.6 -58.4 29.1 -63.5C27.7 -68.6 28 -73.7 26.7 -78.8C25.3 -84 22.5 -89.1 20.9 -94.2C19.3 -99.3 19.5 -102.4 17.3 -109.5C15.1 -116.6 9.8 -130.4 7.7 -136.5C5.5 -142.6 4.4 -146 4.4 -146C4.4 -146 2.8 -142.6 0 -136.5C-2.8 -130.4 -9.5 -116.6 -12.3 -109.5C-15.2 -102.4 -15.3 -99.3 -17.3 -94.2C-19.2 -89.1 -22.4 -84 -24.1 -78.8C-25.8 -73.7 -25.8 -68.6 -27.5 -63.5C-29.2 -58.4 -32.9 -53.4 -34.3 -48.2C-35.8 -42.9 -34.7 -37.5 -36.2 -32.1C-37.7 -26.8 -41.3 -22.1 -43.5 -16.1C-45.6 -10 -47.9 -1.9 -48.9 4.4C-49.9 10.7 -50.1 16.2 -49.5 21.9C-49 27.6 -47.9 35 -45.7 38.7C-43.4 42.3 -39.7 44.4 -36.1 43.8C-32.5 43.2 -28.2 39.2 -23.8 35C-19.5 30.9 -14.1 23 -10.1 19C-6.2 15 0 10.9 0 10.9Z" fill="none" stroke="#C9D2BC" stroke-width="8.1" stroke-linejoin="round"/></g></g></g><ellipse cx="300" cy="755" rx="104" ry="8" fill="#D8DCD9"/><clipPath id="alam-pc1"><path d="M209 616 L226 738 Q228 751 242 752 Q300 759 358 752 Q372 751 374 738 L391 616Z"/></clipPath><path d="M209 616 L226 738 Q228 751 242 752 Q300 759 358 752 Q372 751 374 738 L391 616Z" fill="#B96E4A"/><g clip-path="url(#alam-pc1)"><path d="M347.3 616 Q343.4 684 329.4 762 L500 762 L500 616Z" fill="#AD6646"/><clipPath id="alam-pt2"><path d="M100 610 H500 V626 Q300 638 100 626Z"/></clipPath><clipPath id="alam-pt3"><path d="M347.3 616 Q343.4 684 329.4 762 L500 762 L500 616Z"/></clipPath><path d="M100 610 H500 V626 Q300 638 100 626Z" fill="#AA6445"/><path d="M100 610 H500 V626 Q300 638 100 626Z" fill="#A35F43" clip-path="url(#alam-pt3)"/><path d="M236.3 630 Q245.4 684 256.6 740" fill="none" stroke="#CA8662" stroke-width="7" stroke-linecap="round"/><path d="M236.3 630 Q245.4 684 256.6 740" fill="none" stroke="#C38260" stroke-width="7" stroke-linecap="round" clip-path="url(#alam-pt2)"/></g><clipPath id="alam-rs5"><path d="M353.9 568 Q360.8 618 349 648 L500 648 L500 568Z"/></clipPath><clipPath id="alam-rc4"><path d="M202 588 A98 14.7 0 0 0 398 588 L396.5 613 Q396 618 389 619 Q300 635.7 211 619 Q204 618 203.5 613Z"/></clipPath><path d="M202 588 A98 14.7 0 0 0 398 588 L396.5 613 Q396 618 389 619 Q300 635.7 211 619 Q204 618 203.5 613Z" fill="#CB825D"/><g clip-path="url(#alam-rc4)"><path d="M353.9 568 Q360.8 618 349 648 L500 648 L500 568Z" fill="#C17753"/><path d="M223.6 600 L221.6 614" stroke="#D3906C" stroke-width="6" stroke-linecap="round"/><path d="M197 589 A103 15.7 0 0 0 403 589" fill="none" stroke="#D59470" stroke-width="5"/><path d="M197 589 A103 15.7 0 0 0 403 589" fill="none" stroke="#D2916D" stroke-width="5" clip-path="url(#alam-rs5)"/></g>
</svg>
