<svg xmlns="http://www.w3.org/2000/svg" width="600" height="800" viewBox="0 0 600 800">
<title>Alocasia amazonica (Alocasia 'Polly')</title>
<ellipse cx="300" cy="588" rx="98" ry="14.7" fill="#92543D"/><ellipse cx="300" cy="590.5" rx="90" ry="11.5" fill="#5C4331"/><path d="M216 589 Q300 579.9 384 589" fill="none" stroke="#4F392A" stroke-width="3"/><g transform="translate(300 600) scale(1.07) translate(-300 -600)"><path d="M290.1 605.1C290.1 605.1 285.4 585.4 282.7 572.8C280 560.1 276.5 543.8 273.8 529.3C271.2 514.9 269.1 500.9 267.1 486C265 471.1 263 455.8 261.5 439.7C260 423.6 259.1 406.1 258 389.5C257 372.8 256.1 356 255.2 339.8C254.3 323.6 253.9 306.6 252.7 292.4C251.5 278.2 251 263.5 247.9 254.8C244.8 246.1 238.4 242.9 234.2 240.1C230 237.2 224.8 237.2 222.6 237.6C220.5 238 219.8 241.2 221.4 242.4C223 243.7 228.7 242.7 232.2 245C235.7 247.4 240.1 248.6 242.5 256.5C244.9 264.5 245.6 278.8 246.7 292.7C247.7 306.7 248 324 248.8 340.2C249.6 356.4 250.4 373.1 251.3 389.8C252.2 406.5 253.1 424.1 254.5 440.3C255.9 456.5 257.7 471.9 259.7 487C261.6 502.1 263.6 516.1 266.2 530.7C268.7 545.3 272.2 561.8 274.8 574.5C277.4 587.2 281.9 606.9 281.9 606.9C281.9 606.9 290.1 605.1 290.1 605.1Z" fill="#A5B296"/><g transform="translate(222 240) rotate(-56)"><clipPath id="alam-ac6"><path d="M-0.1 11.1C-0.1 11.1 6.2 15.2 10.2 19.2C14.2 23.3 19.3 31.3 23.8 35.5C28.4 39.7 33.6 43.8 37.5 44.4C41.5 45 45.3 42.9 47.8 39.2C50.2 35.5 51.5 28 52.1 22.2C52.7 16.4 52.6 10.9 51.6 4.4C50.5 -2 48 -10.1 45.7 -16.3C43.5 -22.4 39.7 -27.1 38 -32.6C36.3 -38 37.2 -43.5 35.5 -48.8C33.9 -54.1 29.9 -59.2 28 -64.4C26 -69.6 25.8 -74.7 23.7 -79.9C21.7 -85.1 18.2 -90.3 15.9 -95.5C13.5 -100.6 13.3 -103.8 9.8 -111C6.3 -118.2 -1.7 -132.2 -5 -138.4C-8.4 -144.5 -10.4 -148 -10.4 -148C-10.4 -148 -11.1 -144.5 -12.8 -138.4C-14.4 -132.2 -18.6 -118.2 -20.2 -111C-21.9 -103.8 -21.6 -100.6 -22.8 -95.5C-24.1 -90.3 -26.6 -85.1 -27.7 -79.9C-28.8 -74.7 -28.2 -69.6 -29.4 -64.4C-30.6 -59.2 -33.9 -54.1 -35 -48.8C-36.1 -43.5 -34.6 -38 -35.8 -32.6C-37.1 -27.1 -40.5 -22.4 -42.5 -16.3C-44.4 -10.1 -46.6 -2 -47.6 4.4C-48.6 10.9 -48.9 16.4 -48.5 22.2C-48.2 28 -47.5 35.5 -45.5 39.2C-43.5 42.9 -39.9 45 -36.5 44.4C-33 43.8 -29.3 39.7 -25 35.5C-20.7 31.3 -14.7 23.3 -10.5 19.2C-6.4 15.2 -0.1 11.1 -0.1 11.1Z"/></clipPath><path d="M-0.1 11.1C-0.1 11.1 6.2 15.2 10.2 19.2C14.2 23.3 19.3 31.3 23.8 35.5C28.4 39.7 33.6 43.8 37.5 44.4C41.5 45 45.3 42.9 47.8 39.2C50.2 35.5 51.5 28 52.1 22.2C52.7 16.4 52.6 10.9 51.6 4.4C50.5 -2 48 -10.1 45.7 -16.3C43.5 -22.4 39.7 -27.1 38 -32.6C36.3 -38 37.2 -43.5 35.5 -48.8C33.9 -54.1 29.9 -59.2 28 -64.4C26 -69.6 25.8 -74.7 23.7 -79.9C21.7 -85.1 18.2 -90.3 15.9 -95.5C13.5 -100.6 13.3 -103.8 9.8 -111C6.3 -118.2 -1.7 -132.2 -5 -138.4C-8.4 -144.5 -10.4 -148 -10.4 -148C-10.4 -148 -11.1 -144.5 -12.8 -138.4C-14.4 -132.2 -18.6 -118.2 -20.2 -111C-21.9 -103.8 -21.6 -100.6 -22.8 -95.5C-24.1 -90.3 -26.6 -85.1 -27.7 -79.9C-28.8 -74.7 -28.2 -69.6 -29.4 -64.4C-30.6 -59.2 -33.9 -54.1 -35 -48.8C-36.1 -43.5 -34.6 -38 -35.8 -32.6C-37.1 -27.1 -40.5 -22.4 -42.5 -16.3C-44.4 -10.1 -46.6 -2 -47.6 4.4C-48.6 10.9 -48.9 16.4 -48.5 22.2C-48.2 28 -47.5 35.5 -45.5 39.2C-43.5 42.9 -39.9 45 -36.5 44.4C-33 43.8 -29.3 39.7 -25 35.5C-20.7 31.3 -14.7 23.3 -10.5 19.2C-6.4 15.2 -0.1 11.1 -0.1 11.1Z" fill="#27392C"/><g clip-path="url(#alam-ac6)"><path d="M-3.7 88.8C-3.7 88.8 -1.6 59.2 -0.9 44.4C-0.3 29.6 0 13.6 0 0C0 -13.6 -0.2 -24.7 -0.6 -37C-1.1 -49.3 -1.7 -61.7 -2.6 -74C-3.5 -86.3 -4.5 -98.7 -5.8 -111C-7.1 -123.3 -8.4 -134.4 -10.4 -148C-12.3 -161.6 -17.5 -192.4 -17.5 -192.4C-17.5 -192.4 160.1 -192.4 160.1 -192.4C160.1 -192.4 165.3 -161.6 167.2 -148C169.2 -134.4 170.5 -123.3 171.8 -111C173.1 -98.7 174.1 -86.3 175 -74C175.9 -61.7 176.5 -49.3 177 -37C177.4 -24.7 177.6 -13.6 177.6 0C177.6 13.6 177.3 29.6 176.7 44.4C176 59.2 173.9 88.8 173.9 88.8C173.9 88.8 -3.7 88.8 -3.7 88.8Z" fill="#1F3025"/><path d="M3.2 3Q2.4 -69 -8.7 -143.7L-10.8 -143.4Q-1.8 -68.7 -3.2 2.9ZM-1.5 2.1Q19.9 16 39.2 42L40.8 40.9Q22.4 13.6 1.5 -2.1ZM1.3 2.2Q25.9 -13 50.7 -15.3L50.6 -17.3Q24.8 -16.3 -1.3 -2.2ZM1.5 -25Q18.1 -45.2 35.3 -47.8L35.1 -49.8Q16.3 -48.1 -2.2 -28.2ZM0.7 -53.7Q11.7 -76.2 23.7 -78.9L23.3 -80.9Q9.3 -78.6 -3.5 -55.9ZM-1 -82.4Q3.8 -107.5 10 -110.1L9.3 -111.9Q0.8 -108.9 -5.5 -83.4ZM-1.4 -2.2Q-23.8 13.6 -39.3 40.9L-37.6 42Q-21.2 16 1.4 2.2ZM1.3 -2.1Q-22.9 -16.3 -46.9 -17.3L-47.1 -15.3Q-24.1 -13 -1.3 2.1ZM1.5 -28.2Q-16.8 -48.1 -34.5 -49.8L-34.8 -47.8Q-18.6 -45.2 -2.2 -25ZM0.6 -56Q-13.8 -78.6 -27.3 -80.9L-27.7 -78.9Q-16.1 -76.2 -3.4 -53.6ZM-1.1 -83.7Q-11.1 -109 -19.7 -111.9L-20.4 -110.1Q-14 -107.3 -5.4 -82.1Z" fill="#C9D2BC"/><path d="M-0.1 11.1C-0.1 11.1 6.2 15.2 10.2 19.2C14.2 23.3 19.3 31.3 23.8 35.5C28.4 39.7 33.6 43.8 37.5 44.4C41.5 45 45.3 42.9 47.8 39.2C50.2 35.5 51.5 28 52.1 22.2C52.7 16.4 52.6 10.9 51.6 4.4C50.5 -2 48 -10.1 45.7 -16.3C43.5 -22.4 39.7 -27.1 38 -32.6C36.3 -38 37.2 -43.5 35.5 -48.8C33.9 -54.1 29.9 -59.2 28 -64.4C26 -69.6 25.8 -74.7 23.7 -79.9C21.7 -85.1 18.2 -90.3 15.9 -95.5C13.5 -100.6 13.3 -103.8 9.8 -111C6.3 -118.2 -1.7 -132.2 -5 -138.4C-8.4 -144.5 -10.4 -148 -10.4 -148C-10.4 -148 -11.1 -144.5 -12.8 -138.4C-14.4 -132.2 -18.6 -118.2 -20.2 -111C-21.9 -103.8 -21.6 -100.6 -22.8 -95.5C-24.1 -90.3 -26.6 -85.1 -27.7 -79.9C-28.8 -74.7 -28.2 -69.6 -29.4 -64.4C-30.6 -59.2 -33.9 -54.1 -35 -48.8C-36.1 -43.5 -34.6 -38 -35.8 -32.6C-37.1 -27.1 -40.5 -22.4 -42.5 -16.3C-44.4 -10.1 -46.6 -2 -47.6 4.4C-48.6 10.9 -48.9 16.4 -48.5 22.2C-48.2 28 -47.5 35.5 -45.5 39.2C-43.5 42.9 -39.9 45 -36.5 44.4C-33 43.8 -29.3 39.7 -25 35.5C-20.7 31.3 -14.7 23.3 -10.5 19.2C-6.4 15.2 -0.1 11.1 -0.1 11.1Z" fill="none" stroke="#C9D2BC" stroke-width="7.6" stroke-linejoin="round"/></g></g><path d="M318.1 607C318.1 607 323.1 587.3 326.1 574.6C329 561.9 333 545.1 335.8 530.8C338.7 516.4 340.9 503.4 343.2 488.3C345.5 473.3 347.7 458.4 349.5 440.4C351.4 422.4 352.7 400.4 354.3 380.4C355.9 360.3 357.3 339.1 359.2 320.3C361 301.6 363.1 283 365.5 267.8C367.8 252.7 370.2 237.5 373.5 229.4C376.7 221.2 381.1 220.8 384.9 219C388.7 217.2 394.4 219.4 396.2 218.5C398 217.6 397.9 214.3 395.8 213.5C393.8 212.7 388.4 211.5 383.8 213.8C379.2 216.1 372.3 218.3 368.2 227.2C364.2 236 362 251.5 359.5 267C356.9 282.4 354.8 300.8 352.8 319.7C350.8 338.5 349.3 359.9 347.6 379.9C345.9 399.9 344.4 421.7 342.5 439.6C340.5 457.5 338.2 472.2 335.8 487.2C333.4 502.1 331.1 515 328.2 529.2C325.2 543.5 321.2 560 318.2 572.7C315.1 585.3 309.9 605 309.9 605C309.9 605 318.1 607 318.1 607Z" fill="#A5B296"/><g transform="translate(396 216) rotate(64) scale(0.9 1)"><clipPath id="alam-ac7"><path d="M0.1 11.7C0.1 11.7 6.7 16 11.1 20.3C15.5 24.6 21.9 33 26.5 37.4C31 41.9 35 46.1 38.6 46.8C42.2 47.4 45.9 45.2 48.1 41.3C50.2 37.4 50.8 29.5 51.2 23.4C51.6 17.3 51.3 11.4 50.2 4.7C49.1 -2.1 46.8 -10.7 44.8 -17.2C42.7 -23.7 39.1 -28.6 37.9 -34.3C36.6 -40 38.1 -45.9 37 -51.5C36 -57.1 32.5 -62.4 31.3 -67.9C30.1 -73.3 30.8 -78.8 29.7 -84.2C28.6 -89.7 26 -95.2 24.7 -100.6C23.5 -106.1 23.9 -109.5 22.2 -117C20.6 -124.5 16.5 -139.4 14.8 -145.9C13.2 -152.4 12.5 -156 12.5 -156C12.5 -156 10.3 -152.4 6.6 -145.9C3 -139.4 -5.7 -124.5 -9.4 -117C-13.2 -109.5 -13.5 -106.1 -16.1 -100.6C-18.6 -95.2 -22.4 -89.7 -24.6 -84.2C-26.8 -78.8 -27 -73.3 -29.2 -67.9C-31.3 -62.4 -35.5 -57.1 -37.3 -51.5C-39.1 -45.9 -38.2 -40 -40 -34.3C-41.8 -28.6 -45.8 -23.7 -48.2 -17.2C-50.6 -10.7 -53.2 -2.1 -54.3 4.7C-55.5 11.4 -55.6 17.3 -54.9 23.4C-54.2 29.5 -52.8 37.4 -50.2 41.3C-47.7 45.2 -43.6 47.4 -39.4 46.8C-35.2 46.1 -29.8 41.9 -25 37.4C-20.2 33 -14.9 24.6 -10.7 20.3C-6.5 16 0.1 11.7 0.1 11.7Z"/></clipPath><path d="M0.1 11.7C0.1 11.7 6.7 16 11.1 20.3C15.5 24.6 21.9 33 26.5 37.4C31 41.9 35 46.1 38.6 46.8C42.2 47.4 45.9 45.2 48.1 41.3C50.2 37.4 50.8 29.5 51.2 23.4C51.6 17.3 51.3 11.4 50.2 4.7C49.1 -2.1 46.8 -10.7 44.8 -17.2C42.7 -23.7 39.1 -28.6 37.9 -34.3C36.6 -40 38.1 -45.9 37 -51.5C36 -57.1 32.5 -62.4 31.3 -67.9C30.1 -73.3 30.8 -78.8 29.7 -84.2C28.6 -89.7 26 -95.2 24.7 -100.6C23.5 -106.1 23.9 -109.5 22.2 -117C20.6 -124.5 16.5 -139.4 14.8 -145.9C13.2 -152.4 12.5 -156 12.5 -156C12.5 -156 10.3 -152.4 6.6 -145.9C3 -139.4 -5.7 -124.5 -9.4 -117C-13.2 -109.5 -13.5 -106.1 -16.1 -100.6C-18.6 -95.2 -22.4 -89.7 -24.6 -84.2C-26.8 -78.8 -27 -73.3 -29.2 -67.9C-31.3 -62.4 -35.5 -57.1 -37.3 -51.5C-39.1 -45.9 -38.2 -40 -40 -34.3C-41.8 -28.6 -45.8 -23.7 -48.2 -17.2C-50.6 -10.7 -53.2 -2.1 -54.3 4.7C-55.5 11.4 -55.6 17.3 -54.9 23.4C-54.2 29.5 -52.8 37.4 -50.2 41.3C-47.7 45.2 -43.6 47.4 -39.4 46.8C-35.2 46.1 -29.8 41.9 -25 37.4C-20.2 33 -14.9 24.6 -10.7 20.3C-6.5 16 0.1 11.7 0.1 11.7Z" fill="#27392C"/><g clip-path="url(#alam-ac7)"><path d="M4.5 93.6C4.5 93.6 1.9 62.4 1.1 46.8C0.4 31.2 0.1 14.3 0 0C-0.1 -14.3 0.3 -26 0.8 -39C1.3 -52 2.1 -65 3.1 -78C4.2 -91 5.5 -104 7 -117C8.6 -130 10.1 -141.7 12.5 -156C14.8 -170.3 21.1 -202.8 21.1 -202.8C21.1 -202.8 -166.1 -202.8 -166.1 -202.8C-166.1 -202.8 -172.4 -170.3 -174.7 -156C-177.1 -141.7 -178.6 -130 -180.2 -117C-181.7 -104 -183 -91 -184.1 -78C-185.1 -65 -185.9 -52 -186.4 -39C-186.9 -26 -187.3 -14.3 -187.2 0C-187.1 14.3 -186.8 31.2 -186.1 46.8C-185.3 62.4 -182.7 93.6 -182.7 93.6C-182.7 93.6 4.5 93.6 4.5 93.6Z" fill="#1F3025"/><path d="M3.2 3.1Q1.8 -72.4 12.8 -151.2L10.7 -151.5Q-2.5 -72.7 -3.2 3.1ZM-1.4 2.2Q22.4 16.8 39.8 44.2L41.5 43.2Q25 14.4 1.4 -2.2ZM1.3 2.1Q25.4 -13.8 49.6 -16.2L49.5 -18.2Q24.2 -17.1 -1.3 -2.1ZM2.2 -26.5Q19.7 -47.7 36.8 -50.5L36.6 -52.5Q17.9 -50.6 -1.4 -29.7ZM3.7 -56.5Q17.3 -80.4 29.6 -83.3L29.2 -85.2Q15 -82.8 -0.3 -58.9ZM6 -86.6Q15.4 -113.2 22.4 -116.1L21.7 -117.9Q12.6 -114.9 1.8 -88.2ZM-1.5 -2.1Q-23.6 14.4 -42.8 43.1L-41.2 44.3Q-21 16.8 1.5 2.1ZM1.3 -2.2Q-26.2 -17.1 -53.3 -18.2L-53.5 -16.2Q-27.2 -13.8 -1.3 2.2ZM2.2 -29.7Q-17.1 -50.6 -36.8 -52.5L-37 -50.5Q-18.9 -47.7 -1.4 -26.5ZM3.8 -58.8Q-9.5 -82.8 -24.1 -85.2L-24.5 -83.3Q-11.9 -80.4 -0.4 -56.6ZM6.1 -87.8Q-0.1 -114.7 -8.9 -117.9L-9.6 -116.1Q-3.1 -113.4 1.7 -86.9Z" fill="#C9D2BC"/><path d="M0.1 11.7C0.1 11.7 6.7 16 11.1 20.3C15.5 24.6 21.9 33 26.5 37.4C31 41.9 35 46.1 38.6 46.8C42.2 47.4 45.9 45.2 48.1 41.3C50.2 37.4 50.8 29.5 51.2 23.4C51.6 17.3 51.3 11.4 50.2 4.7C49.1 -2.1 46.8 -10.7 44.8 -17.2C42.7 -23.7 39.1 -28.6 37.9 -34.3C36.6 -40 38.1 -45.9 37 -51.5C36 -57.1 32.5 -62.4 31.3 -67.9C30.1 -73.3 30.8 -78.8 29.7 -84.2C28.6 -89.7 26 -95.2 24.7 -100.6C23.5 -106.1 23.9 -109.5 22.2 -117C20.6 -124.5 16.5 -139.4 14.8 -145.9C13.2 -152.4 12.5 -156 12.5 -156C12.5 -156 10.3 -152.4 6.6 -145.9C3 -139.4 -5.7 -124.5 -9.4 -117C-13.2 -109.5 -13.5 -106.1 -16.1 -100.6C-18.6 -95.2 -22.4 -89.7 -24.6 -84.2C-26.8 -78.8 -27 -73.3 -29.2 -67.9C-31.3 -62.4 -35.5 -57.1 -37.3 -51.5C-39.1 -45.9 -38.2 -40 -40 -34.3C-41.8 -28.6 -45.8 -23.7 -48.2 -17.2C-50.6 -10.7 -53.2 -2.1 -54.3 4.7C-55.5 11.4 -55.6 17.3 -54.9 23.4C-54.2 29.5 -52.8 37.4 -50.2 41.3C-47.7 45.2 -43.6 47.4 -39.4 46.8C-35.2 46.1 -29.8 41.9 -25 37.4C-20.2 33 -14.9 24.6 -10.7 20.3C-6.5 16 0.1 11.7 0.1 11.7Z" fill="none" stroke="#C9D2BC" stroke-width="8.4" stroke-linejoin="round"/></g></g><path d="M298 605.8C298 605.8 296.4 572.6 295.7 551.6C295 530.6 293.9 503.8 293.8 480C293.7 456.2 294.5 432 295.1 408.7C295.8 385.4 296.7 361.7 297.7 340.2C298.6 318.6 299.9 296.8 300.8 279.5C301.8 262.1 304.2 243.5 303.5 236.2C302.8 228.9 298.1 228.6 296.5 235.8C294.9 242.9 294.7 261.7 293.7 279C292.6 296.4 291.3 318.3 290.3 339.8C289.3 361.4 288.3 385.1 287.6 408.5C286.9 431.9 286.1 456.1 286.2 480C286.2 503.9 287.2 530.9 287.8 551.9C288.5 572.9 290 606.2 290 606.2C290 606.2 298 605.8 298 605.8Z" fill="#A5B296"/><g transform="translate(300 242) rotate(-5)"><clipPath id="alam-rl8"><path d="M0 0C1.5 0 2.8 3.3 4.6 0C6.4 -3.3 9.3 -9.8 10.7 -19.6C12.2 -29.4 12.9 -45.7 13.2 -58.8C13.5 -71.9 12.9 -87.7 12.3 -98.3C11.8 -108.9 10.5 -116.8 9.7 -122.4C9 -128.1 7.9 -132 7.9 -132C7.9 -132 5.9 -128.5 4 -123.1C2.1 -117.7 -1.1 -110.2 -3.4 -99.7C-5.8 -89.2 -8.8 -73.3 -10 -60C-11.2 -46.7 -11.3 -30 -10.4 -20C-9.5 -10 -6.4 -3.3 -4.6 0C-2.9 3.3 -1.5 0 0 0Z"/></clipPath><path d="M0 0C1.5 0 2.8 3.3 4.6 0C6.4 -3.3 9.3 -9.8 10.7 -19.6C12.2 -29.4 12.9 -45.7 13.2 -58.8C13.5 -71.9 12.9 -87.7 12.3 -98.3C11.8 -108.9 10.5 -116.8 9.7 -122.4C9 -128.1 7.9 -132 7.9 -132C7.9 -132 5.9 -128.5 4 -123.1C2.1 -117.7 -1.1 -110.2 -3.4 -99.7C-5.8 -89.2 -8.8 -73.3 -10 -60C-11.2 -46.7 -11.3 -30 -10.4 -20C-9.5 -10 -6.4 -3.3 -4.6 0C-2.9 3.3 -1.5 0 0 0Z" fill="#5B7458"/><g clip-path="url(#alam-rl8)"><path d="M0.7 39.6C0.7 39.6 0.4 30.8 0.3 26.4C0.2 22 0.1 17.6 0.1 13.2C0 8.8 0 4.4 0 0C0 -4.4 0 -8.8 0.1 -13.2C0.1 -17.6 0.2 -22 0.3 -26.4C0.4 -30.8 0.6 -35.2 0.7 -39.6C0.9 -44 1.1 -48.4 1.3 -52.8C1.5 -57.2 1.7 -61.6 2 -66C2.2 -70.4 2.5 -74.8 2.9 -79.2C3.2 -83.6 3.5 -88 3.9 -92.4C4.3 -96.8 4.6 -101.2 5.1 -105.6C5.5 -110 5.9 -114.4 6.4 -118.8C6.9 -123.2 7.4 -127.6 7.9 -132C8.4 -136.4 9 -140.8 9.6 -145.2C10.2 -149.6 11.4 -158.4 11.4 -158.4C11.4 -158.4 403.4 -102 403.4 -102C403.4 -102 402.6 -96.2 402.2 -93.4C401.8 -90.5 401.4 -87.7 401.1 -84.8C400.8 -82 400.4 -79.1 400.1 -76.3C399.8 -73.4 399.5 -70.6 399.3 -67.8C399 -64.9 398.7 -62.1 398.5 -59.3C398.3 -56.4 398 -53.6 397.8 -50.8C397.6 -47.9 397.4 -45.1 397.3 -42.3C397.1 -39.5 396.9 -36.6 396.8 -33.8C396.7 -31 396.6 -28.2 396.5 -25.4C396.4 -22.5 396.3 -19.7 396.2 -16.9C396.1 -14.1 396.1 -11.3 396.1 -8.4C396 -5.6 396 -2.8 396 0C396 2.8 396 5.6 396.1 8.4C396.1 11.3 396.1 14.1 396.2 16.9C396.3 19.7 396.5 25.4 396.5 25.4C396.5 25.4 0.7 39.6 0.7 39.6Z" fill="#4B6349"/><path d="M-10.5 -6.7C-8.6 -13.3 -2.7 -33.1 1 -46.2C4.6 -59.3 9.8 -72.7 11.2 -85.2C12.6 -97.7 9.6 -115.2 9.3 -121.2" fill="none" stroke="#A5B296" stroke-width="4.5" stroke-linecap="round"/><path d="M0 0C1.5 0 2.8 3.3 4.6 0C6.4 -3.3 9.3 -9.8 10.7 -19.6C12.2 -29.4 12.9 -45.7 13.2 -58.8C13.5 -71.9 12.9 -87.7 12.3 -98.3C11.8 -108.9 10.5 -116.8 9.7 -122.4C9 -128.1 7.9 -132 7.9 -132C7.9 -132 5.9 -128.5 4 -123.1C2.1 -117.7 -1.1 -110.2 -3.4 -99.7C-5.8 -89.2 -8.8 -73.3 -10 -60C-11.2 -46.7 -11.3 -30 -10.4 -20C-9.5 -10 -6.4 -3.3 -4.6 0C-2.9 3.3 -1.5 0 0 0Z" fill="none" stroke="#A5B296" stroke-width="8"/></g></g><path d="M285.8 604.8C285.8 604.8 280.3 587.2 277 576.2C273.6 565.3 269.3 551 265.6 538.9C261.9 526.8 258.4 515.2 255 503.6C251.6 492 248.2 480.2 245.4 469.2C242.7 458.1 240.5 447.2 238.5 437.2C236.4 427.3 234.6 417.4 233.2 409.4C231.8 401.4 231.1 395.3 230.1 389.3C229 383.3 228.3 378.2 226.9 373.2C225.5 368.2 223.5 363.4 221.6 359.3C219.7 355.2 217.5 351.7 215.3 348.5C213.2 345.2 211.4 342.2 208.8 339.9C206.2 337.5 203.5 335.1 199.9 334.5C196.3 334 191 335.5 187.2 336.4C183.4 337.3 178.7 338.5 177.3 339.8C175.9 341.1 176.8 344 178.7 344.2C180.6 344.4 185.2 341.8 188.6 341C191.9 340.3 196.3 339.1 199 339.6C201.7 340 203 341.6 204.9 343.6C206.9 345.6 208.8 348.5 210.7 351.5C212.6 354.6 214.6 357.9 216.3 361.8C218.1 365.7 219.8 370.1 221.1 374.8C222.3 379.5 222.9 384.2 223.8 390.2C224.8 396.2 225.4 402.5 226.8 410.6C228.1 418.6 229.8 428.5 231.8 438.5C233.8 448.6 235.9 459.7 238.6 470.8C241.3 482 244.7 493.9 248 505.6C251.3 517.3 254.8 528.9 258.4 541.1C262 553.2 266.2 567.5 269.5 578.5C272.8 589.5 278.2 607.2 278.2 607.2C278.2 607.2 285.8 604.8 285.8 604.8Z" fill="#7F9273"/><g transform="translate(178 342) rotate(-103)"><clipPath id="alam-ac9"><path d="M-0.1 9.4C-0.1 9.4 5.2 12.3 8.6 15.6C11.9 18.8 16.4 25.3 20 28.7C23.6 32.1 27.2 35.4 30.3 35.9C33.4 36.4 36.7 34.7 38.7 31.7C40.8 28.7 42 22.6 42.5 18C43.1 13.3 43.1 9.1 42.2 3.8C41.3 -1.5 39.3 -8.6 37.4 -13.9C35.4 -19.1 32.2 -23.1 30.7 -27.7C29.2 -32.3 29.9 -37.1 28.4 -41.6C26.9 -46.1 23.4 -50.4 21.6 -54.8C19.7 -59.2 19.4 -63.6 17.5 -68C15.6 -72.5 12.4 -76.9 10.2 -81.3C8 -85.7 7.6 -88.4 4.3 -94.5C0.9 -100.6 -6.7 -112.6 -9.9 -117.8C-13.1 -123.1 -15.1 -126 -15.1 -126C-15.1 -126 -15.5 -123.1 -16.5 -117.8C-17.6 -112.6 -20.3 -100.6 -21.3 -94.5C-22.3 -88.4 -21.9 -85.7 -22.8 -81.3C-23.6 -76.9 -25.6 -72.5 -26.3 -68C-27.1 -63.6 -26.4 -59.2 -27.3 -54.8C-28.2 -50.4 -30.9 -46.1 -31.7 -41.6C-32.5 -37.1 -31.2 -32.3 -32.2 -27.7C-33.2 -23.1 -36.1 -19.1 -37.7 -13.9C-39.4 -8.6 -41.3 -1.5 -42.2 3.8C-43.1 9.1 -43.4 13.3 -43.1 18C-42.9 22.6 -42.4 28.7 -40.6 31.7C-38.9 34.7 -35.9 36.4 -32.7 35.9C-29.5 35.4 -25.5 32.1 -21.6 28.7C-17.6 25.3 -12.6 18.8 -9.1 15.6C-5.5 12.3 -0.1 9.4 -0.1 9.4Z"/></clipPath><path d="M-0.1 9.4C-0.1 9.4 5.2 12.3 8.6 15.6C11.9 18.8 16.4 25.3 20 28.7C23.6 32.1 27.2 35.4 30.3 35.9C33.4 36.4 36.7 34.7 38.7 31.7C40.8 28.7 42 22.6 42.5 18C43.1 13.3 43.1 9.1 42.2 3.8C41.3 -1.5 39.3 -8.6 37.4 -13.9C35.4 -19.1 32.2 -23.1 30.7 -27.7C29.2 -32.3 29.9 -37.1 28.4 -41.6C26.9 -46.1 23.4 -50.4 21.6 -54.8C19.7 -59.2 19.4 -63.6 17.5 -68C15.6 -72.5 12.4 -76.9 10.2 -81.3C8 -85.7 7.6 -88.4 4.3 -94.5C0.9 -100.6 -6.7 -112.6 -9.9 -117.8C-13.1 -123.1 -15.1 -126 -15.1 -126C-15.1 -126 -15.5 -123.1 -16.5 -117.8C-17.6 -112.6 -20.3 -100.6 -21.3 -94.5C-22.3 -88.4 -21.9 -85.7 -22.8 -81.3C-23.6 -76.9 -25.6 -72.5 -26.3 -68C-27.1 -63.6 -26.4 -59.2 -27.3 -54.8C-28.2 -50.4 -30.9 -46.1 -31.7 -41.6C-32.5 -37.1 -31.2 -32.3 -32.2 -27.7C-33.2 -23.1 -36.1 -19.1 -37.7 -13.9C-39.4 -8.6 -41.3 -1.5 -42.2 3.8C-43.1 9.1 -43.4 13.3 -43.1 18C-42.9 22.6 -42.4 28.7 -40.6 31.7C-38.9 34.7 -35.9 36.4 -32.7 35.9C-29.5 35.4 -25.5 32.1 -21.6 28.7C-17.6 25.3 -12.6 18.8 -9.1 15.6C-5.5 12.3 -0.1 9.4 -0.1 9.4Z" fill="#314B37"/><g clip-path="url(#alam-ac9)"><path d="M-5.4 75.6C-5.4 75.6 -2.3 50.4 -1.4 37.8C-0.5 25.2 -0.1 11.5 0 0C0.1 -11.5 -0.3 -21 -0.9 -31.5C-1.6 -42 -2.5 -52.5 -3.8 -63C-5 -73.5 -6.6 -84 -8.5 -94.5C-10.4 -105 -12.3 -114.5 -15.1 -126C-18 -137.6 -25.6 -163.8 -25.6 -163.8C-25.6 -163.8 -176.8 -163.8 -176.8 -163.8C-176.8 -163.8 -169.2 -137.6 -166.3 -126C-163.5 -114.5 -161.6 -105 -159.7 -94.5C-157.8 -84 -156.2 -73.5 -155 -63C-153.7 -52.5 -152.8 -42 -152.1 -31.5C-151.5 -21 -151.1 -11.5 -151.2 0C-151.3 11.5 -151.7 25.2 -152.6 37.8C-153.5 50.4 -156.6 75.6 -156.6 75.6C-156.6 75.6 -5.4 75.6 -5.4 75.6Z" fill="#27392C"/><path d="M3.2 2.5Q2.6 -58.8 -13.2 -122.5L-15.3 -122Q-1.7 -58.3 -3.2 2.5ZM-1.4 2.2Q17.4 13.2 31.5 34L33.2 33Q20 10.7 1.4 -2.2ZM1.3 2.1Q21.3 -10.8 41.5 -12.9L41.3 -14.9Q20.1 -14.1 -1.3 -2.1ZM1.4 -21.1Q14.4 -38.3 28.2 -40.6L27.9 -42.6Q12.5 -41.1 -2.4 -24.2ZM0.1 -45.6Q8.1 -64.8 17.5 -67.1L17.1 -69Q5.6 -67 -4.2 -47.6ZM-2.5 -70.2Q0 -91.5 4.5 -93.6L3.8 -95.4Q-3.1 -92.7 -7 -70.9ZM-1.4 -2.2Q-19.7 10.7 -35.3 32.9L-33.7 34.1Q-17.2 13.3 1.4 2.2ZM1.3 -2.1Q-20.3 -14.1 -41.7 -14.9L-41.8 -12.9Q-21.4 -10.8 -1.3 2.1ZM1.3 -24.3Q-15.4 -41.2 -31.2 -42.6L-31.5 -40.6Q-17.1 -38.2 -2.3 -21ZM-0.1 -47.9Q-13.7 -67.1 -25.9 -69L-26.3 -67.1Q-16 -64.6 -4 -45.3ZM-2.7 -71.5Q-12.9 -93 -20.8 -95.4L-21.5 -93.6Q-15.6 -91.2 -6.8 -69.6Z" fill="#C9D2BC"/><path d="M-0.1 9.4C-0.1 9.4 5.2 12.3 8.6 15.6C11.9 18.8 16.4 25.3 20 28.7C23.6 32.1 27.2 35.4 30.3 35.9C33.4 36.4 36.7 34.7 38.7 31.7C40.8 28.7 42 22.6 42.5 18C43.1 13.3 43.1 9.1 42.2 3.8C41.3 -1.5 39.3 -8.6 37.4 -13.9C35.4 -19.1 32.2 -23.1 30.7 -27.7C29.2 -32.3 29.9 -37.1 28.4 -41.6C26.9 -46.1 23.4 -50.4 21.6 -54.8C19.7 -59.2 19.4 -63.6 17.5 -68C15.6 -72.5 12.4 -76.9 10.2 -81.3C8 -85.7 7.6 -88.4 4.3 -94.5C0.9 -100.6 -6.7 -112.6 -9.9 -117.8C-13.1 -123.1 -15.1 -126 -15.1 -126C-15.1 -126 -15.5 -123.1 -16.5 -117.8C-17.6 -112.6 -20.3 -100.6 -21.3 -94.5C-22.3 -88.4 -21.9 -85.7 -22.8 -81.3C-23.6 -76.9 -25.6 -72.5 -26.3 -68C-27.1 -63.6 -26.4 -59.2 -27.3 -54.8C-28.2 -50.4 -30.9 -46.1 -31.7 -41.6C-32.5 -37.1 -31.2 -32.3 -32.2 -27.7C-33.2 -23.1 -36.1 -19.1 -37.7 -13.9C-39.4 -8.6 -41.3 -1.5 -42.2 3.8C-43.1 9.1 -43.4 13.3 -43.1 18C-42.9 22.6 -42.4 28.7 -40.6 31.7C-38.9 34.7 -35.9 36.4 -32.7 35.9C-29.5 35.4 -25.5 32.1 -21.6 28.7C-17.6 25.3 -12.6 18.8 -9.1 15.6C-5.5 12.3 -0.1 9.4 -0.1 9.4Z" fill="none" stroke="#C9D2BC" stroke-width="7.6" stroke-linejoin="round"/></g></g><path d="M323.8 607.2C323.8 607.2 329.2 589 332.5 578C335.8 567 340 552.6 343.6 541.1C347.2 529.7 350.6 519.6 353.9 509.3C357.2 498.9 360.6 488.7 363.4 479C366.2 469.2 368.5 459.4 370.6 450.7C372.7 442 374.7 433.4 376.2 426.8C377.7 420.1 378.5 415.3 379.6 410.7C380.7 406.1 381.5 402.9 382.8 399.1C384.2 395.2 385.9 390.9 387.7 387.7C389.5 384.6 391.2 381.9 393.5 380.3C395.8 378.8 398.6 378.6 401.8 378.4C404.9 378.2 408.6 378.7 412.3 379.2C416 379.7 420.5 380.8 424 381.6C427.5 382.4 431.6 384.5 433.4 384.2C435.1 383.9 436 381 434.6 379.8C433.3 378.6 428.9 377.9 425.3 376.9C421.7 376 416.9 374.8 413 374.2C409.1 373.5 405.5 372.8 401.7 373.1C398 373.3 393.7 373.7 390.5 375.7C387.3 377.6 384.8 381.4 382.6 384.9C380.4 388.5 378.7 392.9 377.2 396.9C375.6 401 374.7 404.6 373.5 409.3C372.3 414 371.4 418.6 369.8 425.2C368.2 431.9 366.2 440.4 364 449.1C361.8 457.7 359.5 467.4 356.6 477C353.8 486.7 350.4 496.7 347 507C343.6 517.3 340.1 527.4 336.4 538.9C332.8 550.3 328.4 564.8 325 575.8C321.7 586.8 316.2 604.8 316.2 604.8C316.2 604.8 323.8 607.2 323.8 607.2Z" fill="#7F9273"/><g transform="translate(434 382) rotate(104) scale(0.9 1)"><clipPath id="alam-ac10"><path d="M0.1 8.7C0.1 8.7 5 11.4 8.3 14.3C11.6 17.3 16.2 23.3 19.9 26.4C23.5 29.6 27.2 32.6 30.1 33.1C33.1 33.5 35.8 32 37.4 29.2C39 26.4 39.5 20.8 39.7 16.5C40 12.2 39.7 8.4 38.9 3.5C38 -1.4 36.3 -7.9 34.7 -12.8C33.2 -17.6 30.6 -21.3 29.6 -25.5C28.7 -29.8 29.9 -34.1 29.2 -38.3C28.4 -42.4 25.9 -46.4 25.1 -50.5C24.3 -54.5 24.9 -58.6 24.2 -62.6C23.5 -66.7 21.7 -70.8 20.9 -74.8C20.2 -78.9 20.6 -81.4 19.6 -87C18.6 -92.6 16.2 -103.6 15.2 -108.5C14.3 -113.3 13.9 -116 13.9 -116C13.9 -116 12.1 -113.3 9.1 -108.5C6.1 -103.6 -0.9 -92.6 -3.9 -87C-7 -81.4 -7.3 -78.9 -9.4 -74.8C-11.4 -70.8 -14.4 -66.7 -16.1 -62.6C-17.9 -58.6 -18.2 -54.5 -19.9 -50.5C-21.5 -46.4 -24.7 -42.4 -26.1 -38.3C-27.5 -34.1 -26.9 -29.8 -28.3 -25.5C-29.7 -21.3 -32.6 -17.6 -34.4 -12.8C-36.2 -7.9 -38.1 -1.4 -38.8 3.5C-39.6 8.4 -39.7 12.2 -39.2 16.5C-38.6 20.8 -37.5 26.4 -35.7 29.2C-33.8 32 -30.7 33.5 -27.9 33.1C-25 32.6 -21.7 29.6 -18.4 26.4C-15.1 23.3 -11 17.3 -7.9 14.3C-4.8 11.4 0.1 8.7 0.1 8.7Z"/></clipPath><path d="M0.1 8.7C0.1 8.7 5 11.4 8.3 14.3C11.6 17.3 16.2 23.3 19.9 26.4C23.5 29.6 27.2 32.6 30.1 33.1C33.1 33.5 35.8 32 37.4 29.2C39 26.4 39.5 20.8 39.7 16.5C40 12.2 39.7 8.4 38.9 3.5C38 -1.4 36.3 -7.9 34.7 -12.8C33.2 -17.6 30.6 -21.3 29.6 -25.5C28.7 -29.8 29.9 -34.1 29.2 -38.3C28.4 -42.4 25.9 -46.4 25.1 -50.5C24.3 -54.5 24.9 -58.6 24.2 -62.6C23.5 -66.7 21.7 -70.8 20.9 -74.8C20.2 -78.9 20.6 -81.4 19.6 -87C18.6 -92.6 16.2 -103.6 15.2 -108.5C14.3 -113.3 13.9 -116 13.9 -116C13.9 -116 12.1 -113.3 9.1 -108.5C6.1 -103.6 -0.9 -92.6 -3.9 -87C-7 -81.4 -7.3 -78.9 -9.4 -74.8C-11.4 -70.8 -14.4 -66.7 -16.1 -62.6C-17.9 -58.6 -18.2 -54.5 -19.9 -50.5C-21.5 -46.4 -24.7 -42.4 -26.1 -38.3C-27.5 -34.1 -26.9 -29.8 -28.3 -25.5C-29.7 -21.3 -32.6 -17.6 -34.4 -12.8C-36.2 -7.9 -38.1 -1.4 -38.8 3.5C-39.6 8.4 -39.7 12.2 -39.2 16.5C-38.6 20.8 -37.5 26.4 -35.7 29.2C-33.8 32 -30.7 33.5 -27.9 33.1C-25 32.6 -21.7 29.6 -18.4 26.4C-15.1 23.3 -11 17.3 -7.9 14.3C-4.8 11.4 0.1 8.7 0.1 8.7Z" fill="#314B37"/><g clip-path="url(#alam-ac10)"><path d="M5 69.6C5 69.6 2.1 46.4 1.3 34.8C0.4 23.2 0.1 10.6 0 0C-0.1 -10.6 0.3 -19.3 0.9 -29C1.4 -38.7 2.3 -48.3 3.5 -58C4.6 -67.7 6.1 -77.3 7.8 -87C9.6 -96.7 11.3 -105.4 13.9 -116C16.5 -126.6 23.5 -150.8 23.5 -150.8C23.5 -150.8 162.7 -150.8 162.7 -150.8C162.7 -150.8 155.7 -126.6 153.1 -116C150.5 -105.4 148.8 -96.7 147 -87C145.3 -77.3 143.8 -67.7 142.7 -58C141.5 -48.3 140.7 -38.7 140.1 -29C139.5 -19.3 139.1 -10.6 139.2 0C139.3 10.6 139.6 23.2 140.5 34.8C141.3 46.4 144.2 69.6 144.2 69.6C144.2 69.6 5 69.6 5 69.6Z" fill="#27392C"/><path d="M3.2 2.3Q1.7 -53.7 14.2 -112.3L12 -112.8Q-2.5 -54.2 -3.2 2.3ZM-1.4 2.2Q15.7 12.3 30.9 31.5L32.5 30.3Q18.2 9.7 1.4 -2.2ZM1.3 2.1Q19.8 -9.8 38.5 -11.8L38.4 -13.8Q18.7 -13.1 -1.3 -2.1ZM2.2 -19.2Q15.9 -35.1 29 -37.3L28.8 -39.3Q14.1 -38 -1.3 -22.5ZM3.9 -41.6Q14.8 -59.4 24.2 -61.7L23.8 -63.6Q12.5 -61.9 -0.1 -44.2ZM6.4 -64Q14.4 -83.9 19.8 -86.1L19.2 -87.9Q11.7 -85.7 2.3 -65.9ZM-1.4 -2.2Q-18.5 9.8 -30.6 30.3L-28.9 31.4Q-15.9 12.3 1.4 2.2ZM1.3 -2.1Q-18.5 -13.1 -38 -13.8L-38.2 -11.8Q-19.6 -9.8 -1.3 2.1ZM2.3 -22.4Q-11.5 -38 -25.7 -39.3L-26 -37.3Q-13.3 -35.1 -1.4 -19.3ZM4 -43.9Q-5.1 -61.8 -15.7 -63.6L-16.1 -61.7Q-7.6 -59.5 -0.2 -41.9ZM6.6 -65.3Q3 -85.4 -3.4 -87.9L-4.2 -86.1Q-0.1 -84.2 2.1 -64.6Z" fill="#C9D2BC"/><path d="M0.1 8.7C0.1 8.7 5 11.4 8.3 14.3C11.6 17.3 16.2 23.3 19.9 26.4C23.5 29.6 27.2 32.6 30.1 33.1C33.1 33.5 35.8 32 37.4 29.2C39 26.4 39.5 20.8 39.7 16.5C40 12.2 39.7 8.4 38.9 3.5C38 -1.4 36.3 -7.9 34.7 -12.8C33.2 -17.6 30.6 -21.3 29.6 -25.5C28.7 -29.8 29.9 -34.1 29.2 -38.3C28.4 -42.4 25.9 -46.4 25.1 -50.5C24.3 -54.5 24.9 -58.6 24.2 -62.6C23.5 -66.7 21.7 -70.8 20.9 -74.8C20.2 -78.9 20.6 -81.4 19.6 -87C18.6 -92.6 16.2 -103.6 15.2 -108.5C14.3 -113.3 13.9 -116 13.9 -116C13.9 -116 12.1 -113.3 9.1 -108.5C6.1 -103.6 -0.9 -92.6 -3.9 -87C-7 -81.4 -7.3 -78.9 -9.4 -74.8C-11.4 -70.8 -14.4 -66.7 -16.1 -62.6C-17.9 -58.6 -18.2 -54.5 -19.9 -50.5C-21.5 -46.4 -24.7 -42.4 -26.1 -38.3C-27.5 -34.1 -26.9 -29.8 -28.3 -25.5C-29.7 -21.3 -32.6 -17.6 -34.4 -12.8C-36.2 -7.9 -38.1 -1.4 -38.8 3.5C-39.6 8.4 -39.7 12.2 -39.2 16.5C-38.6 20.8 -37.5 26.4 -35.7 29.2C-33.8 32 -30.7 33.5 -27.9 33.1C-25 32.6 -21.7 29.6 -18.4 26.4C-15.1 23.3 -11 17.3 -7.9 14.3C-4.8 11.4 0.1 8.7 0.1 8.7Z" fill="none" stroke="#C9D2BC" stroke-width="8.8" stroke-linejoin="round"/></g></g><path d="M287.2 604.6C287.2 604.6 280.9 590.3 277.2 582C273.5 573.7 268.7 562.6 265 554.6C261.3 546.7 258.1 540.4 255.1 534.1C252.1 527.8 249.1 522 246.8 516.8C244.4 511.5 242.7 507 241 502.7C239.4 498.4 238 494.6 236.6 491C235.3 487.4 234.3 484.2 233.1 481.2C231.8 478.1 230.7 475.5 229.3 472.8C227.8 470.1 226.5 467.2 224.4 465.1C222.3 463 219.9 460.5 216.7 460.2C213.6 459.9 209 462.2 205.7 463.5C202.4 464.9 198.2 466.7 197 468.1C195.9 469.5 197.2 472 199 471.9C200.7 471.8 204.7 468.7 207.6 467.5C210.5 466.4 214.2 464.7 216.3 464.8C218.5 464.9 219.2 466.5 220.6 468.2C222 469.9 223.5 472.7 224.7 475.2C226 477.7 226.9 480 228 483C229.1 486 230.1 489.3 231.4 493C232.6 496.6 233.9 500.4 235.6 504.8C237.2 509.1 238.9 513.9 241.2 519.2C243.5 524.6 246.4 530.5 249.4 536.9C252.4 543.2 255.4 549.4 259 557.4C262.6 565.3 267.4 576.4 271 584.7C274.7 593.1 280.8 607.4 280.8 607.4C280.8 607.4 287.2 604.6 287.2 604.6Z" fill="#7F9273"/><g transform="translate(198 470) rotate(-112) scale(-0.9 1)"><clipPath id="alam-ac11"><path d="M0 7.6C0 7.6 4.4 10.5 7.3 13.3C10.2 16.1 14.1 21.6 17.3 24.5C20.5 27.4 23.7 30.2 26.2 30.6C28.8 31 31.3 29.6 32.7 27C34.1 24.5 34.6 19.3 34.9 15.3C35.1 11.3 34.9 7.5 34.2 3.1C33.4 -1.4 31.9 -7 30.5 -11.2C29.1 -15.5 26.7 -18.7 25.8 -22.4C25 -26.2 25.9 -30 25.2 -33.7C24.4 -37.3 22.2 -40.8 21.3 -44.4C20.5 -47.9 20.9 -51.5 20.1 -55.1C19.4 -58.7 17.6 -62.2 16.7 -65.8C15.9 -69.4 16.1 -71.6 14.9 -76.5C13.8 -81.4 10.9 -91.1 9.8 -95.4C8.7 -99.6 8.2 -102 8.2 -102C8.2 -102 6.8 -99.6 4.5 -95.4C2.1 -91.1 -3.4 -81.4 -5.8 -76.5C-8.2 -71.6 -8.3 -69.4 -9.9 -65.8C-11.5 -62.2 -14 -58.7 -15.4 -55.1C-16.7 -51.5 -16.9 -47.9 -18.2 -44.4C-19.6 -40.8 -22.3 -37.3 -23.4 -33.7C-24.6 -30 -23.9 -26.2 -25.1 -22.4C-26.2 -18.7 -28.8 -15.5 -30.3 -11.2C-31.8 -7 -33.5 -1.4 -34.2 3.1C-34.9 7.5 -34.9 11.3 -34.5 15.3C-34.1 19.3 -33.2 24.5 -31.6 27C-29.9 29.6 -27.3 31 -24.8 30.6C-22.2 30.2 -19.3 27.4 -16.4 24.5C-13.4 21.6 -9.7 16.1 -7 13.3C-4.3 10.5 0 7.6 0 7.6Z"/></clipPath><path d="M0 7.6C0 7.6 4.4 10.5 7.3 13.3C10.2 16.1 14.1 21.6 17.3 24.5C20.5 27.4 23.7 30.2 26.2 30.6C28.8 31 31.3 29.6 32.7 27C34.1 24.5 34.6 19.3 34.9 15.3C35.1 11.3 34.9 7.5 34.2 3.1C33.4 -1.4 31.9 -7 30.5 -11.2C29.1 -15.5 26.7 -18.7 25.8 -22.4C25 -26.2 25.9 -30 25.2 -33.7C24.4 -37.3 22.2 -40.8 21.3 -44.4C20.5 -47.9 20.9 -51.5 20.1 -55.1C19.4 -58.7 17.6 -62.2 16.7 -65.8C15.9 -69.4 16.1 -71.6 14.9 -76.5C13.8 -81.4 10.9 -91.1 9.8 -95.4C8.7 -99.6 8.2 -102 8.2 -102C8.2 -102 6.8 -99.6 4.5 -95.4C2.1 -91.1 -3.4 -81.4 -5.8 -76.5C-8.2 -71.6 -8.3 -69.4 -9.9 -65.8C-11.5 -62.2 -14 -58.7 -15.4 -55.1C-16.7 -51.5 -16.9 -47.9 -18.2 -44.4C-19.6 -40.8 -22.3 -37.3 -23.4 -33.7C-24.6 -30 -23.9 -26.2 -25.1 -22.4C-26.2 -18.7 -28.8 -15.5 -30.3 -11.2C-31.8 -7 -33.5 -1.4 -34.2 3.1C-34.9 7.5 -34.9 11.3 -34.5 15.3C-34.1 19.3 -33.2 24.5 -31.6 27C-29.9 29.6 -27.3 31 -24.8 30.6C-22.2 30.2 -19.3 27.4 -16.4 24.5C-13.4 21.6 -9.7 16.1 -7 13.3C-4.3 10.5 0 7.6 0 7.6Z" fill="#74464D"/><g clip-path="url(#alam-ac11)"><path d="M2.9 61.2C2.9 61.2 1.2 40.8 0.7 30.6C0.2 20.4 0 9.3 0 0C0 -9.3 0.2 -17 0.5 -25.5C0.9 -34 1.4 -42.5 2 -51C2.7 -59.5 3.6 -68 4.6 -76.5C5.6 -85 6.6 -92.7 8.2 -102C9.7 -111.3 13.8 -132.6 13.8 -132.6C13.8 -132.6 136.2 -132.6 136.2 -132.6C136.2 -132.6 132.1 -111.3 130.6 -102C129 -92.7 128 -85 127 -76.5C126 -68 125.1 -59.5 124.4 -51C123.8 -42.5 123.2 -34 122.9 -25.5C122.6 -17 122.4 -9.3 122.4 0C122.4 9.3 122.6 20.4 123.1 30.6C123.6 40.8 125.3 61.2 125.3 61.2C125.3 61.2 2.9 61.2 2.9 61.2Z" fill="#5E3A40"/><path d="M3.2 2Q1.9 -47.3 8.8 -98.8L6.6 -99.1Q-2.4 -47.6 -3.2 2.1ZM-1.5 2.1Q13.7 11.5 26.8 29.1L28.5 28Q16.3 8.9 1.5 -2.1ZM1.3 2.1Q17.4 -8.4 33.8 -10.2L33.7 -12.2Q16.3 -11.8 -1.3 -2.1ZM2.1 -16.7Q13.7 -30.7 25.1 -32.7L24.8 -34.7Q11.9 -33.6 -1.5 -20ZM3.1 -36.5Q12.1 -52.1 20.1 -54.1L19.7 -56.1Q9.8 -54.6 -0.9 -39ZM4.7 -56.3Q10.8 -73.7 15.2 -75.6L14.5 -77.4Q8 -75.4 0.4 -57.9ZM-1.5 -2.2Q-16.5 9 -27.2 28L-25.5 29.1Q-13.8 11.4 1.5 2.2ZM1.3 -2.1Q-16.2 -11.8 -33.5 -12.2L-33.6 -10.2Q-17.3 -8.4 -1.3 2.1ZM2.1 -19.9Q-10.3 -33.6 -23 -34.7L-23.3 -32.7Q-12.2 -30.7 -1.6 -16.8ZM3.2 -38.8Q-5.4 -54.5 -15 -56.1L-15.4 -54.1Q-7.8 -52.2 -1 -36.7ZM4.8 -57.6Q0.6 -75.2 -5.3 -77.4L-6 -75.6Q-2.4 -73.9 0.3 -56.7Z" fill="#B97479"/><path d="M0 7.6C0 7.6 4.4 10.5 7.3 13.3C10.2 16.1 14.1 21.6 17.3 24.5C20.5 27.4 23.7 30.2 26.2 30.6C28.8 31 31.3 29.6 32.7 27C34.1 24.5 34.6 19.3 34.9 15.3C35.1 11.3 34.9 7.5 34.2 3.1C33.4 -1.4 31.9 -7 30.5 -11.2C29.1 -15.5 26.7 -18.7 25.8 -22.4C25 -26.2 25.9 -30 25.2 -33.7C24.4 -37.3 22.2 -40.8 21.3 -44.4C20.5 -47.9 20.9 -51.5 20.1 -55.1C19.4 -58.7 17.6 -62.2 16.7 -65.8C15.9 -69.4 16.1 -71.6 14.9 -76.5C13.8 -81.4 10.9 -91.1 9.8 -95.4C8.7 -99.6 8.2 -102 8.2 -102C8.2 -102 6.8 -99.6 4.5 -95.4C2.1 -91.1 -3.4 -81.4 -5.8 -76.5C-8.2 -71.6 -8.3 -69.4 -9.9 -65.8C-11.5 -62.2 -14 -58.7 -15.4 -55.1C-16.7 -51.5 -16.9 -47.9 -18.2 -44.4C-19.6 -40.8 -22.3 -37.3 -23.4 -33.7C-24.6 -30 -23.9 -26.2 -25.1 -22.4C-26.2 -18.7 -28.8 -15.5 -30.3 -11.2C-31.8 -7 -33.5 -1.4 -34.2 3.1C-34.9 7.5 -34.9 11.3 -34.5 15.3C-34.1 19.3 -33.2 24.5 -31.6 27C-29.9 29.6 -27.3 31 -24.8 30.6C-22.2 30.2 -19.3 27.4 -16.4 24.5C-13.4 21.6 -9.7 16.1 -7 13.3C-4.3 10.5 0 7.6 0 7.6Z" fill="none" stroke="#B97479" stroke-width="8.3" stroke-linejoin="round"/></g></g><path d="M304.5 606.3C304.5 606.3 306 583.3 306.9 568.9C307.8 554.6 309 536.1 310.1 520.3C311.1 504.4 312.3 488.9 313.2 473.9C314.1 458.9 315.2 443.4 315.6 430.1C316 416.8 315.7 404.7 315.7 394.1C315.6 383.4 315.2 373.6 315.2 366C315.3 358.3 315.7 352.8 316 348.2C316.2 343.6 317.5 340 316.7 338.3C316 336.5 312.4 336.2 311.3 337.7C310.2 339.3 310.5 343 310.1 347.7C309.7 352.4 309.1 358.1 308.9 365.9C308.7 373.6 309 383.5 308.9 394.1C308.8 404.8 308.9 416.7 308.4 429.9C307.8 443.1 306.6 458.4 305.5 473.4C304.5 488.3 303.1 503.9 301.9 519.7C300.8 535.5 299.4 554 298.4 568.3C297.3 582.7 295.5 605.7 295.5 605.7C295.5 605.7 304.5 606.3 304.5 606.3Z" fill="#7F9273"/><g transform="translate(314 338) rotate(4) scale(0.9 1)"><clipPath id="alam-ac12"><path d="M0 10.8C0 10.8 6.2 14.8 10.2 18.7C14.2 22.7 19.6 30.5 24 34.6C28.4 38.6 32.8 42.6 36.4 43.2C40 43.8 43.6 41.8 45.7 38.2C47.8 34.6 48.6 27.2 49.1 21.6C49.5 16 49.3 10.6 48.2 4.3C47.2 -1.9 45 -9.8 43 -15.8C40.9 -21.8 37.5 -26.4 36.1 -31.7C34.8 -37 36 -42.4 34.8 -47.5C33.5 -52.7 30.1 -57.6 28.7 -62.6C27.3 -67.7 27.7 -72.7 26.3 -77.8C24.9 -82.8 22.2 -87.8 20.6 -92.9C19.1 -97.9 19.2 -101 17 -108C14.9 -115 9.7 -128.6 7.6 -134.6C5.4 -140.6 4.3 -144 4.3 -144C4.3 -144 2.7 -140.6 0 -134.6C-2.8 -128.6 -9.3 -115 -12.2 -108C-15 -101 -15.1 -97.9 -17 -92.9C-19 -87.8 -22.1 -82.8 -23.8 -77.8C-25.5 -72.7 -25.4 -67.7 -27.1 -62.6C-28.8 -57.6 -32.4 -52.7 -33.8 -47.5C-35.3 -42.4 -34.2 -37 -35.7 -31.7C-37.2 -26.4 -40.8 -21.8 -42.9 -15.8C-44.9 -9.8 -47.2 -1.9 -48.2 4.3C-49.2 10.6 -49.4 16 -48.9 21.6C-48.3 27.2 -47.3 34.6 -45.1 38.2C-42.8 41.8 -39.2 43.8 -35.6 43.2C-32 42.6 -27.8 38.6 -23.5 34.6C-19.2 30.5 -13.9 22.7 -10 18.7C-6.1 14.8 0 10.8 0 10.8Z"/></clipPath><path d="M0 10.8C0 10.8 6.2 14.8 10.2 18.7C14.2 22.7 19.6 30.5 24 34.6C28.4 38.6 32.8 42.6 36.4 43.2C40 43.8 43.6 41.8 45.7 38.2C47.8 34.6 48.6 27.2 49.1 21.6C49.5 16 49.3 10.6 48.2 4.3C47.2 -1.9 45 -9.8 43 -15.8C40.9 -21.8 37.5 -26.4 36.1 -31.7C34.8 -37 36 -42.4 34.8 -47.5C33.5 -52.7 30.1 -57.6 28.7 -62.6C27.3 -67.7 27.7 -72.7 26.3 -77.8C24.9 -82.8 22.2 -87.8 20.6 -92.9C19.1 -97.9 19.2 -101 17 -108C14.9 -115 9.7 -128.6 7.6 -134.6C5.4 -140.6 4.3 -144 4.3 -144C4.3 -144 2.7 -140.6 0 -134.6C-2.8 -128.6 -9.3 -115 -12.2 -108C-15 -101 -15.1 -97.9 -17 -92.9C-19 -87.8 -22.1 -82.8 -23.8 -77.8C-25.5 -72.7 -25.4 -67.7 -27.1 -62.6C-28.8 -57.6 -32.4 -52.7 -33.8 -47.5C-35.3 -42.4 -34.2 -37 -35.7 -31.7C-37.2 -26.4 -40.8 -21.8 -42.9 -15.8C-44.9 -9.8 -47.2 -1.9 -48.2 4.3C-49.2 10.6 -49.4 16 -48.9 21.6C-48.3 27.2 -47.3 34.6 -45.1 38.2C-42.8 41.8 -39.2 43.8 -35.6 43.2C-32 42.6 -27.8 38.6 -23.5 34.6C-19.2 30.5 -13.9 22.7 -10 18.7C-6.1 14.8 0 10.8 0 10.8Z" fill="#405D43"/><g clip-path="url(#alam-ac12)"><path d="M1.6 86.4C1.6 86.4 0.6 57.6 0.4 43.2C0.1 28.8 0 13.2 0 0C0 -13.2 0.1 -24 0.3 -36C0.5 -48 0.7 -60 1.1 -72C1.4 -84 1.9 -96 2.4 -108C3 -120 3.5 -130.8 4.3 -144C5.1 -157.2 7.3 -187.2 7.3 -187.2C7.3 -187.2 180.1 -187.2 180.1 -187.2C180.1 -187.2 177.9 -157.2 177.1 -144C176.3 -130.8 175.8 -120 175.2 -108C174.7 -96 174.2 -84 173.9 -72C173.5 -60 173.2 -48 173.1 -36C172.9 -24 172.8 -13.2 172.8 0C172.8 13.2 172.9 28.8 173.2 43.2C173.4 57.6 174.4 86.4 174.4 86.4C174.4 86.4 1.6 86.4 1.6 86.4Z" fill="#34503A"/><path d="M3.2 2.9Q2 -66.9 5.2 -139.6L3 -139.7Q-2.3 -67 -3.2 2.9ZM-1.5 2.2Q19.9 15.6 37.7 40.9L39.3 39.8Q22.5 13.2 1.5 -2.2ZM1.3 2.1Q24.3 -12.6 47.6 -14.8L47.5 -16.8Q23.2 -15.9 -1.3 -2.1ZM2 -24.3Q18.3 -43.9 34.6 -46.5L34.3 -48.5Q16.5 -46.8 -1.7 -27.5ZM2.6 -52.1Q14.7 -74.1 26.2 -76.8L25.9 -78.7Q12.4 -76.5 -1.4 -54.5ZM3.5 -79.9Q10.9 -104.5 17.2 -107.1L16.5 -108.9Q8.1 -106.1 -0.8 -81.4ZM-1.5 -2.2Q-22.6 13.2 -38.7 39.8L-37 40.9Q-20 15.6 1.5 2.2ZM1.3 -2.1Q-23.2 -15.9 -47.4 -16.8L-47.5 -14.8Q-24.3 -12.6 -1.3 2.1ZM2 -27.5Q-15.7 -46.8 -33.4 -48.5L-33.6 -46.5Q-17.5 -43.9 -1.7 -24.3ZM2.7 -54.4Q-10.1 -76.5 -23.3 -78.7L-23.7 -76.8Q-12.4 -74.1 -1.5 -52.2ZM3.6 -81.2Q-3.5 -106 -11.7 -108.9L-12.4 -107.1Q-6.4 -104.5 -0.8 -80.1Z" fill="#C9D2BC"/><path d="M0 10.8C0 10.8 6.2 14.8 10.2 18.7C14.2 22.7 19.6 30.5 24 34.6C28.4 38.6 32.8 42.6 36.4 43.2C40 43.8 43.6 41.8 45.7 38.2C47.8 34.6 48.6 27.2 49.1 21.6C49.5 16 49.3 10.6 48.2 4.3C47.2 -1.9 45 -9.8 43 -15.8C40.9 -21.8 37.5 -26.4 36.1 -31.7C34.8 -37 36 -42.4 34.8 -47.5C33.5 -52.7 30.1 -57.6 28.7 -62.6C27.3 -67.7 27.7 -72.7 26.3 -77.8C24.9 -82.8 22.2 -87.8 20.6 -92.9C19.1 -97.9 19.2 -101 17 -108C14.9 -115 9.7 -128.6 7.6 -134.6C5.4 -140.6 4.3 -144 4.3 -144C4.3 -144 2.7 -140.6 0 -134.6C-2.8 -128.6 -9.3 -115 -12.2 -108C-15 -101 -15.1 -97.9 -17 -92.9C-19 -87.8 -22.1 -82.8 -23.8 -77.8C-25.5 -72.7 -25.4 -67.7 -27.1 -62.6C-28.8 -57.6 -32.4 -52.7 -33.8 -47.5C-35.3 -42.4 -34.2 -37 -35.7 -31.7C-37.2 -26.4 -40.8 -21.8 -42.9 -15.8C-44.9 -9.8 -47.2 -1.9 -48.2 4.3C-49.2 10.6 -49.4 16 -48.9 21.6C-48.3 27.2 -47.3 34.6 -45.1 38.2C-42.8 41.8 -39.2 43.8 -35.6 43.2C-32 42.6 -27.8 38.6 -23.5 34.6C-19.2 30.5 -13.9 22.7 -10 18.7C-6.1 14.8 0 10.8 0 10.8Z" fill="none" stroke="#C9D2BC" stroke-width="8.1" stroke-linejoin="round"/></g></g></g><ellipse cx="300" cy="755" rx="104" ry="8" fill="#D8DCD9"/><clipPath id="alam-pc1"><path d="M209 616 L226 738 Q228 751 242 752 Q300 759 358 752 Q372 751 374 738 L391 616Z"/></clipPath><path d="M209 616 L226 738 Q228 751 242 752 Q300 759 358 752 Q372 751 374 738 L391 616Z" fill="#B96E4A"/><g clip-path="url(#alam-pc1)"><path d="M347.3 616 Q343.4 684 329.4 762 L500 762 L500 616Z" fill="#AD6646"/><clipPath id="alam-pt2"><path d="M100 610 H500 V626 Q300 638 100 626Z"/></clipPath><clipPath id="alam-pt3"><path d="M347.3 616 Q343.4 684 329.4 762 L500 762 L500 616Z"/></clipPath><path d="M100 610 H500 V626 Q300 638 100 626Z" fill="#AA6445"/><path d="M100 610 H500 V626 Q300 638 100 626Z" fill="#A35F43" clip-path="url(#alam-pt3)"/><path d="M236.3 630 Q245.4 684 256.6 740" fill="none" stroke="#CA8662" stroke-width="7" stroke-linecap="round"/><path d="M236.3 630 Q245.4 684 256.6 740" fill="none" stroke="#C38260" stroke-width="7" stroke-linecap="round" clip-path="url(#alam-pt2)"/></g><clipPath id="alam-rs5"><path d="M353.9 568 Q360.8 618 349 648 L500 648 L500 568Z"/></clipPath><clipPath id="alam-rc4"><path d="M202 588 A98 14.7 0 0 0 398 588 L396.5 613 Q396 618 389 619 Q300 635.7 211 619 Q204 618 203.5 613Z"/></clipPath><path d="M202 588 A98 14.7 0 0 0 398 588 L396.5 613 Q396 618 389 619 Q300 635.7 211 619 Q204 618 203.5 613Z" fill="#CB825D"/><g clip-path="url(#alam-rc4)"><path d="M353.9 568 Q360.8 618 349 648 L500 648 L500 568Z" fill="#C17753"/><path d="M223.6 600 L221.6 614" stroke="#D3906C" stroke-width="6" stroke-linecap="round"/><path d="M197 589 A103 15.7 0 0 0 403 589" fill="none" stroke="#D59470" stroke-width="5"/><path d="M197 589 A103 15.7 0 0 0 403 589" fill="none" stroke="#D2916D" stroke-width="5" clip-path="url(#alam-rs5)"/></g>
</svg>
