<svg xmlns="http://www.w3.org/2000/svg" width="600" height="800" viewBox="0 0 600 800">
<title>Chamaedorea elegans (parlour palm)</title>
<defs><g id="chel-cea"><path d="M0 0C0 0 2 -1.6 4 -2.4C6 -3.2 8.4 -4.2 12.1 -4.9C15.8 -5.6 21.1 -6.4 26.2 -6.7C31.2 -7 36.9 -6.9 42.3 -6.7C47.7 -6.5 53.2 -6 58.4 -5.3C63.6 -4.6 68.7 -3.7 73.4 -2.7C78 -1.8 82.7 -0.7 86.3 0.3C89.9 1.3 92.8 2.3 95.1 3.1C97.4 3.9 100 5 100 5C100 5 97.3 5.5 94.9 5.8C92.5 6.1 89.4 6.5 85.7 6.8C82 7.1 77.3 7.4 72.6 7.6C68 7.8 62.8 8.1 57.6 8.1C52.5 8.2 47 8.1 41.7 7.9C36.4 7.6 30.8 7.3 25.8 6.8C20.9 6.2 15.6 5.4 11.9 4.7C8.3 3.9 6 3 4 2.2C2 1.4 0 0 0 0Z"/><path d="M0 0C0 0 2 1.4 4 2.2C6 3 8.3 3.9 11.9 4.7C15.6 5.4 20.9 6.2 25.8 6.8C30.8 7.3 36.4 7.6 41.7 7.9C47 8.1 52.5 8.2 57.6 8.1C62.8 8.1 68 7.8 72.6 7.6C77.3 7.4 82 7.1 85.7 6.8C89.4 6.5 92.5 6.1 94.9 5.8C97.3 5.5 100 5 100 5C100 5 83.3 3.4 75 2.8C66.7 2.2 58.3 1.7 50 1.2C41.7 0.8 33.3 0.5 25 0.3C16.7 0.1 0 0 0 0C0 0 0 0 0 0Z" fill="currentColor"/></g><path id="chel-ceaf" d="M0 0C0 0 2 -1.6 4 -2.4C6 -3.2 8.4 -4.2 12.1 -4.9C15.8 -5.6 21.1 -6.4 26.2 -6.7C31.2 -7 36.9 -6.9 42.3 -6.7C47.7 -6.5 53.2 -6 58.4 -5.3C63.6 -4.6 68.7 -3.7 73.4 -2.7C78 -1.8 82.7 -0.7 86.3 0.3C89.9 1.3 92.8 2.3 95.1 3.1C97.4 3.9 100 5 100 5C100 5 97.3 5.5 94.9 5.8C92.5 6.1 89.4 6.5 85.7 6.8C82 7.1 77.3 7.4 72.6 7.6C68 7.8 62.8 8.1 57.6 8.1C52.5 8.2 47 8.1 41.7 7.9C36.4 7.6 30.8 7.3 25.8 6.8C20.9 6.2 15.6 5.4 11.9 4.7C8.3 3.9 6 3 4 2.2C2 1.4 0 0 0 0Z"/><g id="chel-ceb"><path d="M0 0C0 0 2 -1.6 4 -2.4C6 -3.2 8.4 -4.2 12.1 -4.8C15.9 -5.5 21.3 -6.1 26.4 -6.2C31.5 -6.4 37.3 -6.1 42.7 -5.6C48.1 -5.1 53.7 -4.3 58.9 -3.2C64.1 -2.2 69.2 -0.8 73.9 0.5C78.5 1.9 83.1 3.5 86.6 4.8C90.2 6.1 93.1 7.5 95.3 8.6C97.5 9.6 100 11 100 11C100 11 97.2 11.2 94.7 11.2C92.3 11.2 89.2 11.3 85.4 11.2C81.7 11.1 76.9 11 72.2 10.8C67.5 10.6 62.3 10.4 57.2 10.1C52 9.8 46.6 9.4 41.4 8.9C36.1 8.4 30.5 7.9 25.6 7.2C20.7 6.5 15.5 5.6 11.9 4.8C8.3 3.9 6 3 4 2.2C2 1.4 0 0 0 0Z"/><path d="M0 0C0 0 2 1.4 4 2.2C6 3 8.3 3.9 11.9 4.8C15.5 5.6 20.7 6.5 25.6 7.2C30.5 7.9 36.1 8.4 41.4 8.9C46.6 9.4 52 9.8 57.2 10.1C62.3 10.4 67.5 10.6 72.2 10.8C76.9 11 81.7 11.1 85.4 11.2C89.2 11.3 92.3 11.2 94.7 11.2C97.2 11.2 100 11 100 11C100 11 83.3 7.6 75 6.2C66.7 4.8 58.3 3.7 50 2.8C41.7 1.8 33.3 1.1 25 0.7C16.7 0.2 0 0 0 0C0 0 0 0 0 0Z" fill="currentColor"/></g><path id="chel-cebf" d="M0 0C0 0 2 -1.6 4 -2.4C6 -3.2 8.4 -4.2 12.1 -4.8C15.9 -5.5 21.3 -6.1 26.4 -6.2C31.5 -6.4 37.3 -6.1 42.7 -5.6C48.1 -5.1 53.7 -4.3 58.9 -3.2C64.1 -2.2 69.2 -0.8 73.9 0.5C78.5 1.9 83.1 3.5 86.6 4.8C90.2 6.1 93.1 7.5 95.3 8.6C97.5 9.6 100 11 100 11C100 11 97.2 11.2 94.7 11.2C92.3 11.2 89.2 11.3 85.4 11.2C81.7 11.1 76.9 11 72.2 10.8C67.5 10.6 62.3 10.4 57.2 10.1C52 9.8 46.6 9.4 41.4 8.9C36.1 8.4 30.5 7.9 25.6 7.2C20.7 6.5 15.5 5.6 11.9 4.8C8.3 3.9 6 3 4 2.2C2 1.4 0 0 0 0Z"/><g id="chel-cec"><path d="M0 0C0 0 2 -1.6 4 -2.4C6.1 -3.2 8.4 -4.2 12.2 -4.7C16 -5.3 21.5 -5.8 26.7 -5.8C31.8 -5.7 37.7 -5.2 43.1 -4.3C48.6 -3.5 54.2 -2.2 59.4 -0.8C64.6 0.7 69.8 2.6 74.4 4.4C79 6.2 83.5 8.3 87 10.1C90.5 11.8 93.3 13.6 95.5 14.9C97.6 16.2 100 18 100 18C100 18 97.1 17.7 94.6 17.5C92.1 17.2 88.9 16.8 85.1 16.3C81.3 15.8 76.5 15.1 71.7 14.4C67 13.7 61.8 13.1 56.7 12.4C51.6 11.6 46.2 10.9 41 10.1C35.7 9.3 30.3 8.5 25.4 7.6C20.5 6.8 15.4 5.8 11.8 4.9C8.2 4 5.9 3 4 2.2C2 1.4 0 0 0 0Z"/><path d="M0 0C0 0 2 1.4 4 2.2C5.9 3 8.2 4 11.8 4.9C15.4 5.8 20.5 6.8 25.4 7.6C30.3 8.5 35.7 9.3 41 10.1C46.2 10.9 51.6 11.6 56.7 12.4C61.8 13.1 67 13.7 71.7 14.4C76.5 15.1 81.3 15.8 85.1 16.3C88.9 16.8 92.1 17.2 94.6 17.5C97.1 17.7 100 18 100 18C100 18 83.3 12.4 75 10.1C66.7 7.9 58.3 6 50 4.5C41.7 3 33.3 1.9 25 1.1C16.7 0.4 0 0 0 0C0 0 0 0 0 0Z" fill="currentColor"/></g><path id="chel-cecf" d="M0 0C0 0 2 -1.6 4 -2.4C6.1 -3.2 8.4 -4.2 12.2 -4.7C16 -5.3 21.5 -5.8 26.7 -5.8C31.8 -5.7 37.7 -5.2 43.1 -4.3C48.6 -3.5 54.2 -2.2 59.4 -0.8C64.6 0.7 69.8 2.6 74.4 4.4C79 6.2 83.5 8.3 87 10.1C90.5 11.8 93.3 13.6 95.5 14.9C97.6 16.2 100 18 100 18C100 18 97.1 17.7 94.6 17.5C92.1 17.2 88.9 16.8 85.1 16.3C81.3 15.8 76.5 15.1 71.7 14.4C67 13.7 61.8 13.1 56.7 12.4C51.6 11.6 46.2 10.9 41 10.1C35.7 9.3 30.3 8.5 25.4 7.6C20.5 6.8 15.4 5.8 11.8 4.9C8.2 4 5.9 3 4 2.2C2 1.4 0 0 0 0Z"/></defs><ellipse cx="300" cy="586" rx="100" ry="15" fill="#92543D"/><ellipse cx="300" cy="588.5" rx="92" ry="11.8" fill="#5C4331"/><path d="M214 587 Q300 577.8 386 587" fill="none" stroke="#4F392A" stroke-width="3"/><g fill="#27392C" color="#213127"><use href="#chel-cea" transform="translate(214.3 285.2) rotate(-72.4) scale(0.576 0.554)"/><use href="#chel-cea" transform="translate(203.3 270.1) rotate(-85.2) scale(0.696 0.728)"/><use href="#chel-cea" transform="translate(191.8 256.9) rotate(-95.1) scale(0.729 -0.722)"/><use href="#chel-cea" transform="translate(179.7 244.8) rotate(-102.7) scale(0.818 -0.847)"/><use href="#chel-cea" transform="translate(166.7 233.8) rotate(-102.1) scale(0.762 -0.705)"/><use href="#chel-cea" transform="translate(153.4 224.1) rotate(-115.3) scale(0.699 -0.685)"/><use href="#chel-ceb" transform="translate(139 216.6) rotate(-131.4) scale(0.635 -0.607)"/><use href="#chel-cec" transform="translate(123.3 213.8) rotate(-159.5) scale(0.450 -0.430)"/><use href="#chel-cebf" transform="translate(107.2 215.7) rotate(-169.9) scale(0.273 -0.252)"/></g><g fill="#314B37" color="#27392C"><use href="#chel-ceb" transform="translate(211.6 275.5) rotate(163.9) scale(0.671 -0.637)"/><use href="#chel-cec" transform="translate(200.1 261.3) rotate(160.1) scale(0.771 -0.750)"/><use href="#chel-cec" transform="translate(188 248.6) rotate(158.3) scale(0.802 -0.792)"/><use href="#chel-cec" transform="translate(175.3 237) rotate(157.5) scale(0.824 -0.836)"/><use href="#chel-cec" transform="translate(162 226.5) rotate(153.7) scale(0.801 -0.812)"/><use href="#chel-cec" transform="translate(147.8 217.7) rotate(150.8) scale(0.668 -0.659)"/><use href="#chel-cec" transform="translate(131.9 212) rotate(138.4) scale(0.543 -0.558)"/><use href="#chel-cec" transform="translate(115.3 212.2) rotate(125.2) scale(0.364 -0.380)"/><use href="#chel-cecf" transform="translate(99.2 215.2) rotate(124.5) scale(0.247 -0.228)"/></g><path d="M288.5 601.8C288.5 601.8 288.3 598.3 288.1 595.8C288 593.4 287.8 590.3 287.7 587.2C287.5 584.2 287.3 580.8 287.1 577.4C286.9 573.9 286.7 570.1 286.5 566.3C286.3 562.5 286.1 558.6 285.8 554.6C285.6 550.7 285.3 546.6 285 542.6C284.7 538.7 284.4 534.9 284.1 531.1C283.8 527.2 283.4 523.4 283 519.7C282.7 516 282.3 512.4 281.9 508.7C281.5 505.1 281 501.5 280.6 497.9C280.2 494.2 279.7 490.4 279.2 486.7C278.8 482.9 278.3 479.1 277.7 475.4C277.2 471.6 276.7 467.9 276.1 464.1C275.6 460.4 275 456.7 274.4 453C273.8 449.3 273.2 445.7 272.6 442.1C271.9 438.6 271.2 435 270.6 431.5C269.9 428 269.2 424.6 268.5 421.1C267.7 417.7 267 414.3 266.2 411C265.5 407.6 264.7 404.3 263.9 400.9C263.1 397.6 262.3 394.3 261.4 391C260.6 387.8 259.7 384.5 258.8 381.3C257.9 378.1 257 374.9 256.1 371.8C255.1 368.6 254.1 365.5 253.1 362.4C252.1 359.4 251.1 356.3 250 353.3C249 350.3 247.9 347.3 246.8 344.3C245.7 341.3 244.6 338.4 243.4 335.5C242.2 332.6 241.1 329.7 239.9 326.8C238.6 324 237.4 321.1 236.2 318.3C234.9 315.5 233.6 312.8 232.3 310.1C230.9 307.4 229.6 304.7 228.2 302.1C226.8 299.5 225.4 296.9 223.9 294.4C222.5 291.9 221 289.5 219.5 287.1C217.9 284.7 216.3 282.3 214.7 280C213 277.7 211.3 275.5 209.6 273.2C207.9 271 206.1 268.8 204.3 266.7C202.5 264.6 200.7 262.5 198.9 260.5C197 258.5 195.2 256.5 193.3 254.6C191.5 252.7 189.6 250.8 187.8 249C185.9 247.3 184.1 245.5 182.3 243.9C180.4 242.2 178.6 240.6 176.8 239C175.1 237.5 173.3 236 171.5 234.5C169.7 233.1 168 231.7 166.2 230.3C164.4 229 162.7 227.7 160.9 226.4C159.1 225.2 157.3 224 155.6 222.9C153.8 221.7 152 220.7 150.2 219.7C148.5 218.7 146.7 217.8 144.9 217C143.1 216.2 141.4 215.4 139.6 214.8C137.8 214.2 136 213.6 134.2 213.2C132.3 212.8 130.4 212.5 128.4 212.4C126.5 212.2 124.5 212.2 122.5 212.3C120.5 212.3 118.4 212.6 116.3 212.8C114.3 213.1 112.3 213.4 110.3 213.8C108.2 214.1 105.9 214.6 104.1 215C102.3 215.4 100.2 215.7 99.4 216.1C98.7 216.4 98.8 217.1 99.7 217.1C100.5 217.1 102.5 216.5 104.3 216.1C106.1 215.8 108.4 215.3 110.5 215C112.5 214.6 114.5 214.4 116.5 214.1C118.5 213.9 120.6 213.7 122.5 213.7C124.5 213.7 126.4 213.8 128.3 213.9C130.2 214.1 132 214.4 133.8 214.8C135.6 215.2 137.3 215.8 139 216.5C140.7 217.1 142.4 217.9 144.1 218.7C145.8 219.6 147.5 220.5 149.3 221.5C151 222.4 152.7 223.5 154.4 224.6C156.2 225.8 157.9 227 159.6 228.2C161.3 229.5 163.1 230.8 164.8 232.2C166.5 233.5 168.2 234.9 169.9 236.4C171.7 237.9 173.4 239.4 175.2 241C176.9 242.5 178.7 244.1 180.5 245.8C182.2 247.5 184 249.2 185.8 251C187.6 252.8 189.4 254.7 191.2 256.6C193 258.5 194.8 260.5 196.6 262.5C198.4 264.5 200.2 266.6 201.9 268.7C203.7 270.8 205.4 273 207.1 275.2C208.7 277.4 210.4 279.6 211.9 281.9C213.5 284.2 215.1 286.5 216.5 288.9C218 291.3 219.5 293.7 220.9 296.2C222.3 298.7 223.6 301.2 225 303.8C226.3 306.4 227.6 309 228.9 311.7C230.1 314.4 231.4 317.1 232.6 319.9C233.8 322.7 235 325.5 236.2 328.3C237.3 331.2 238.5 334.1 239.6 337C240.7 339.9 241.8 342.8 242.8 345.8C243.9 348.7 244.9 351.7 246 354.7C247 357.7 247.9 360.7 248.9 363.8C249.9 366.9 250.8 369.9 251.7 373.1C252.6 376.2 253.5 379.4 254.3 382.5C255.2 385.7 256 389 256.8 392.2C257.6 395.5 258.4 398.7 259.1 402C259.9 405.4 260.6 408.7 261.4 412.1C262.1 415.4 262.8 418.8 263.5 422.2C264.1 425.6 264.8 429 265.4 432.5C266.1 436 266.7 439.5 267.3 443.1C267.9 446.6 268.5 450.2 269 453.9C269.6 457.5 270.1 461.2 270.6 464.9C271.2 468.6 271.7 472.4 272.1 476.1C272.6 479.9 273.1 483.6 273.5 487.3C273.9 491.1 274.4 494.8 274.8 498.5C275.2 502.2 275.5 505.8 275.9 509.4C276.3 513 276.6 516.6 277 520.3C277.3 524 277.6 527.8 277.9 531.6C278.2 535.4 278.4 539.2 278.7 543.1C279 547 279.2 551 279.4 555C279.6 558.9 279.8 562.9 280 566.7C280.2 570.5 280.3 574.2 280.5 577.7C280.6 581.2 280.7 584.5 280.9 587.6C281 590.7 281.2 593.7 281.3 596.2C281.4 598.6 281.5 602.2 281.5 602.2C281.5 602.2 288.5 601.8 288.5 601.8Z" fill="#5B7458"/><path d="M281.2 505.8Q278.3 503.7 275.9 506.4M263.6 401.4Q261 399.5 259.6 402.3" fill="none" stroke="#4B6349" stroke-width="3" stroke-linecap="round"/><g fill="#27392C" color="#213127"><use href="#chel-cea" transform="translate(378.8 409.7) rotate(-106.6) scale(0.611 -0.658)"/><use href="#chel-cea" transform="translate(393.2 393.2) rotate(-90.5) scale(0.700 -0.724)"/><use href="#chel-cea" transform="translate(409.1 379) rotate(-84.1) scale(0.712 0.760)"/><use href="#chel-cea" transform="translate(425.8 366.4) rotate(-78.7) scale(0.736 0.781)"/><use href="#chel-cea" transform="translate(443.2 355.6) rotate(-66.5) scale(0.759 0.810)"/><use href="#chel-ceb" transform="translate(461.4 346.5) rotate(-57.9) scale(0.706 0.686)"/><use href="#chel-cea" transform="translate(480 338.8) rotate(-48.6) scale(0.639 0.616)"/><use href="#chel-cea" transform="translate(499.2 333.2) rotate(-37.5) scale(0.500 0.517)"/><use href="#chel-cebf" transform="translate(518.8 330.8) rotate(-20.8) scale(0.322 0.327)"/></g><g fill="#314B37" color="#27392C"><use href="#chel-ceb" transform="translate(369.9 416) rotate(20.6) scale(0.583 0.545)"/><use href="#chel-cec" transform="translate(384.4 397.4) rotate(26.1) scale(0.660 0.640)"/><use href="#chel-cec" transform="translate(400.2 382.2) rotate(28.8) scale(0.704 0.666)"/><use href="#chel-cec" transform="translate(416.8 369) rotate(29.4) scale(0.724 0.782)"/><use href="#chel-cec" transform="translate(434.2 357.2) rotate(32.6) scale(0.771 0.742)"/><use href="#chel-cec" transform="translate(452.4 347.5) rotate(33.1) scale(0.673 0.653)"/><use href="#chel-cec" transform="translate(471.2 339.3) rotate(38.1) scale(0.648 0.654)"/><use href="#chel-cec" transform="translate(490.4 332.9) rotate(37.2) scale(0.539 0.508)"/><use href="#chel-cec" transform="translate(510.3 328.9) rotate(47.3) scale(0.390 0.370)"/><use href="#chel-cecf" transform="translate(530.4 329.9) rotate(57.7) scale(0.267 0.284)"/></g><path d="M325.4 602.3C325.4 602.3 325.6 599.1 325.8 596.9C326 594.7 326.3 592 326.5 589.2C326.7 586.4 327 583.4 327.2 580.2C327.5 577.1 327.8 573.7 328.1 570.3C328.4 566.9 328.7 563.4 329.1 559.9C329.4 556.4 329.8 552.9 330.2 549.5C330.6 546.1 331.1 542.9 331.5 539.7C332 536.6 332.4 533.5 332.9 530.5C333.4 527.5 333.9 524.8 334.4 522C335 519.3 335.5 516.6 336.1 513.9C336.6 511.2 337.2 508.5 337.8 505.8C338.4 503.1 339 500.4 339.7 497.8C340.4 495.2 341.1 492.5 341.8 489.9C342.5 487.3 343.3 484.8 344.1 482.2C344.8 479.6 345.7 477.1 346.6 474.5C347.5 472 348.4 469.4 349.3 466.9C350.3 464.4 351.3 461.8 352.4 459.3C353.4 456.7 354.5 454.2 355.6 451.7C356.7 449.2 357.9 446.6 359 444.1C360.2 441.6 361.5 439.1 362.7 436.7C364 434.2 365.3 431.8 366.6 429.4C367.9 427 369.3 424.7 370.7 422.4C372.1 420.1 373.6 417.9 375 415.7C376.5 413.5 378 411.3 379.6 409.3C381.2 407.2 382.9 405.2 384.5 403.2C386.2 401.2 388 399.2 389.8 397.3C391.6 395.4 393.4 393.6 395.3 391.7C397.2 389.9 399.1 388.1 401 386.4C403 384.6 405 382.9 406.9 381.2C408.9 379.6 410.9 377.9 412.9 376.4C414.9 374.8 416.9 373.2 418.9 371.7C420.9 370.2 422.9 368.7 424.9 367.3C426.9 365.9 429 364.5 431 363.2C433 361.8 435.1 360.5 437.2 359.3C439.3 358 441.4 356.8 443.5 355.6C445.6 354.5 447.8 353.3 449.9 352.2C452 351.1 454.1 350.1 456.2 349.1C458.3 348.1 460.4 347.1 462.5 346.2C464.5 345.2 466.6 344.4 468.5 343.5C470.5 342.7 472.5 341.9 474.4 341.1C476.3 340.3 478.2 339.6 480.1 338.9C482 338.2 483.8 337.6 485.6 337C487.4 336.4 489.3 335.9 491 335.3C492.8 334.8 494.6 334.4 496.3 333.9C498.1 333.5 499.8 333.1 501.5 332.7C503.2 332.4 504.9 332.1 506.5 331.8C508.2 331.6 509.7 331.3 511.3 331.1C512.9 330.9 514.4 330.8 516 330.7C517.6 330.7 519.3 330.7 520.9 330.8C522.5 330.9 524 331 525.4 331.1C526.7 331.3 528 331.5 529 331.7C530.1 331.8 531.1 332.2 531.6 332.2C532 332.1 532.2 331.4 531.8 331.2C531.4 330.9 530.3 330.8 529.3 330.6C528.2 330.4 526.9 330.1 525.5 329.9C524.1 329.7 522.6 329.6 521 329.5C519.4 329.4 517.6 329.3 516 329.3C514.3 329.3 512.8 329.4 511.2 329.6C509.5 329.7 507.9 329.9 506.3 330.2C504.6 330.4 502.9 330.7 501.2 331C499.4 331.3 497.7 331.7 495.9 332.1C494.1 332.5 492.3 332.9 490.5 333.4C488.7 333.9 486.8 334.4 485 335C483.1 335.6 481.3 336.2 479.4 336.8C477.5 337.5 475.5 338.2 473.6 338.9C471.6 339.6 469.6 340.4 467.6 341.2C465.6 342.1 463.5 342.9 461.4 343.8C459.4 344.7 457.2 345.7 455.1 346.7C453 347.7 450.8 348.7 448.6 349.8C446.5 350.8 444.3 351.9 442.1 353.1C440 354.3 437.8 355.5 435.6 356.7C433.5 358 431.4 359.2 429.3 360.6C427.2 361.9 425.1 363.3 423.1 364.7C421 366.1 419 367.5 416.9 369C414.9 370.5 412.8 372.1 410.8 373.6C408.8 375.2 406.7 376.8 404.7 378.5C402.6 380.2 400.6 381.9 398.6 383.6C396.6 385.4 394.6 387.2 392.7 389C390.7 390.8 388.8 392.7 386.9 394.7C385.1 396.6 383.3 398.5 381.5 400.5C379.8 402.6 378 404.6 376.4 406.7C374.7 408.9 373.1 411 371.6 413.3C370 415.5 368.5 417.8 367 420.1C365.6 422.4 364.1 424.8 362.7 427.2C361.3 429.6 360 432.1 358.7 434.6C357.3 437 356.1 439.6 354.8 442.1C353.6 444.6 352.4 447.2 351.2 449.7C350.1 452.3 348.9 454.8 347.8 457.4C346.7 459.9 345.7 462.5 344.7 465.1C343.6 467.7 342.7 470.2 341.7 472.8C340.8 475.4 339.9 478 339.1 480.6C338.2 483.2 337.4 485.8 336.6 488.5C335.9 491.1 335.1 493.8 334.4 496.4C333.7 499.1 333 501.8 332.4 504.5C331.7 507.2 331.1 510 330.5 512.7C329.9 515.4 329.3 518.1 328.7 520.9C328.2 523.7 327.6 526.5 327.1 529.5C326.6 532.5 326 535.7 325.5 538.9C325.1 542.1 324.6 545.3 324.1 548.7C323.7 552.1 323.3 555.8 322.9 559.3C322.5 562.7 322.1 566.3 321.8 569.7C321.4 573.1 321.1 576.5 320.8 579.6C320.5 582.8 320.2 585.8 320 588.6C319.7 591.4 319.4 594.1 319.2 596.3C319 598.5 318.6 601.7 318.6 601.7C318.6 601.7 325.4 602.3 325.4 602.3Z" fill="#7F9273"/><path d="M331.3 538.8Q329 536 325.9 538M348.1 469.5Q346.8 466.4 343.9 467.9" fill="none" stroke="#6A7E60" stroke-width="3" stroke-linecap="round"/><g fill="#314B37" color="#27392C"><use href="#chel-ceb" transform="translate(225.7 430.1) rotate(163.5) scale(0.561 -0.534)"/><use href="#chel-cec" transform="translate(214.9 414.9) rotate(158.4) scale(0.632 -0.672)"/><use href="#chel-ceb" transform="translate(202.7 401.9) rotate(156.4) scale(0.631 -0.595)"/><use href="#chel-cec" transform="translate(189.6 390.3) rotate(154.9) scale(0.625 -0.575)"/><use href="#chel-cec" transform="translate(176 379.8) rotate(154.1) scale(0.646 -0.679)"/><use href="#chel-cec" transform="translate(161.8 370.5) rotate(152.3) scale(0.580 -0.599)"/><use href="#chel-ceb" transform="translate(146.6 362.7) rotate(143.8) scale(0.442 -0.459)"/><use href="#chel-cecf" transform="translate(130.3 358.7) rotate(135.6) scale(0.316 -0.309)"/></g><g fill="#405D43" color="#34503A"><use href="#chel-cea" transform="translate(227.5 440.2) rotate(-61) scale(0.502 0.538)"/><use href="#chel-ceb" transform="translate(217.4 424) rotate(-69.9) scale(0.590 0.587)"/><use href="#chel-cea" transform="translate(206.3 410.3) rotate(-84.2) scale(0.661 0.620)"/><use href="#chel-cea" transform="translate(194 398.2) rotate(-97) scale(0.653 -0.661)"/><use href="#chel-cea" transform="translate(180.9 387.2) rotate(-104.4) scale(0.613 -0.654)"/><use href="#chel-cea" transform="translate(167.3 377.2) rotate(-114.2) scale(0.626 -0.590)"/><use href="#chel-ceb" transform="translate(153 368.6) rotate(-124.6) scale(0.548 -0.581)"/><use href="#chel-cea" transform="translate(137.9 362.2) rotate(-144.8) scale(0.361 -0.383)"/></g><path d="M275.3 601.6C275.3 601.6 274.9 598.8 274.6 596.9C274.4 594.9 274 592.5 273.7 590.1C273.4 587.6 273.1 585 272.7 582.2C272.4 579.5 272 576.5 271.6 573.5C271.2 570.5 270.8 567.4 270.3 564.3C269.9 561.2 269.4 558 268.9 554.9C268.4 551.9 267.9 548.9 267.4 546C266.9 543.1 266.3 540.2 265.7 537.5C265.2 534.7 264.6 532.1 264 529.4C263.4 526.8 262.8 524.2 262.2 521.6C261.5 518.9 260.9 516.3 260.2 513.6C259.5 511 258.9 508.3 258.1 505.7C257.4 503.1 256.7 500.5 255.9 497.9C255.1 495.3 254.3 492.7 253.5 490.2C252.7 487.6 251.8 485.1 250.9 482.6C250 480.1 249.1 477.6 248.1 475.2C247.2 472.7 246.2 470.3 245.1 467.9C244.1 465.4 243.1 463.1 242 460.7C240.9 458.3 239.8 455.9 238.6 453.5C237.5 451.2 236.3 448.8 235.1 446.5C233.9 444.2 232.7 441.9 231.4 439.7C230.2 437.5 228.9 435.3 227.6 433.1C226.3 431 225 428.9 223.6 426.9C222.2 424.9 220.9 422.9 219.4 421C218 419 216.5 417.2 215 415.4C213.6 413.6 212 411.8 210.5 410.1C208.9 408.4 207.3 406.8 205.7 405.2C204.1 403.5 202.4 402 200.8 400.5C199.1 398.9 197.5 397.5 195.8 396C194.1 394.6 192.4 393.2 190.8 391.8C189.1 390.4 187.4 389.1 185.8 387.8C184.1 386.5 182.4 385.2 180.8 384C179.1 382.7 177.4 381.5 175.7 380.3C174 379.1 172.4 378 170.6 376.8C168.9 375.7 167.2 374.5 165.5 373.5C163.7 372.4 162 371.4 160.3 370.4C158.5 369.4 156.8 368.4 155.1 367.6C153.4 366.7 151.7 365.8 150 365.1C148.3 364.3 146.7 363.6 145.1 363C143.5 362.3 141.9 361.7 140.2 361.3C138.5 360.8 136.5 360.5 134.9 360.2C133.2 359.9 131.5 359.7 130.4 359.6C129.2 359.4 128.6 359.4 128 359.4C127.5 359.4 127.1 359.3 127 359.5C126.8 359.7 126.8 360.3 127 360.5C127.1 360.7 127.5 360.5 128 360.5C128.5 360.6 129.1 360.6 130.2 360.8C131.3 361 133 361.2 134.6 361.5C136.2 361.9 138.2 362.2 139.8 362.7C141.4 363.2 142.9 363.8 144.5 364.5C146.1 365.1 147.6 365.9 149.2 366.7C150.9 367.5 152.5 368.3 154.2 369.2C155.9 370.1 157.6 371.1 159.2 372.1C160.9 373.1 162.6 374.2 164.3 375.3C166 376.4 167.7 377.5 169.4 378.7C171 379.9 172.7 381 174.3 382.3C176 383.5 177.6 384.7 179.2 386C180.9 387.3 182.5 388.6 184.1 389.9C185.7 391.2 187.4 392.5 189 393.9C190.6 395.3 192.3 396.7 193.9 398.2C195.5 399.7 197.1 401.1 198.7 402.7C200.3 404.2 201.9 405.8 203.4 407.4C205 409 206.5 410.6 208 412.3C209.5 414 211 415.8 212.4 417.5C213.8 419.3 215.2 421.2 216.6 423C217.9 424.9 219.2 426.9 220.5 428.9C221.8 430.9 223.1 433 224.3 435.1C225.6 437.2 226.8 439.4 228 441.6C229.2 443.8 230.4 446.1 231.5 448.4C232.7 450.6 233.8 453 234.9 455.3C235.9 457.7 237 460 238 462.4C239.1 464.8 240.1 467.2 241 469.6C242 472 243 474.4 243.9 476.8C244.8 479.2 245.6 481.7 246.5 484.2C247.3 486.6 248.1 489.1 248.9 491.6C249.7 494.1 250.4 496.7 251.2 499.3C251.9 501.8 252.6 504.4 253.2 507C253.9 509.6 254.5 512.2 255.2 514.9C255.8 517.5 256.4 520.2 257 522.8C257.6 525.4 258.1 527.9 258.7 530.6C259.2 533.2 259.7 535.8 260.3 538.5C260.8 541.3 261.3 544.1 261.8 547C262.2 549.9 262.7 552.8 263.1 555.8C263.6 558.8 264 562 264.4 565.1C264.8 568.1 265.2 571.3 265.5 574.3C265.9 577.2 266.2 580.2 266.5 583C266.9 585.7 267.1 588.4 267.4 590.8C267.7 593.3 268 595.7 268.2 597.7C268.4 599.6 268.7 602.4 268.7 602.4C268.7 602.4 275.3 601.6 275.3 601.6Z" fill="#7F9273"/><path d="M268.9 556.6Q265.9 554.7 263.6 557.4M255.2 496.4Q252.4 494.7 251 497.6" fill="none" stroke="#6A7E60" stroke-width="3" stroke-linecap="round"/><g fill="#405D43" color="#34503A"><use href="#chel-ceb" transform="translate(298.2 318.9) rotate(-27.1) scale(0.554 0.563)"/><use href="#chel-cec" transform="translate(299.4 295.1) rotate(-32) scale(0.649 0.684)"/><use href="#chel-ceb" transform="translate(300.5 272.9) rotate(-32.5) scale(0.678 0.675)"/><use href="#chel-ceb" transform="translate(302 251.1) rotate(-31.7) scale(0.763 0.720)"/><use href="#chel-ceb" transform="translate(303.9 229.8) rotate(-28.9) scale(0.766 0.795)"/><use href="#chel-cea" transform="translate(306.8 209) rotate(-33.9) scale(0.767 0.778)"/><use href="#chel-cea" transform="translate(310.4 188.4) rotate(-34.1) scale(0.714 0.711)"/><use href="#chel-ceb" transform="translate(314.5 168) rotate(-27.6) scale(0.705 0.752)"/><use href="#chel-ceb" transform="translate(319.6 148) rotate(-26) scale(0.622 0.665)"/><use href="#chel-cec" transform="translate(326.3 128.7) rotate(-27.2) scale(0.512 0.489)"/><use href="#chel-ceb" transform="translate(334.6 110.1) rotate(-23.4) scale(0.375 0.363)"/><use href="#chel-cebf" transform="translate(344.1 92.1) rotate(-19.3) scale(0.256 0.260)"/></g><g fill="#5B7458" color="#4B6349"><use href="#chel-ceb" transform="translate(302.2 307.8) rotate(-148.9) scale(0.609 -0.651)"/><use href="#chel-ceb" transform="translate(303.2 285) rotate(-146.9) scale(0.694 -0.656)"/><use href="#chel-cea" transform="translate(304.4 263.2) rotate(-143.5) scale(0.745 -0.753)"/><use href="#chel-cea" transform="translate(305.9 241.9) rotate(-134.9) scale(0.764 -0.773)"/><use href="#chel-cea" transform="translate(308.1 220.9) rotate(-128.9) scale(0.738 -0.796)"/><use href="#chel-cea" transform="translate(311.2 200.1) rotate(-128.7) scale(0.711 -0.671)"/><use href="#chel-cea" transform="translate(315 179.8) rotate(-123.9) scale(0.697 -0.646)"/><use href="#chel-cea" transform="translate(319.3 159.8) rotate(-113.9) scale(0.672 -0.654)"/><use href="#chel-cea" transform="translate(324.9 140.2) rotate(-113) scale(0.596 -0.643)"/><use href="#chel-cea" transform="translate(332 121.4) rotate(-97) scale(0.420 -0.388)"/><use href="#chel-ceaf" transform="translate(340.6 103.1) rotate(-92.2) scale(0.292 -0.276)"/></g><path d="M301.1 602C301.1 602 301 597.5 301 594.4C301 591.3 301 587.4 300.9 583.5C300.9 579.6 300.9 575.4 300.9 571C300.8 566.5 300.8 561.8 300.8 557C300.7 552.2 300.7 547.2 300.7 542.3C300.7 537.4 300.6 532.3 300.6 527.5C300.6 522.7 300.6 518 300.6 513.4C300.6 508.9 300.6 504.3 300.6 500C300.6 495.7 300.6 491.6 300.6 487.5C300.6 483.4 300.6 479.4 300.6 475.4C300.6 471.3 300.6 467.2 300.6 463.2C300.6 459.1 300.6 455.1 300.7 451C300.7 447 300.7 443 300.7 439C300.7 435.1 300.8 431.1 300.8 427.2C300.8 423.3 300.9 419.4 300.9 415.5C300.9 411.7 301 407.8 301 404C301 400.3 301.1 396.6 301.1 392.9C301.1 389.2 301.2 385.6 301.2 382C301.2 378.4 301.3 374.9 301.3 371.3C301.3 367.8 301.4 364.3 301.4 360.8C301.5 357.3 301.5 353.8 301.6 350.3C301.6 346.8 301.7 343.3 301.8 339.8C301.9 336.2 302 332.7 302.1 329.1C302.2 325.4 302.3 321.8 302.5 318.1C302.6 314.4 302.7 310.6 302.9 306.7C303 302.9 303.2 299 303.4 295.1C303.5 291.2 303.7 287.2 303.9 283.3C304 279.3 304.2 275.3 304.4 271.4C304.6 267.4 304.9 263.5 305.1 259.6C305.3 255.7 305.6 251.8 305.9 248C306.2 244.3 306.5 240.6 306.8 236.9C307.2 233.3 307.5 229.7 307.9 226.2C308.3 222.7 308.7 219.3 309.2 215.9C309.6 212.5 310.1 209.2 310.6 205.9C311.1 202.5 311.6 199.2 312.2 196C312.7 192.8 313.3 189.6 313.9 186.4C314.4 183.3 315 180.2 315.6 177.2C316.3 174.2 316.9 171.3 317.5 168.4C318.1 165.6 318.7 162.8 319.4 160.1C320 157.5 320.7 154.9 321.3 152.4C322 149.9 322.6 147.5 323.3 145.2C324 142.9 324.7 140.7 325.4 138.6C326.1 136.4 326.8 134.4 327.5 132.4C328.3 130.4 329 128.5 329.8 126.7C330.5 124.8 331.3 123 332 121.3C332.8 119.5 333.5 117.8 334.3 116.1C335 114.4 335.8 112.8 336.5 111.2C337.2 109.5 338 108 338.7 106.4C339.5 104.7 340.4 103 341.2 101.4C342 99.9 342.8 98.3 343.5 97C344.2 95.7 344.9 94.5 345.5 93.5C346.1 92.5 346.8 91.6 346.9 91.1C347 90.6 346.3 90.3 345.9 90.6C345.5 90.8 345 91.9 344.4 92.9C343.8 93.8 343.1 95 342.3 96.3C341.6 97.7 340.7 99.2 339.9 100.7C339 102.3 338.1 104 337.3 105.6C336.4 107.2 335.7 108.8 334.9 110.4C334.1 112 333.3 113.6 332.5 115.3C331.7 117 330.9 118.7 330.1 120.4C329.3 122.2 328.5 124 327.7 125.8C326.9 127.7 326.2 129.6 325.4 131.6C324.6 133.6 323.8 135.6 323.1 137.8C322.3 139.9 321.6 142.1 320.8 144.4C320.1 146.7 319.4 149.1 318.7 151.6C318 154.1 317.3 156.8 316.6 159.5C315.9 162.1 315.2 164.9 314.6 167.8C313.9 170.6 313.2 173.6 312.6 176.6C311.9 179.6 311.3 182.7 310.6 185.8C310 189 309.4 192.2 308.8 195.4C308.2 198.7 307.6 202 307.1 205.3C306.5 208.6 306 212 305.5 215.4C305 218.8 304.5 222.2 304.1 225.8C303.7 229.3 303.3 232.9 302.9 236.6C302.5 240.2 302.1 243.9 301.8 247.7C301.5 251.5 301.2 255.4 300.9 259.3C300.6 263.2 300.3 267.2 300.1 271.1C299.8 275.1 299.6 279.1 299.4 283C299.1 287 298.9 291 298.7 294.9C298.5 298.8 298.3 302.7 298.1 306.5C297.9 310.4 297.7 314.2 297.5 317.9C297.4 321.6 297.2 325.3 297 328.9C296.9 332.5 296.7 336.1 296.6 339.6C296.5 343.2 296.4 346.7 296.2 350.2C296.1 353.7 296 357.2 296 360.7C295.9 364.2 295.8 367.7 295.7 371.2C295.6 374.8 295.5 378.3 295.5 381.9C295.4 385.5 295.3 389.1 295.2 392.8C295.1 396.5 295.1 400.2 295 404C294.9 407.7 294.8 411.6 294.7 415.4C294.7 419.3 294.6 423.2 294.5 427.1C294.4 431 294.4 435 294.3 439C294.2 442.9 294.2 446.9 294.1 451C294 455 294 459 293.9 463.1C293.8 467.1 293.8 471.3 293.7 475.3C293.7 479.4 293.6 483.3 293.6 487.5C293.5 491.6 293.5 495.7 293.4 500C293.4 504.3 293.4 508.8 293.3 513.4C293.3 518 293.3 522.7 293.2 527.5C293.2 532.3 293.2 537.4 293.2 542.3C293.1 547.2 293.1 552.2 293.1 557C293.1 561.8 293.1 566.5 293.1 571C293 575.4 293 579.6 293 583.5C293 587.4 293 591.4 293 594.4C292.9 597.5 292.9 602 292.9 602C292.9 602 301.1 602 301.1 602Z" fill="#7F9273"/><path d="M300.4 537.7Q296.9 535.3 293.5 537.7M300.2 457.3Q297.3 454.9 294.4 457.2M300.8 382.2Q298.4 379.8 295.9 382.2" fill="none" stroke="#6A7E60" stroke-width="3" stroke-linecap="round"/><g fill="#5B7458" color="#4B6349"><use href="#chel-cea" transform="translate(358.6 322.6) rotate(-110) scale(0.577 -0.585)"/><use href="#chel-cea" transform="translate(369.1 301.7) rotate(-99) scale(0.636 -0.657)"/><use href="#chel-cea" transform="translate(381.5 283) rotate(-90.8) scale(0.665 -0.705)"/><use href="#chel-cea" transform="translate(395.6 266.2) rotate(-79.8) scale(0.714 0.670)"/><use href="#chel-ceb" transform="translate(411.4 251.1) rotate(-73.4) scale(0.666 0.665)"/><use href="#chel-cea" transform="translate(428.4 238.2) rotate(-61) scale(0.585 0.592)"/><use href="#chel-cea" transform="translate(447 228) rotate(-46.2) scale(0.513 0.521)"/><use href="#chel-cebf" transform="translate(467.1 222.1) rotate(-27.9) scale(0.326 0.349)"/></g><g fill="#7F9273" color="#6A7E60"><use href="#chel-ceb" transform="translate(351.5 332) rotate(-19.7) scale(0.515 0.480)"/><use href="#chel-cec" transform="translate(361.8 309.4) rotate(-13.6) scale(0.612 0.613)"/><use href="#chel-cec" transform="translate(373.5 288.9) rotate(9.2) scale(0.634 0.593)"/><use href="#chel-cec" transform="translate(387.3 271) rotate(15.6) scale(0.689 0.659)"/><use href="#chel-cec" transform="translate(402.7 255) rotate(20.6) scale(0.697 0.685)"/><use href="#chel-ceb" transform="translate(419.4 241.2) rotate(19.8) scale(0.679 0.656)"/><use href="#chel-cec" transform="translate(437.9 229.7) rotate(26) scale(0.551 0.579)"/><use href="#chel-cec" transform="translate(457.9 221.5) rotate(39.2) scale(0.382 0.374)"/><use href="#chel-cebf" transform="translate(479 219) rotate(43.8) scale(0.248 0.236)"/></g><path d="M312.2 602.2C312.2 602.2 312.3 598.6 312.5 596.1C312.6 593.6 312.7 590.5 312.9 587.4C313 584.2 313.1 580.9 313.3 577.3C313.4 573.8 313.6 570 313.8 566.2C314 562.3 314.2 558.3 314.4 554.4C314.6 550.4 314.8 546.4 315.1 542.5C315.3 538.6 315.6 534.8 315.9 531.1C316.2 527.4 316.5 523.8 316.8 520.3C317.1 516.7 317.4 513.4 317.8 510.1C318.1 506.7 318.5 503.5 318.8 500.2C319.2 496.9 319.6 493.5 320 490.2C320.4 486.9 320.8 483.5 321.2 480.2C321.7 476.9 322.1 473.6 322.6 470.3C323.1 467 323.6 463.7 324.1 460.3C324.6 457 325.1 453.7 325.6 450.4C326.2 447.1 326.8 443.8 327.3 440.4C327.9 437.1 328.5 433.7 329.1 430.3C329.7 426.9 330.4 423.5 331 420.1C331.6 416.6 332.3 413.2 333 409.7C333.6 406.3 334.3 402.9 335.1 399.5C335.8 396.1 336.5 392.6 337.3 389.3C338 386 338.8 382.6 339.6 379.4C340.4 376.1 341.3 373 342.2 369.8C343 366.7 343.9 363.6 344.9 360.6C345.8 357.6 346.7 354.6 347.7 351.7C348.7 348.8 349.7 345.9 350.8 343.1C351.8 340.3 352.8 337.5 353.9 334.7C355 331.9 356.1 329.2 357.2 326.6C358.4 323.9 359.5 321.3 360.7 318.7C361.9 316.1 363.1 313.6 364.4 311.1C365.6 308.6 366.9 306.2 368.2 303.8C369.6 301.4 370.9 299.1 372.3 296.8C373.7 294.5 375.2 292.3 376.6 290.1C378.1 287.9 379.6 285.7 381.2 283.6C382.8 281.5 384.4 279.4 386 277.4C387.6 275.4 389.3 273.4 391 271.5C392.7 269.6 394.4 267.7 396.1 265.9C397.8 264.1 399.6 262.3 401.3 260.5C403 258.8 404.8 257.2 406.5 255.5C408.2 253.9 410 252.4 411.7 250.9C413.5 249.3 415.2 247.9 417 246.5C418.8 245.1 420.5 243.7 422.3 242.4C424.1 241.1 426 239.8 427.8 238.6C429.6 237.4 431.4 236.3 433.3 235.2C435.1 234.1 437 233 438.8 232C440.6 231 442.5 230.1 444.3 229.2C446.1 228.3 447.9 227.5 449.7 226.7C451.6 226 453.3 225.3 455.2 224.7C457.1 224.1 459 223.6 461 223.1C462.9 222.6 464.8 222.3 466.9 222C469.1 221.6 471.8 221.4 473.8 221.3C475.9 221.1 478.4 221.1 479.3 220.9C480.2 220.6 480.1 220 479.2 219.9C478.3 219.8 475.8 220 473.7 220.2C471.7 220.3 468.9 220.5 466.7 220.8C464.6 221 462.7 221.4 460.7 221.8C458.7 222.2 456.7 222.7 454.8 223.3C452.9 223.9 451 224.6 449.2 225.3C447.3 226.1 445.5 226.9 443.6 227.8C441.8 228.6 439.9 229.5 438 230.5C436.1 231.5 434.2 232.5 432.3 233.6C430.5 234.7 428.6 235.8 426.7 237C424.9 238.2 423 239.5 421.1 240.7C419.3 242 417.5 243.4 415.7 244.8C413.9 246.2 412.1 247.6 410.3 249.1C408.5 250.6 406.7 252.2 404.9 253.8C403.1 255.4 401.4 257.1 399.6 258.8C397.8 260.5 396 262.3 394.3 264.1C392.5 265.9 390.7 267.8 389 269.7C387.3 271.7 385.6 273.6 383.9 275.7C382.2 277.7 380.5 279.8 378.9 281.9C377.3 284 375.7 286.2 374.2 288.4C372.7 290.6 371.1 292.9 369.7 295.2C368.2 297.5 366.8 299.9 365.5 302.3C364.1 304.7 362.8 307.1 361.5 309.6C360.2 312.1 358.9 314.7 357.6 317.3C356.4 319.9 355.2 322.5 354 325.2C352.8 327.9 351.7 330.6 350.6 333.4C349.4 336.1 348.4 339 347.3 341.8C346.2 344.7 345.2 347.5 344.1 350.5C343.1 353.4 342.1 356.4 341.1 359.4C340.2 362.5 339.2 365.6 338.3 368.7C337.4 371.9 336.5 375.1 335.6 378.4C334.8 381.6 334 385 333.2 388.4C332.4 391.7 331.6 395.1 330.8 398.5C330.1 402 329.3 405.4 328.6 408.9C327.9 412.3 327.2 415.8 326.5 419.2C325.9 422.6 325.2 426 324.6 429.4C323.9 432.8 323.3 436.2 322.7 439.6C322.1 442.9 321.5 446.3 320.9 449.6C320.3 452.9 319.7 456.2 319.2 459.6C318.6 462.9 318.1 466.2 317.6 469.5C317.1 472.9 316.6 476.2 316.1 479.5C315.7 482.9 315.2 486.2 314.8 489.5C314.3 492.9 313.9 496.2 313.5 499.5C313.1 502.9 312.7 506.1 312.3 509.5C311.9 512.9 311.6 516.2 311.2 519.7C310.9 523.3 310.5 527 310.2 530.7C309.9 534.4 309.6 538.2 309.3 542.1C309 546 308.8 550.1 308.5 554C308.3 558 308 562 307.8 565.8C307.6 569.7 307.4 573.5 307.2 577C307 580.6 306.8 583.9 306.7 587.1C306.5 590.2 306.3 593.3 306.2 595.8C306 598.2 305.8 601.8 305.8 601.8C305.8 601.8 312.2 602.2 312.2 602.2Z" fill="#A5B296"/><path d="M314.2 555.1Q311.6 552.6 308.7 554.8M323.6 461.7Q321.8 459 319.2 461" fill="none" stroke="#6A7E60" stroke-width="3" stroke-linecap="round"/><g fill="#405D43" color="#34503A"><use href="#chel-cec" transform="translate(383 470.7) rotate(29.2) scale(0.539 0.509)"/><use href="#chel-cec" transform="translate(404.6 460.4) rotate(55.2) scale(0.613 0.643)"/><use href="#chel-cec" transform="translate(426.6 459.8) rotate(62.2) scale(0.727 0.701)"/><use href="#chel-ceb" transform="translate(447.6 463.7) rotate(68.5) scale(0.708 0.757)"/><use href="#chel-cec" transform="translate(467.3 471.2) rotate(79.2) scale(0.753 0.716)"/><use href="#chel-cec" transform="translate(485.2 481.7) rotate(81.6) scale(0.668 0.706)"/><use href="#chel-cec" transform="translate(501.7 493.6) rotate(81.8) scale(0.632 0.649)"/><use href="#chel-cec" transform="translate(516.7 507.3) rotate(85.8) scale(0.419 0.391)"/><use href="#chel-cecf" transform="translate(530.7 521.8) rotate(88.9) scale(0.273 0.264)"/></g><g fill="#5B7458" color="#4B6349"><use href="#chel-cea" transform="translate(393.5 467.7) rotate(-77.4) scale(0.625 0.660)"/><use href="#chel-cea" transform="translate(414.2 462.5) rotate(-43.5) scale(0.677 0.669)"/><use href="#chel-ceb" transform="translate(435.2 463.9) rotate(-27.5) scale(0.697 0.646)"/><use href="#chel-ceb" transform="translate(455.4 469.1) rotate(-17.6) scale(0.699 0.703)"/><use href="#chel-ceb" transform="translate(473.9 477.3) rotate(10.3) scale(0.708 0.674)"/><use href="#chel-ceb" transform="translate(491.1 488.3) rotate(17) scale(0.645 0.622)"/><use href="#chel-cec" transform="translate(507 500.8) rotate(21.8) scale(0.513 0.517)"/><use href="#chel-ceb" transform="translate(521.4 514.8) rotate(29.3) scale(0.357 0.341)"/></g><path d="M339.4 602.5C339.4 602.5 339.7 599.8 340 597.9C340.2 596.1 340.5 593.7 340.9 591.4C341.2 589 341.5 586.4 341.8 583.7C342.2 581.1 342.6 578.2 343 575.3C343.4 572.5 343.8 569.5 344.3 566.6C344.7 563.7 345.2 560.7 345.7 558C346.2 555.2 346.7 552.6 347.2 550C347.7 547.5 348.3 545 348.8 542.7C349.4 540.4 349.9 538.3 350.5 536.1C351 534 351.6 532 352.2 530C352.8 528 353.4 525.9 354 524C354.7 522 355.3 520.1 356 518.2C356.7 516.3 357.4 514.4 358.1 512.6C358.8 510.8 359.6 509 360.4 507.3C361.3 505.6 362.2 503.9 363.1 502.2C364 500.6 365 498.9 366 497.3C367 495.7 368.1 494 369.2 492.4C370.4 490.8 371.5 489.2 372.7 487.6C373.9 486 375.2 484.4 376.5 482.9C377.7 481.4 379 479.9 380.4 478.5C381.8 477.1 383.2 475.7 384.6 474.5C386 473.2 387.5 472 389 470.9C390.5 469.9 392.1 468.9 393.7 468C395.3 467.2 396.9 466.4 398.6 465.8C400.4 465.1 402.2 464.6 404.1 464.2C406 463.8 407.9 463.5 410 463.3C412 463 414.1 462.9 416.3 462.8C418.5 462.8 420.7 462.8 422.9 462.9C425.1 463 427.4 463.2 429.7 463.4C431.9 463.7 434.2 464 436.5 464.4C438.7 464.7 440.9 465.2 443.1 465.6C445.3 466.1 447.4 466.7 449.6 467.3C451.7 468 453.9 468.7 456 469.4C458.1 470.2 460.2 471.1 462.3 472C464.4 472.9 466.6 474 468.7 475C470.8 476.1 472.9 477.3 475.1 478.5C477.2 479.7 479.3 480.9 481.4 482.2C483.4 483.5 485.5 484.9 487.5 486.2C489.6 487.6 491.5 488.9 493.5 490.3C495.5 491.7 497.5 493.1 499.5 494.7C501.4 496.2 503.5 497.9 505.5 499.6C507.5 501.4 509.5 503.1 511.5 505C513.6 507 515.9 509.2 517.9 511.3C519.9 513.3 522 515.4 523.7 517.2C525.4 518.9 526.9 520.5 528.1 521.8C529.3 523.1 530.4 524.5 531 524.9C531.7 525.3 532.1 524.9 531.8 524.3C531.4 523.6 530.1 522.4 528.9 521.1C527.7 519.7 526.3 518.1 524.6 516.3C522.9 514.5 520.9 512.4 518.9 510.3C516.9 508.2 514.6 505.9 512.6 504C510.5 502 508.6 500.2 506.5 498.4C504.5 496.6 502.5 494.9 500.5 493.3C498.6 491.7 496.6 490.2 494.6 488.8C492.7 487.3 490.7 486 488.7 484.6C486.6 483.2 484.6 481.8 482.5 480.4C480.4 479.1 478.3 477.8 476.2 476.5C474.1 475.3 471.9 474.1 469.8 472.9C467.7 471.8 465.5 470.7 463.3 469.7C461.2 468.7 459.1 467.8 456.9 467C454.8 466.1 452.6 465.4 450.4 464.7C448.2 464 446 463.4 443.7 462.8C441.5 462.3 439.3 461.8 437 461.4C434.7 461 432.4 460.6 430 460.3C427.7 460 425.4 459.8 423.1 459.6C420.8 459.5 418.5 459.4 416.2 459.4C414 459.4 411.7 459.5 409.6 459.7C407.4 460 405.4 460.2 403.3 460.6C401.3 461.1 399.3 461.6 397.4 462.2C395.5 462.9 393.6 463.7 391.8 464.6C390.1 465.5 388.4 466.5 386.7 467.6C385.1 468.7 383.4 470 381.9 471.3C380.3 472.6 378.8 474 377.4 475.5C375.9 477 374.5 478.5 373.1 480.1C371.7 481.6 370.4 483.2 369.2 484.8C367.9 486.4 366.6 488.1 365.4 489.7C364.3 491.3 363.1 493 362 494.7C360.9 496.4 359.8 498.1 358.8 499.8C357.8 501.5 356.8 503.3 355.9 505.1C355 506.9 354.2 508.7 353.3 510.6C352.5 512.5 351.8 514.4 351 516.3C350.3 518.3 349.6 520.3 348.9 522.3C348.2 524.3 347.6 526.3 346.9 528.4C346.3 530.4 345.6 532.5 345 534.6C344.4 536.8 343.8 538.9 343.2 541.3C342.6 543.7 342 546.2 341.4 548.8C340.8 551.4 340.3 554.1 339.7 556.9C339.2 559.7 338.7 562.7 338.2 565.6C337.7 568.5 337.2 571.5 336.8 574.4C336.3 577.3 335.9 580.2 335.5 582.8C335.1 585.5 334.7 588.1 334.4 590.4C334 592.8 333.6 595.1 333.4 597C333.1 598.8 332.6 601.5 332.6 601.5C332.6 601.5 339.4 602.5 339.4 602.5Z" fill="#A5B296"/><path d="M344.5 563.6Q342.1 560.7 338.9 562.6M360.1 507.5Q359 504.4 355.9 505.6" fill="none" stroke="#6A7E60" stroke-width="3" stroke-linecap="round"/><g fill="#5B7458" color="#4B6349"><use href="#chel-ceb" transform="translate(205.4 484.2) rotate(129.9) scale(0.584 -0.552)"/><use href="#chel-ceb" transform="translate(184.7 481.5) rotate(117) scale(0.626 -0.646)"/><use href="#chel-cec" transform="translate(164.9 484.3) rotate(112.8) scale(0.702 -0.701)"/><use href="#chel-cec" transform="translate(146 489.6) rotate(106.7) scale(0.728 -0.723)"/><use href="#chel-ceb" transform="translate(128.4 497.3) rotate(103.4) scale(0.681 -0.642)"/><use href="#chel-cec" transform="translate(111.9 506.8) rotate(101) scale(0.598 -0.602)"/><use href="#chel-cec" transform="translate(96.8 518.1) rotate(95.4) scale(0.501 -0.502)"/><use href="#chel-cecf" transform="translate(83.4 531.2) rotate(92.6) scale(0.339 -0.356)"/></g><g fill="#7F9273" color="#6A7E60"><use href="#chel-cea" transform="translate(213.3 492.2) rotate(-94.8) scale(0.517 -0.513)"/><use href="#chel-cea" transform="translate(194.2 484.8) rotate(-131.2) scale(0.603 -0.616)"/><use href="#chel-ceb" transform="translate(174.6 485.4) rotate(-151.2) scale(0.632 -0.596)"/><use href="#chel-ceb" transform="translate(155.6 489.5) rotate(-161.6) scale(0.714 -0.766)"/><use href="#chel-ceb" transform="translate(137.6 496) rotate(-167) scale(0.668 -0.686)"/><use href="#chel-ceb" transform="translate(120.7 503.8) rotate(166.6) scale(0.611 -0.591)"/><use href="#chel-cec" transform="translate(104.9 514) rotate(157.1) scale(0.556 -0.582)"/><use href="#chel-cec" transform="translate(90.9 526.2) rotate(150) scale(0.389 -0.417)"/><use href="#chel-cecf" transform="translate(78 539.6) rotate(145.1) scale(0.241 -0.254)"/></g><path d="M263.2 601.3C263.2 601.3 262.7 598.9 262.3 597.3C262 595.6 261.5 593.5 261.1 591.4C260.7 589.3 260.2 587 259.7 584.6C259.2 582.2 258.7 579.6 258.1 577C257.6 574.4 257 571.7 256.4 569.1C255.8 566.5 255.2 563.8 254.6 561.2C253.9 558.7 253.3 556.3 252.6 554C252 551.6 251.3 549.4 250.7 547.2C250.1 545.1 249.4 543.1 248.8 541.1C248.1 539.1 247.5 537.2 246.8 535.3C246.1 533.4 245.5 531.5 244.8 529.6C244.1 527.7 243.4 525.9 242.6 524C241.9 522.2 241.1 520.5 240.3 518.7C239.5 517 238.7 515.3 237.8 513.7C236.9 512 235.9 510.5 234.9 509C234 507.4 232.9 506 231.9 504.6C230.8 503.2 229.7 501.9 228.5 500.6C227.3 499.3 226.1 498.1 224.9 496.9C223.7 495.7 222.4 494.5 221.1 493.4C219.8 492.3 218.5 491.3 217.1 490.3C215.7 489.3 214.3 488.4 212.8 487.6C211.3 486.7 209.8 486 208.3 485.3C206.7 484.6 205.1 484 203.5 483.5C201.8 483 200.1 482.5 198.4 482.2C196.6 481.9 194.7 481.7 192.9 481.5C191 481.4 189 481.4 187.1 481.4C185.1 481.4 183 481.6 180.9 481.8C178.9 482 176.8 482.2 174.7 482.5C172.5 482.9 170.4 483.3 168.3 483.7C166.1 484.1 164 484.6 161.9 485.1C159.8 485.7 157.7 486.2 155.7 486.8C153.6 487.4 151.6 488 149.6 488.7C147.6 489.4 145.6 490.1 143.6 490.9C141.6 491.6 139.7 492.4 137.7 493.3C135.7 494.1 133.7 495.1 131.8 496C129.8 497 127.8 498 125.9 499C123.9 500.1 122 501.2 120.1 502.3C118.1 503.4 116.2 504.6 114.4 505.8C112.5 506.9 110.7 508.1 108.9 509.4C107.1 510.6 105.3 511.9 103.5 513.3C101.7 514.7 99.8 516.3 98 517.9C96.2 519.5 94.4 521.1 92.5 522.9C90.7 524.7 88.6 526.8 86.8 528.6C85 530.5 83.2 532.4 81.7 534.1C80.2 535.7 78.8 537.2 77.7 538.4C76.7 539.6 75.5 540.7 75.2 541.3C74.9 541.9 75.4 542.3 75.9 542C76.5 541.6 77.5 540.3 78.6 539.1C79.7 538 81 536.5 82.6 534.9C84.1 533.3 86 531.4 87.8 529.6C89.6 527.7 91.7 525.7 93.6 523.9C95.4 522.2 97.2 520.6 99.1 519.1C100.9 517.5 102.7 516.1 104.5 514.7C106.3 513.3 108.1 512.1 109.9 510.9C111.7 509.7 113.6 508.6 115.4 507.4C117.3 506.3 119.2 505.2 121.1 504.1C123 503 124.9 502 126.9 501C128.8 500 130.8 499 132.8 498.1C134.7 497.2 136.7 496.3 138.7 495.5C140.6 494.7 142.5 494 144.5 493.3C146.5 492.6 148.4 491.9 150.4 491.3C152.4 490.7 154.4 490.1 156.4 489.5C158.5 489 160.5 488.5 162.6 488C164.6 487.5 166.8 487.1 168.9 486.7C170.9 486.3 173 486 175.1 485.7C177.2 485.4 179.2 485.2 181.2 485.1C183.2 484.9 185.2 484.8 187.1 484.8C189 484.8 190.8 484.9 192.6 485.1C194.3 485.2 196 485.5 197.6 485.8C199.3 486.1 200.8 486.6 202.3 487.1C203.8 487.6 205.2 488.2 206.6 488.8C208.1 489.5 209.4 490.3 210.8 491.1C212.1 491.9 213.4 492.8 214.7 493.7C215.9 494.6 217.1 495.6 218.3 496.7C219.5 497.7 220.7 498.9 221.8 500C222.9 501.2 224 502.3 225.1 503.6C226.2 504.8 227.2 506.1 228.1 507.4C229.1 508.7 230 510.1 230.9 511.5C231.8 513 232.7 514.4 233.5 516C234.3 517.5 235 519.1 235.8 520.8C236.5 522.4 237.2 524.2 237.9 526C238.5 527.7 239.2 529.5 239.8 531.4C240.5 533.2 241.1 535.1 241.7 537C242.3 538.9 242.9 540.8 243.5 542.8C244.1 544.7 244.7 546.7 245.3 548.8C245.9 550.9 246.5 553.2 247.1 555.5C247.7 557.8 248.3 560.1 248.8 562.6C249.4 565.1 250 567.8 250.5 570.4C251.1 573 251.6 575.7 252.1 578.2C252.6 580.8 253.1 583.4 253.6 585.8C254 588.2 254.5 590.5 254.9 592.6C255.3 594.8 255.7 596.9 256 598.5C256.3 600.2 256.8 602.7 256.8 602.7C256.8 602.7 263.2 601.3 263.2 601.3Z" fill="#A5B296"/><path d="M251.1 549.3Q247.9 547.7 246.1 550.8" fill="none" stroke="#6A7E60" stroke-width="3" stroke-linecap="round"/><ellipse cx="300" cy="755" rx="104" ry="8" fill="#D8DCD9"/><clipPath id="chel-pc1"><path d="M207 616 L226 738 Q228 751 242 752 Q300 759 358 752 Q372 751 374 738 L393 616Z"/></clipPath><path d="M207 616 L226 738 Q228 751 242 752 Q300 759 358 752 Q372 751 374 738 L393 616Z" fill="#B96E4A"/><g clip-path="url(#chel-pc1)"><path d="M348.4 616 Q343.4 684 329.4 762 L500 762 L500 616Z" fill="#AD6646"/><path d="M100 690.8 Q300 706.8 500 690.8" fill="none" stroke="#A96445" stroke-width="4"/><clipPath id="chel-ps2"><path d="M348.4 616 Q343.4 684 329.4 762 L500 762 L500 616Z"/></clipPath><path d="M100 690.8 Q300 706.8 500 690.8" fill="none" stroke="#A25F42" stroke-width="4" clip-path="url(#chel-ps2)"/><clipPath id="chel-pt3"><path d="M100 610 H500 V626 Q300 638 100 626Z"/></clipPath><clipPath id="chel-pt4"><path d="M348.4 616 Q343.4 684 329.4 762 L500 762 L500 616Z"/></clipPath><path d="M100 610 H500 V626 Q300 638 100 626Z" fill="#AA6445"/><path d="M100 610 H500 V626 Q300 638 100 626Z" fill="#A35F43" clip-path="url(#chel-pt4)"/><path d="M234.9 630 Q245.4 684 256.6 740" fill="none" stroke="#CA8662" stroke-width="7" stroke-linecap="round"/><path d="M234.9 630 Q245.4 684 256.6 740" fill="none" stroke="#C38260" stroke-width="7" stroke-linecap="round" clip-path="url(#chel-pt3)"/></g><clipPath id="chel-rs6"><path d="M355 566 Q362 618 350 648 L500 648 L500 566Z"/></clipPath><clipPath id="chel-rc5"><path d="M200 586 A100 15 0 0 0 400 586 L398.5 613 Q398 618 391 619 Q300 636 209 619 Q202 618 201.5 613Z"/></clipPath><path d="M200 586 A100 15 0 0 0 400 586 L398.5 613 Q398 618 391 619 Q300 636 209 619 Q202 618 201.5 613Z" fill="#CB825D"/><g clip-path="url(#chel-rc5)"><path d="M355 566 Q362 618 350 648 L500 648 L500 566Z" fill="#C17753"/><path d="M222 598 L220 614" stroke="#D3906C" stroke-width="6" stroke-linecap="round"/><path d="M195 587 A105 16 0 0 0 405 587" fill="none" stroke="#D59470" stroke-width="5"/><path d="M195 587 A105 16 0 0 0 405 587" fill="none" stroke="#D2916D" stroke-width="5" clip-path="url(#chel-rs6)"/></g>
</svg>
