<svg xmlns="http://www.w3.org/2000/svg" width="600" height="800" viewBox="0 0 600 800">
<title>Hoya carnosa (wax plant)</title>
<defs><clipPath id="hoca-hfc"><path d="M0 -13Q2.1 -10.2 3.8 -5.3Q9.1 -5.2 12.4 -4Q10.4 -1.1 6.2 2Q7.8 7 7.6 10.5Q4.3 9.6 0 6.5Q-4.3 9.6 -7.6 10.5Q-7.8 7 -6.2 2Q-10.4 -1.1 -12.4 -4Q-9.1 -5.2 -3.8 -5.3Q-2.1 -10.2 0 -13Z"/></clipPath><g id="hoca-hf"><path d="M0 -13Q2.1 -10.2 3.8 -5.3Q9.1 -5.2 12.4 -4Q10.4 -1.1 6.2 2Q7.8 7 7.6 10.5Q4.3 9.6 0 6.5Q-4.3 9.6 -7.6 10.5Q-7.8 7 -6.2 2Q-10.4 -1.1 -12.4 -4Q-9.1 -5.2 -3.8 -5.3Q-2.1 -10.2 0 -13Z" fill="#ECD6CD"/><path d="M0 -14L14 -14L14 14L0 14Z" transform="rotate(-20)" fill="#E4C3BB" clip-path="url(#hoca-hfc)"/><path d="M3.8 -5.3Q3.5 -3.2 3 -1Q4.7 0.5 6.2 2Q4.1 2.3 1.8 2.5Q0.9 4.7 0 6.5Q-0.9 4.7 -1.8 2.5Q-4.1 2.3 -6.2 2Q-4.7 0.5 -3 -1Q-3.5 -3.2 -3.8 -5.3Q-2 -4.3 0 -3.1Q2 -4.3 3.8 -5.3Z" fill="#B95850"/><circle r="2.6" fill="#5E3A40"/></g><g id="hoca-hfb"><path d="M0 -13Q2.1 -10.2 3.8 -5.3Q9.1 -5.2 12.4 -4Q10.4 -1.1 6.2 2Q7.8 7 7.6 10.5Q4.3 9.6 0 6.5Q-4.3 9.6 -7.6 10.5Q-7.8 7 -6.2 2Q-10.4 -1.1 -12.4 -4Q-9.1 -5.2 -3.8 -5.3Q-2.1 -10.2 0 -13Z" fill="#DDB0AA"/><path d="M3.8 -5.3Q3.5 -3.2 3 -1Q4.7 0.5 6.2 2Q4.1 2.3 1.8 2.5Q0.9 4.7 0 6.5Q-0.9 4.7 -1.8 2.5Q-4.1 2.3 -6.2 2Q-4.7 0.5 -3 -1Q-3.5 -3.2 -3.8 -5.3Q-2 -4.3 0 -3.1Q2 -4.3 3.8 -5.3Z" fill="#74464D"/></g><path id="hoca-hp1" d="M0 0C1.8 0 3.4 -0.6 5.4 -1.8C7.4 -3 10.2 -4.6 11.9 -7.1C13.7 -9.5 15.1 -13.1 15.9 -16.4C16.7 -19.7 16.9 -23.3 16.8 -26.9C16.7 -30.4 16.1 -34.1 15.2 -37.5C14.4 -40.9 12.9 -44.4 11.6 -47.2C10.3 -50.1 8.5 -52.6 7.2 -54.5C6 -56.3 4.9 -57.3 4.2 -58.2C3.5 -59.1 3 -60 3 -60C3 -60 2.3 -59.2 1.4 -58.5C0.6 -57.7 -0.7 -56.9 -2.2 -55.3C-3.8 -53.7 -6 -51.4 -7.8 -48.8C-9.5 -46.1 -11.5 -42.7 -12.8 -39.3C-14.1 -35.9 -15.1 -32 -15.5 -28.3C-16 -24.7 -16 -20.7 -15.4 -17.2C-14.8 -13.7 -13.5 -9.9 -11.8 -7.3C-10.2 -4.8 -7.4 -3 -5.4 -1.8C-3.4 -0.6 -1.8 0 0 0Z"/><clipPath id="hoca-hk1"><use href="#hoca-hp1"/></clipPath><g id="hoca-hl0"><use href="#hoca-hp1" fill="#5B7458"/><g clip-path="url(#hoca-hk1)"><path d="M0.1 12L0.1 -12L0.6 -27L1.5 -42L2.4 -54L4.3 -72L40.1 -67.7L38.3 -50.8L37.4 -39.5L36.6 -25.4L36.1 -11.3L36.1 11.3Z" fill="#4B6349"/><path d="M-9.2 -12.2C-9.2 -12.2 -10.4 -18.5 -10.4 -22C-10.5 -25.5 -10.1 -29.5 -9.5 -33C-8.9 -36.4 -7 -42.6 -7 -42.6C-7 -42.6 -5 -40 -4.8 -37.6C-4.7 -35.1 -5.9 -31.1 -6.2 -27.9C-6.4 -24.7 -5.8 -20.8 -6.3 -18.2C-6.8 -15.6 -9.2 -12.2 -9.2 -12.2Z" fill="#75896F"/><path d="M-2 0Q-0.9 -27 2.2 -51.6Q2.1 -27 2 0Z" fill="#899B82"/></g></g><path id="hoca-hp2" d="M0 0C1.8 0 3.4 -0.6 5.4 -1.8C7.4 -3 10.2 -4.8 11.8 -7.3C13.5 -9.9 14.8 -13.7 15.4 -17.2C16 -20.7 16 -24.7 15.5 -28.3C15.1 -32 14.1 -35.9 12.8 -39.3C11.5 -42.7 9.5 -46.1 7.8 -48.8C6 -51.4 3.8 -53.7 2.2 -55.3C0.7 -56.9 -0.6 -57.7 -1.4 -58.5C-2.3 -59.2 -3 -60 -3 -60C-3 -60 -3.5 -59.1 -4.2 -58.2C-4.9 -57.3 -6 -56.3 -7.2 -54.5C-8.5 -52.6 -10.3 -50.1 -11.6 -47.2C-12.9 -44.4 -14.4 -40.9 -15.2 -37.5C-16.1 -34.1 -16.7 -30.4 -16.8 -26.9C-16.9 -23.3 -16.7 -19.7 -15.9 -16.4C-15.1 -13.1 -13.7 -9.5 -11.9 -7.1C-10.2 -4.6 -7.4 -3 -5.4 -1.8C-3.4 -0.6 -1.8 0 0 0Z"/><clipPath id="hoca-hk2"><use href="#hoca-hp2"/></clipPath><g id="hoca-hl1"><use href="#hoca-hp2" fill="#314B37"/><g clip-path="url(#hoca-hk2)"><path d="M-0.1 12L-0.1 -12L-0.6 -27L-1.5 -42L-2.4 -54L-4.3 -72L31.4 -76.3L33.4 -57.2L34.4 -44.5L35.4 -28.6L35.9 -12.7L35.9 12.7Z" fill="#27392C"/><path d="M-9.5 -11.8C-9.5 -11.8 -10.9 -17.9 -11.2 -21.2C-11.5 -24.5 -11.4 -28.5 -11.2 -31.8C-11 -35.2 -9.9 -41.4 -9.9 -41.4C-9.9 -41.4 -7.5 -39.2 -7.1 -36.8C-6.7 -34.5 -7.5 -30.5 -7.4 -27.3C-7.4 -24.1 -6.5 -20.4 -6.9 -17.8C-7.2 -15.2 -9.5 -11.8 -9.5 -11.8Z" fill="#526753"/><path d="M-2.5 0Q-2.5 -27 -2.2 -51.6Q1.3 -27 2.5 0Z" fill="#71846F"/></g></g><path id="hoca-hp3" d="M0 0C2.2 0 4.1 -0.6 6.5 -1.8C8.9 -3 12.2 -4.7 14.3 -7.1C16.3 -9.6 18 -13.2 18.9 -16.6C19.8 -19.9 19.9 -23.7 19.7 -27.2C19.4 -30.8 18.5 -34.6 17.3 -38C16.1 -41.4 14.2 -44.8 12.4 -47.6C10.7 -50.4 8.3 -52.9 6.7 -54.7C5.1 -56.5 3.7 -57.4 2.8 -58.3C1.9 -59.1 1.2 -60 1.2 -60C1.2 -60 0.4 -59.2 -0.5 -58.4C-1.5 -57.6 -3 -56.8 -4.7 -55.1C-6.4 -53.4 -8.9 -51.1 -10.9 -48.4C-12.8 -45.7 -15 -42.2 -16.4 -38.8C-17.7 -35.4 -18.8 -31.6 -19.2 -28C-19.6 -24.3 -19.5 -20.5 -18.7 -17C-17.9 -13.6 -16.3 -9.8 -14.2 -7.3C-12.2 -4.7 -8.9 -3 -6.5 -1.8C-4.1 -0.6 -2.2 0 0 0Z"/><clipPath id="hoca-hk3"><use href="#hoca-hp3"/></clipPath><g id="hoca-hl2"><use href="#hoca-hp3" fill="#7F9273"/><g clip-path="url(#hoca-hk3)"><path d="M0 12L0 -12L0.2 -27L0.6 -42L1 -54L1.7 -72L-34.2 -73.7L-35 -55.3L-35.4 -43L-35.8 -27.6L-36 -12.3L-36 12.3Z" fill="#6A7E60"/><path d="M11.3 -11.9C11.3 -11.9 12.9 -18 13.1 -21.4C13.4 -24.8 13.2 -28.7 12.8 -32.1C12.4 -35.5 10.7 -41.7 10.7 -41.7C10.7 -41.7 8 -39.4 7.7 -37C7.3 -34.6 8.4 -30.6 8.4 -27.4C8.5 -24.3 7.6 -20.5 8 -17.9C8.5 -15.3 11.3 -11.9 11.3 -11.9Z" fill="#93A185"/><path d="M10.4 -29.7C10.4 -30.7 11.3 -31.6 12.3 -31.6C13.4 -31.6 14.2 -30.7 14.2 -29.7C14.2 -28.6 13.4 -27.8 12.3 -27.8C11.3 -27.8 10.4 -28.6 10.4 -29.7ZM-7.2 -44.3C-7.2 -45.2 -6.4 -46 -5.5 -46C-4.6 -46 -3.8 -45.2 -3.8 -44.3C-3.8 -43.4 -4.6 -42.6 -5.5 -42.6C-6.4 -42.6 -7.2 -43.4 -7.2 -44.3ZM8.1 -16.4C8.1 -17.4 8.9 -18.3 10 -18.3C11 -18.3 11.9 -17.4 11.9 -16.4C11.9 -15.3 11 -14.5 10 -14.5C8.9 -14.5 8.1 -15.3 8.1 -16.4ZM-9.1 -24.8C-9.1 -25.7 -8.3 -26.5 -7.4 -26.5C-6.5 -26.5 -5.7 -25.7 -5.7 -24.8C-5.7 -23.9 -6.5 -23.1 -7.4 -23.1C-8.3 -23.1 -9.1 -23.9 -9.1 -24.8Z" fill="#A5AF95"/><path d="M-1.5 0Q-0.9 -27 0.9 -51.6Q1.4 -27 1.5 0Z" fill="#9EAD92"/></g></g><g id="hoca-hl3"><use href="#hoca-hp1" fill="#405D43"/><g clip-path="url(#hoca-hk1)"><path d="M0.1 12L0.1 -12L0.6 -27L1.5 -42L2.4 -54L4.3 -72L40.1 -67.7L38.3 -50.8L37.4 -39.5L36.6 -25.4L36.1 -11.3L36.1 11.3Z" fill="#34503A"/><path d="M-9.2 -12.2C-9.2 -12.2 -10.4 -18.5 -10.4 -22C-10.5 -25.5 -10.1 -29.5 -9.5 -33C-8.9 -36.4 -7 -42.6 -7 -42.6C-7 -42.6 -5 -40 -4.8 -37.6C-4.7 -35.1 -5.9 -31.1 -6.2 -27.9C-6.4 -24.7 -5.8 -20.8 -6.3 -18.2C-6.8 -15.6 -9.2 -12.2 -9.2 -12.2Z" fill="#5F755D"/><path d="M-2 0Q-0.9 -27 2.2 -51.6Q2.1 -27 2 0Z" fill="#7A8E76"/></g></g><path id="hoca-hp0" d="M0 0C2 0 3.8 -0.6 6 -1.8C8.2 -3 11.3 -4.7 13.2 -7.2C15.1 -9.7 16.6 -13.4 17.4 -16.8C18.2 -20.2 18.3 -24 18 -27.6C17.7 -31.2 16.8 -35 15.6 -38.4C14.4 -41.8 12.5 -45.2 10.8 -48C9.1 -50.8 6.8 -53.2 5.3 -54.9C3.7 -56.6 2.4 -57.5 1.6 -58.3C0.7 -59.2 0 -60 0 -60C0 -60 -0.7 -59.2 -1.6 -58.3C-2.4 -57.5 -3.7 -56.6 -5.3 -54.9C-6.8 -53.2 -9.1 -50.8 -10.8 -48C-12.5 -45.2 -14.4 -41.8 -15.6 -38.4C-16.8 -35 -17.7 -31.2 -18 -27.6C-18.3 -24 -18.2 -20.2 -17.4 -16.8C-16.6 -13.4 -15.1 -9.7 -13.2 -7.2C-11.3 -4.7 -8.2 -3 -6 -1.8C-3.8 -0.6 -2 0 0 0Z"/><clipPath id="hoca-hk0"><use href="#hoca-hp0"/></clipPath><g id="hoca-hl4"><use href="#hoca-hp0" fill="#405D43"/><g clip-path="url(#hoca-hk0)"><path d="M0 12L0 -12L0 -27L0 -42L0 -54L0 -72L-36 -72L-36 -54L-36 -42L-36 -27L-36 -12L-36 12Z" fill="#34503A"/><path d="M10.4 -12C10.4 -12 11.8 -18.2 12 -21.6C12.2 -25 12 -29 11.5 -32.4C11.1 -35.8 9.4 -42 9.4 -42C9.4 -42 7 -39.6 6.7 -37.2C6.4 -34.8 7.4 -30.8 7.6 -27.6C7.7 -24.4 6.9 -20.6 7.3 -18C7.8 -15.4 10.4 -12 10.4 -12Z" fill="#5F755D"/><path d="M-1.5 0Q-1.1 -27 0 -51.6Q1.1 -27 1.5 0Z" fill="#7A8E76"/></g></g><g id="hoca-hl5"><use href="#hoca-hp2" fill="#314B37"/><g clip-path="url(#hoca-hk2)"><path d="M-0.1 12L-0.1 -12L-0.6 -27L-1.5 -42L-2.4 -54L-4.3 -72L31.4 -76.3L33.4 -57.2L34.4 -44.5L35.4 -28.6L35.9 -12.7L35.9 12.7Z" fill="#27392C"/><path d="M-9.5 -11.8C-9.5 -11.8 -10.9 -17.9 -11.2 -21.2C-11.5 -24.5 -11.4 -28.5 -11.2 -31.8C-11 -35.2 -9.9 -41.4 -9.9 -41.4C-9.9 -41.4 -7.5 -39.2 -7.1 -36.8C-6.7 -34.5 -7.5 -30.5 -7.4 -27.3C-7.4 -24.1 -6.5 -20.4 -6.9 -17.8C-7.2 -15.2 -9.5 -11.8 -9.5 -11.8Z" fill="#526753"/><path d="M-2.2 0Q-2.3 -27 -2.2 -51.6Q1.1 -27 2.2 0Z" fill="#71846F"/></g></g><g id="hoca-hl6"><use href="#hoca-hp2" fill="#A5B296"/><g clip-path="url(#hoca-hk2)"><path d="M-0.1 12L-0.1 -12L-0.6 -27L-1.5 -42L-2.4 -54L-4.3 -72L31.4 -76.3L33.4 -57.2L34.4 -44.5L35.4 -28.6L35.9 -12.7L35.9 12.7Z" fill="#8E9E80"/><path d="M-9.5 -11.8C-9.5 -11.8 -10.9 -17.9 -11.2 -21.2C-11.5 -24.5 -11.4 -28.5 -11.2 -31.8C-11 -35.2 -9.9 -41.4 -9.9 -41.4C-9.9 -41.4 -7.5 -39.2 -7.1 -36.8C-6.7 -34.5 -7.5 -30.5 -7.4 -27.3C-7.4 -24.1 -6.5 -20.4 -6.9 -17.8C-7.2 -15.2 -9.5 -11.8 -9.5 -11.8Z" fill="#B3BCA2"/><path d="M-11 -27.5C-11 -28.6 -10.1 -29.5 -8.9 -29.5C-7.8 -29.5 -6.9 -28.6 -6.9 -27.5C-6.9 -26.4 -7.8 -25.5 -8.9 -25.5C-10.1 -25.5 -11 -26.4 -11 -27.5ZM6.7 -36.6C6.7 -37.8 7.8 -38.8 9 -38.8C10.2 -38.8 11.2 -37.8 11.2 -36.6C11.2 -35.3 10.2 -34.3 9 -34.3C7.8 -34.3 6.7 -35.3 6.7 -36.6ZM7.2 -13C7.2 -14.2 8.1 -15.2 9.3 -15.2C10.5 -15.2 11.5 -14.2 11.5 -13C11.5 -11.8 10.5 -10.8 9.3 -10.8C8.1 -10.8 7.2 -11.8 7.2 -13ZM-8.3 -10.6C-8.3 -11.8 -7.3 -12.7 -6.2 -12.7C-5 -12.7 -4.1 -11.8 -4.1 -10.6C-4.1 -9.5 -5 -8.5 -6.2 -8.5C-7.3 -8.5 -8.3 -9.5 -8.3 -10.6Z" fill="#BDC3AB"/><path d="M-1.8 0Q-1.9 -27 -2.2 -51.6Q0.7 -27 1.8 0Z" fill="#B4BFA6"/></g></g><g id="hoca-hl7"><use href="#hoca-hp1" fill="#405D43"/><g clip-path="url(#hoca-hk1)"><path d="M0.1 12L0.1 -12L0.6 -27L1.5 -42L2.4 -54L4.3 -72L40.1 -67.7L38.3 -50.8L37.4 -39.5L36.6 -25.4L36.1 -11.3L36.1 11.3Z" fill="#34503A"/><path d="M-9.2 -12.2C-9.2 -12.2 -10.4 -18.5 -10.4 -22C-10.5 -25.5 -10.1 -29.5 -9.5 -33C-8.9 -36.4 -7 -42.6 -7 -42.6C-7 -42.6 -5 -40 -4.8 -37.6C-4.7 -35.1 -5.9 -31.1 -6.2 -27.9C-6.4 -24.7 -5.8 -20.8 -6.3 -18.2C-6.8 -15.6 -9.2 -12.2 -9.2 -12.2Z" fill="#5F755D"/><path d="M-2.5 0Q-1.3 -27 2.2 -51.6Q2.5 -27 2.5 0Z" fill="#7A8E76"/></g></g><g id="hoca-hl8"><use href="#hoca-hp1" fill="#5B7458"/><g clip-path="url(#hoca-hk1)"><path d="M0.1 12L0.1 -12L0.6 -27L1.5 -42L2.4 -54L4.3 -72L40.1 -67.7L38.3 -50.8L37.4 -39.5L36.6 -25.4L36.1 -11.3L36.1 11.3Z" fill="#4B6349"/><path d="M-9.2 -12.2C-9.2 -12.2 -10.4 -18.5 -10.4 -22C-10.5 -25.5 -10.1 -29.5 -9.5 -33C-8.9 -36.4 -7 -42.6 -7 -42.6C-7 -42.6 -5 -40 -4.8 -37.6C-4.7 -35.1 -5.9 -31.1 -6.2 -27.9C-6.4 -24.7 -5.8 -20.8 -6.3 -18.2C-6.8 -15.6 -9.2 -12.2 -9.2 -12.2Z" fill="#75896F"/><path d="M8.5 -30.1C8.5 -31.3 9.4 -32.2 10.6 -32.2C11.8 -32.2 12.7 -31.3 12.7 -30.1C12.7 -28.9 11.8 -28 10.6 -28C9.4 -28 8.5 -28.9 8.5 -30.1ZM-9.3 -24.1C-9.3 -25.4 -8.3 -26.4 -7.1 -26.4C-5.8 -26.4 -4.8 -25.4 -4.8 -24.1C-4.8 -22.9 -5.8 -21.9 -7.1 -21.9C-8.3 -21.9 -9.3 -22.9 -9.3 -24.1ZM5.2 -41.2C5.2 -42.4 6.2 -43.4 7.4 -43.4C8.6 -43.4 9.6 -42.4 9.6 -41.2C9.6 -40 8.6 -39 7.4 -39C6.2 -39 5.2 -40 5.2 -41.2ZM-10.3 -38.8C-10.3 -39.9 -9.5 -40.7 -8.4 -40.7C-7.3 -40.7 -6.5 -39.9 -6.5 -38.8C-6.5 -37.7 -7.3 -36.8 -8.4 -36.8C-9.5 -36.8 -10.3 -37.7 -10.3 -38.8Z" fill="#8E9C84"/><path d="M-1.8 0Q-0.7 -27 2.2 -51.6Q1.9 -27 1.8 0Z" fill="#899B82"/></g></g><g id="hoca-hl9"><use href="#hoca-hp0" fill="#314B37"/><g clip-path="url(#hoca-hk0)"><path d="M0 12L0 -12L0 -27L0 -42L0 -54L0 -72L-36 -72L-36 -54L-36 -42L-36 -27L-36 -12L-36 12Z" fill="#27392C"/><path d="M10.4 -12C10.4 -12 11.8 -18.2 12 -21.6C12.2 -25 12 -29 11.5 -32.4C11.1 -35.8 9.4 -42 9.4 -42C9.4 -42 7 -39.6 6.7 -37.2C6.4 -34.8 7.4 -30.8 7.6 -27.6C7.7 -24.4 6.9 -20.6 7.3 -18C7.8 -15.4 10.4 -12 10.4 -12Z" fill="#526753"/><path d="M-2.2 0Q-1.7 -27 0 -51.6Q1.7 -27 2.2 0Z" fill="#71846F"/></g></g><g id="hoca-hl10"><use href="#hoca-hp2" fill="#7F9273"/><g clip-path="url(#hoca-hk2)"><path d="M-0.1 12L-0.1 -12L-0.6 -27L-1.5 -42L-2.4 -54L-4.3 -72L-40.1 -67.7L-38.3 -50.8L-37.4 -39.5L-36.6 -25.4L-36.1 -11.3L-36.1 11.3Z" fill="#6A7E60"/><path d="M9.2 -12.2C9.2 -12.2 10.4 -18.5 10.4 -22C10.5 -25.5 10.1 -29.5 9.5 -33C8.9 -36.4 7 -42.6 7 -42.6C7 -42.6 5 -40 4.8 -37.6C4.7 -35.1 5.9 -31.1 6.2 -27.9C6.4 -24.7 5.8 -20.8 6.3 -18.2C6.8 -15.6 9.2 -12.2 9.2 -12.2Z" fill="#93A185"/><path d="M-1.5 0Q-1.7 -27 -2.2 -51.6Q0.5 -27 1.5 0Z" fill="#9EAD92"/></g></g><g id="hoca-hl11"><use href="#hoca-hp1" fill="#405D43"/><g clip-path="url(#hoca-hk1)"><path d="M0.1 12L0.1 -12L0.6 -27L1.5 -42L2.4 -54L4.3 -72L-31.4 -76.3L-33.4 -57.2L-34.4 -44.5L-35.4 -28.6L-35.9 -12.7L-35.9 12.7Z" fill="#34503A"/><path d="M9.5 -11.8C9.5 -11.8 10.9 -17.9 11.2 -21.2C11.5 -24.5 11.4 -28.5 11.2 -31.8C11 -35.2 9.9 -41.4 9.9 -41.4C9.9 -41.4 7.5 -39.2 7.1 -36.8C6.7 -34.5 7.5 -30.5 7.4 -27.3C7.4 -24.1 6.5 -20.4 6.9 -17.8C7.2 -15.2 9.5 -11.8 9.5 -11.8Z" fill="#5F755D"/><path d="M6.2 -43.6C6.2 -45.1 7.4 -46.3 8.8 -46.3C10.3 -46.3 11.5 -45.1 11.5 -43.6C11.5 -42.2 10.3 -41 8.8 -41C7.4 -41 6.2 -42.2 6.2 -43.6ZM4.9 -32.2C4.9 -33.7 6.1 -34.9 7.6 -34.9C9 -34.9 10.2 -33.7 10.2 -32.2C10.2 -30.8 9 -29.6 7.6 -29.6C6.1 -29.6 4.9 -30.8 4.9 -32.2ZM-9.1 -34.6C-9.1 -36.1 -7.9 -37.2 -6.5 -37.2C-5 -37.2 -3.8 -36.1 -3.8 -34.6C-3.8 -33.1 -5 -31.9 -6.5 -31.9C-7.9 -31.9 -9.1 -33.1 -9.1 -34.6ZM-12.3 -21.2C-12.3 -22.5 -11.3 -23.5 -10.1 -23.5C-8.9 -23.5 -7.9 -22.5 -7.9 -21.2C-7.9 -20 -8.9 -19 -10.1 -19C-11.3 -19 -12.3 -20 -12.3 -21.2Z" fill="#7C8D76"/><path d="M-2 0Q-0.9 -27 2.2 -51.6Q2.1 -27 2 0Z" fill="#7A8E76"/></g></g><g id="hoca-hl12"><use href="#hoca-hp3" fill="#405D43"/><g clip-path="url(#hoca-hk3)"><path d="M0 12L0 -12L0.2 -27L0.6 -42L1 -54L1.7 -72L37.7 -70.3L36.9 -52.7L36.6 -41L36.2 -26.4L36 -11.7L36 11.7Z" fill="#34503A"/><path d="M-11.2 -12.1C-11.2 -12.1 -12.7 -18.4 -12.8 -21.8C-13 -25.2 -12.6 -29.3 -12.1 -32.7C-11.5 -36.1 -9.5 -42.3 -9.5 -42.3C-9.5 -42.3 -7 -39.8 -6.7 -37.4C-6.5 -35 -7.7 -31 -7.9 -27.8C-8.1 -24.5 -7.3 -20.7 -7.8 -18.1C-8.4 -15.5 -11.2 -12.1 -11.2 -12.1Z" fill="#5F755D"/><path d="M-12 -35.6C-12 -36.8 -11.1 -37.7 -9.9 -37.7C-8.7 -37.7 -7.8 -36.8 -7.8 -35.6C-7.8 -34.5 -8.7 -33.5 -9.9 -33.5C-11.1 -33.5 -12 -34.5 -12 -35.6ZM5 -15.3C5 -16.5 5.9 -17.4 7.1 -17.4C8.2 -17.4 9.1 -16.5 9.1 -15.3C9.1 -14.2 8.2 -13.3 7.1 -13.3C5.9 -13.3 5 -14.2 5 -15.3ZM7.7 -39C7.7 -40.1 8.6 -41.1 9.8 -41.1C11 -41.1 11.9 -40.1 11.9 -39C11.9 -37.8 11 -36.9 9.8 -36.9C8.6 -36.9 7.7 -37.8 7.7 -39ZM-10.5 -22.5C-10.5 -23.8 -9.5 -24.9 -8.2 -24.9C-6.9 -24.9 -5.9 -23.8 -5.9 -22.5C-5.9 -21.3 -6.9 -20.2 -8.2 -20.2C-9.5 -20.2 -10.5 -21.3 -10.5 -22.5Z" fill="#7C8D76"/><path d="M-1.8 0Q-1.1 -27 0.9 -51.6Q1.6 -27 1.8 0Z" fill="#7A8E76"/></g></g><g id="hoca-hl13"><use href="#hoca-hp2" fill="#5B7458"/><g clip-path="url(#hoca-hk2)"><path d="M-0.1 12L-0.1 -12L-0.6 -27L-1.5 -42L-2.4 -54L-4.3 -72L-40.1 -67.7L-38.3 -50.8L-37.4 -39.5L-36.6 -25.4L-36.1 -11.3L-36.1 11.3Z" fill="#4B6349"/><path d="M9.2 -12.2C9.2 -12.2 10.4 -18.5 10.4 -22C10.5 -25.5 10.1 -29.5 9.5 -33C8.9 -36.4 7 -42.6 7 -42.6C7 -42.6 5 -40 4.8 -37.6C4.7 -35.1 5.9 -31.1 6.2 -27.9C6.4 -24.7 5.8 -20.8 6.3 -18.2C6.8 -15.6 9.2 -12.2 9.2 -12.2Z" fill="#75896F"/><path d="M-2.2 0Q-2.3 -27 -2.2 -51.6Q1.1 -27 2.2 0Z" fill="#899B82"/></g></g><g id="hoca-hl14"><use href="#hoca-hp1" fill="#A5B296"/><g clip-path="url(#hoca-hk1)"><path d="M0.1 12L0.1 -12L0.6 -27L1.5 -42L2.4 -54L4.3 -72L-31.4 -76.3L-33.4 -57.2L-34.4 -44.5L-35.4 -28.6L-35.9 -12.7L-35.9 12.7Z" fill="#8E9E80"/><path d="M9.5 -11.8C9.5 -11.8 10.9 -17.9 11.2 -21.2C11.5 -24.5 11.4 -28.5 11.2 -31.8C11 -35.2 9.9 -41.4 9.9 -41.4C9.9 -41.4 7.5 -39.2 7.1 -36.8C6.7 -34.5 7.5 -30.5 7.4 -27.3C7.4 -24.1 6.5 -20.4 6.9 -17.8C7.2 -15.2 9.5 -11.8 9.5 -11.8Z" fill="#B3BCA2"/><path d="M-2.2 0Q-1.1 -27 2.2 -51.6Q2.3 -27 2.2 0Z" fill="#B4BFA6"/></g></g><g id="hoca-hl15"><use href="#hoca-hp2" fill="#314B37"/><g clip-path="url(#hoca-hk2)"><path d="M-0.1 12L-0.1 -12L-0.6 -27L-1.5 -42L-2.4 -54L-4.3 -72L-40.1 -67.7L-38.3 -50.8L-37.4 -39.5L-36.6 -25.4L-36.1 -11.3L-36.1 11.3Z" fill="#27392C"/><path d="M9.2 -12.2C9.2 -12.2 10.4 -18.5 10.4 -22C10.5 -25.5 10.1 -29.5 9.5 -33C8.9 -36.4 7 -42.6 7 -42.6C7 -42.6 5 -40 4.8 -37.6C4.7 -35.1 5.9 -31.1 6.2 -27.9C6.4 -24.7 5.8 -20.8 6.3 -18.2C6.8 -15.6 9.2 -12.2 9.2 -12.2Z" fill="#526753"/><path d="M-2.8 0Q-2.7 -27 -2.2 -51.6Q1.5 -27 2.8 0Z" fill="#71846F"/></g></g><g id="hoca-hl16"><use href="#hoca-hp2" fill="#5B7458"/><g clip-path="url(#hoca-hk2)"><path d="M-0.1 12L-0.1 -12L-0.6 -27L-1.5 -42L-2.4 -54L-4.3 -72L-40.1 -67.7L-38.3 -50.8L-37.4 -39.5L-36.6 -25.4L-36.1 -11.3L-36.1 11.3Z" fill="#4B6349"/><path d="M9.2 -12.2C9.2 -12.2 10.4 -18.5 10.4 -22C10.5 -25.5 10.1 -29.5 9.5 -33C8.9 -36.4 7 -42.6 7 -42.6C7 -42.6 5 -40 4.8 -37.6C4.7 -35.1 5.9 -31.1 6.2 -27.9C6.4 -24.7 5.8 -20.8 6.3 -18.2C6.8 -15.6 9.2 -12.2 9.2 -12.2Z" fill="#75896F"/><path d="M-2.5 0Q-2.5 -27 -2.2 -51.6Q1.3 -27 2.5 0Z" fill="#899B82"/></g></g><g id="hoca-hl17"><use href="#hoca-hp1" fill="#405D43"/><g clip-path="url(#hoca-hk1)"><path d="M0.1 12L0.1 -12L0.6 -27L1.5 -42L2.4 -54L4.3 -72L-31.4 -76.3L-33.4 -57.2L-34.4 -44.5L-35.4 -28.6L-35.9 -12.7L-35.9 12.7Z" fill="#34503A"/></g></g><g id="hoca-hl18"><use href="#hoca-hp0" fill="#7F9273"/><g clip-path="url(#hoca-hk0)"><path d="M0 12L0 -12L0 -27L0 -42L0 -54L0 -72L36 -72L36 -54L36 -42L36 -27L36 -12L36 12Z" fill="#6A7E60"/></g></g><g id="hoca-hl19"><use href="#hoca-hp0" fill="#5B7458"/><g clip-path="url(#hoca-hk0)"><path d="M0 12L0 -12L0 -27L0 -42L0 -54L0 -72L36 -72L36 -54L36 -42L36 -27L36 -12L36 12Z" fill="#4B6349"/></g></g><g id="hoca-hl20"><use href="#hoca-hp2" fill="#314B37"/><g clip-path="url(#hoca-hk2)"><path d="M-0.1 12L-0.1 -12L-0.6 -27L-1.5 -42L-2.4 -54L-4.3 -72L-40.1 -67.7L-38.3 -50.8L-37.4 -39.5L-36.6 -25.4L-36.1 -11.3L-36.1 11.3Z" fill="#27392C"/><path d="M9.2 -12.2C9.2 -12.2 10.4 -18.5 10.4 -22C10.5 -25.5 10.1 -29.5 9.5 -33C8.9 -36.4 7 -42.6 7 -42.6C7 -42.6 5 -40 4.8 -37.6C4.7 -35.1 5.9 -31.1 6.2 -27.9C6.4 -24.7 5.8 -20.8 6.3 -18.2C6.8 -15.6 9.2 -12.2 9.2 -12.2Z" fill="#526753"/><path d="M-2.5 0Q-2.5 -27 -2.2 -51.6Q1.3 -27 2.5 0Z" fill="#71846F"/></g></g><g id="hoca-hl21"><use href="#hoca-hp3" fill="#A5B296"/><g clip-path="url(#hoca-hk3)"><path d="M0 12L0 -12L0.2 -27L0.6 -42L1 -54L1.7 -72L37.7 -70.3L36.9 -52.7L36.6 -41L36.2 -26.4L36 -11.7L36 11.7Z" fill="#8E9E80"/><path d="M-11.2 -12.1C-11.2 -12.1 -12.7 -18.4 -12.8 -21.8C-13 -25.2 -12.6 -29.3 -12.1 -32.7C-11.5 -36.1 -9.5 -42.3 -9.5 -42.3C-9.5 -42.3 -7 -39.8 -6.7 -37.4C-6.5 -35 -7.7 -31 -7.9 -27.8C-8.1 -24.5 -7.3 -20.7 -7.8 -18.1C-8.4 -15.5 -11.2 -12.1 -11.2 -12.1Z" fill="#B3BCA2"/><path d="M-13.8 -26.9C-13.8 -28.3 -12.7 -29.5 -11.3 -29.5C-9.8 -29.5 -8.7 -28.3 -8.7 -26.9C-8.7 -25.5 -9.8 -24.3 -11.3 -24.3C-12.7 -24.3 -13.8 -25.5 -13.8 -26.9ZM5.9 -31.9C5.9 -33.6 7.2 -34.9 8.9 -34.9C10.5 -34.9 11.8 -33.6 11.8 -31.9C11.8 -30.3 10.5 -29 8.9 -29C7.2 -29 5.9 -30.3 5.9 -31.9ZM4.8 -15.4C4.8 -16.8 5.9 -18 7.3 -18C8.7 -18 9.8 -16.8 9.8 -15.4C9.8 -14.1 8.7 -12.9 7.3 -12.9C5.9 -12.9 4.8 -14.1 4.8 -15.4ZM2.2 -43.9C2.2 -45.6 3.6 -46.9 5.2 -46.9C6.9 -46.9 8.3 -45.6 8.3 -43.9C8.3 -42.3 6.9 -40.9 5.2 -40.9C3.6 -40.9 2.2 -42.3 2.2 -43.9Z" fill="#BDC3AB"/><path d="M-2.2 0Q-1.4 -27 0.9 -51.6Q1.9 -27 2.2 0Z" fill="#B4BFA6"/></g></g><g id="hoca-hl22"><use href="#hoca-hp1" fill="#405D43"/><g clip-path="url(#hoca-hk1)"><path d="M0.1 12L0.1 -12L0.6 -27L1.5 -42L2.4 -54L4.3 -72L-31.4 -76.3L-33.4 -57.2L-34.4 -44.5L-35.4 -28.6L-35.9 -12.7L-35.9 12.7Z" fill="#34503A"/><path d="M9.5 -11.8C9.5 -11.8 10.9 -17.9 11.2 -21.2C11.5 -24.5 11.4 -28.5 11.2 -31.8C11 -35.2 9.9 -41.4 9.9 -41.4C9.9 -41.4 7.5 -39.2 7.1 -36.8C6.7 -34.5 7.5 -30.5 7.4 -27.3C7.4 -24.1 6.5 -20.4 6.9 -17.8C7.2 -15.2 9.5 -11.8 9.5 -11.8Z" fill="#5F755D"/><path d="M-2.8 0Q-1.5 -27 2.2 -51.6Q2.7 -27 2.8 0Z" fill="#7A8E76"/></g></g><g id="hoca-hl23"><use href="#hoca-hp2" fill="#405D43"/><g clip-path="url(#hoca-hk2)"><path d="M-0.1 12L-0.1 -12L-0.6 -27L-1.5 -42L-2.4 -54L-4.3 -72L31.4 -76.3L33.4 -57.2L34.4 -44.5L35.4 -28.6L35.9 -12.7L35.9 12.7Z" fill="#34503A"/><path d="M-9.5 -11.8C-9.5 -11.8 -10.9 -17.9 -11.2 -21.2C-11.5 -24.5 -11.4 -28.5 -11.2 -31.8C-11 -35.2 -9.9 -41.4 -9.9 -41.4C-9.9 -41.4 -7.5 -39.2 -7.1 -36.8C-6.7 -34.5 -7.5 -30.5 -7.4 -27.3C-7.4 -24.1 -6.5 -20.4 -6.9 -17.8C-7.2 -15.2 -9.5 -11.8 -9.5 -11.8Z" fill="#5F755D"/><path d="M-2 0Q-2.1 -27 -2.2 -51.6Q0.9 -27 2 0Z" fill="#7A8E76"/></g></g><g id="hoca-hl24"><use href="#hoca-hp1" fill="#314B37"/><g clip-path="url(#hoca-hk1)"><path d="M0.1 12L0.1 -12L0.6 -27L1.5 -42L2.4 -54L4.3 -72L40.1 -67.7L38.3 -50.8L37.4 -39.5L36.6 -25.4L36.1 -11.3L36.1 11.3Z" fill="#27392C"/><path d="M-9.2 -12.2C-9.2 -12.2 -10.4 -18.5 -10.4 -22C-10.5 -25.5 -10.1 -29.5 -9.5 -33C-8.9 -36.4 -7 -42.6 -7 -42.6C-7 -42.6 -5 -40 -4.8 -37.6C-4.7 -35.1 -5.9 -31.1 -6.2 -27.9C-6.4 -24.7 -5.8 -20.8 -6.3 -18.2C-6.8 -15.6 -9.2 -12.2 -9.2 -12.2Z" fill="#526753"/><path d="M-2.5 0Q-1.3 -27 2.2 -51.6Q2.5 -27 2.5 0Z" fill="#71846F"/></g></g><g id="hoca-hl25"><use href="#hoca-hp1" fill="#7F9273"/><g clip-path="url(#hoca-hk1)"><path d="M0.1 12L0.1 -12L0.6 -27L1.5 -42L2.4 -54L4.3 -72L-31.4 -76.3L-33.4 -57.2L-34.4 -44.5L-35.4 -28.6L-35.9 -12.7L-35.9 12.7Z" fill="#6A7E60"/><path d="M9.5 -11.8C9.5 -11.8 10.9 -17.9 11.2 -21.2C11.5 -24.5 11.4 -28.5 11.2 -31.8C11 -35.2 9.9 -41.4 9.9 -41.4C9.9 -41.4 7.5 -39.2 7.1 -36.8C6.7 -34.5 7.5 -30.5 7.4 -27.3C7.4 -24.1 6.5 -20.4 6.9 -17.8C7.2 -15.2 9.5 -11.8 9.5 -11.8Z" fill="#93A185"/><path d="M8.2 -27.9C8.2 -29.1 9.2 -30.1 10.4 -30.1C11.6 -30.1 12.6 -29.1 12.6 -27.9C12.6 -26.7 11.6 -25.7 10.4 -25.7C9.2 -25.7 8.2 -26.7 8.2 -27.9ZM7.9 -15.2C7.9 -16.4 8.8 -17.3 10 -17.3C11.2 -17.3 12.1 -16.4 12.1 -15.2C12.1 -14 11.2 -13 10 -13C8.8 -13 7.9 -14 7.9 -15.2ZM-5.8 -44C-5.8 -45.1 -4.9 -46.1 -3.7 -46.1C-2.5 -46.1 -1.6 -45.1 -1.6 -44C-1.6 -42.8 -2.5 -41.8 -3.7 -41.8C-4.9 -41.8 -5.8 -42.8 -5.8 -44ZM6.7 -39.4C6.7 -40.5 7.6 -41.4 8.7 -41.4C9.9 -41.4 10.7 -40.5 10.7 -39.4C10.7 -38.3 9.9 -37.4 8.7 -37.4C7.6 -37.4 6.7 -38.3 6.7 -39.4Z" fill="#A5AF95"/><path d="M-1.8 0Q-0.7 -27 2.2 -51.6Q1.9 -27 1.8 0Z" fill="#9EAD92"/></g></g><g id="hoca-hl26"><use href="#hoca-hp2" fill="#405D43"/><g clip-path="url(#hoca-hk2)"><path d="M-0.1 12L-0.1 -12L-0.6 -27L-1.5 -42L-2.4 -54L-4.3 -72L31.4 -76.3L33.4 -57.2L34.4 -44.5L35.4 -28.6L35.9 -12.7L35.9 12.7Z" fill="#34503A"/><path d="M-9.5 -11.8C-9.5 -11.8 -10.9 -17.9 -11.2 -21.2C-11.5 -24.5 -11.4 -28.5 -11.2 -31.8C-11 -35.2 -9.9 -41.4 -9.9 -41.4C-9.9 -41.4 -7.5 -39.2 -7.1 -36.8C-6.7 -34.5 -7.5 -30.5 -7.4 -27.3C-7.4 -24.1 -6.5 -20.4 -6.9 -17.8C-7.2 -15.2 -9.5 -11.8 -9.5 -11.8Z" fill="#5F755D"/><path d="M-2.2 0Q-2.3 -27 -2.2 -51.6Q1.1 -27 2.2 0Z" fill="#7A8E76"/></g></g><g id="hoca-hl27"><use href="#hoca-hp3" fill="#5B7458"/><g clip-path="url(#hoca-hk3)"><path d="M0 12L0 -12L0.2 -27L0.6 -42L1 -54L1.7 -72L37.7 -70.3L36.9 -52.7L36.6 -41L36.2 -26.4L36 -11.7L36 11.7Z" fill="#4B6349"/><path d="M-11.2 -12.1C-11.2 -12.1 -12.7 -18.4 -12.8 -21.8C-13 -25.2 -12.6 -29.3 -12.1 -32.7C-11.5 -36.1 -9.5 -42.3 -9.5 -42.3C-9.5 -42.3 -7 -39.8 -6.7 -37.4C-6.5 -35 -7.7 -31 -7.9 -27.8C-8.1 -24.5 -7.3 -20.7 -7.8 -18.1C-8.4 -15.5 -11.2 -12.1 -11.2 -12.1Z" fill="#75896F"/><path d="M-11.1 -31.5C-11.1 -32.8 -10.1 -33.8 -8.8 -33.8C-7.5 -33.8 -6.4 -32.8 -6.4 -31.5C-6.4 -30.2 -7.5 -29.1 -8.8 -29.1C-10.1 -29.1 -11.1 -30.2 -11.1 -31.5ZM2.8 -10.2C2.8 -11.5 3.8 -12.5 5.1 -12.5C6.3 -12.5 7.3 -11.5 7.3 -10.2C7.3 -9 6.3 -8 5.1 -8C3.8 -8 2.8 -9 2.8 -10.2ZM7.2 -22.1C7.2 -23.2 8.2 -24.2 9.3 -24.2C10.5 -24.2 11.4 -23.2 11.4 -22.1C11.4 -20.9 10.5 -20 9.3 -20C8.2 -20 7.2 -20.9 7.2 -22.1ZM-12.4 -11.3C-12.4 -12.5 -11.5 -13.5 -10.2 -13.5C-9 -13.5 -8.1 -12.5 -8.1 -11.3C-8.1 -10.1 -9 -9.1 -10.2 -9.1C-11.5 -9.1 -12.4 -10.1 -12.4 -11.3Z" fill="#8E9C84"/><path d="M-1.8 0Q-1.1 -27 0.9 -51.6Q1.6 -27 1.8 0Z" fill="#899B82"/></g></g><g id="hoca-hl28"><use href="#hoca-hp0" fill="#405D43"/><g clip-path="url(#hoca-hk0)"><path d="M0 12L0 -12L0 -27L0 -42L0 -54L0 -72L-36 -72L-36 -54L-36 -42L-36 -27L-36 -12L-36 12Z" fill="#34503A"/><path d="M10.4 -12C10.4 -12 11.8 -18.2 12 -21.6C12.2 -25 12 -29 11.5 -32.4C11.1 -35.8 9.4 -42 9.4 -42C9.4 -42 7 -39.6 6.7 -37.2C6.4 -34.8 7.4 -30.8 7.6 -27.6C7.7 -24.4 6.9 -20.6 7.3 -18C7.8 -15.4 10.4 -12 10.4 -12Z" fill="#5F755D"/><path d="M-2.2 0Q-1.7 -27 0 -51.6Q1.7 -27 2.2 0Z" fill="#7A8E76"/></g></g><g id="hoca-hl29"><use href="#hoca-hp2" fill="#A5B296"/><g clip-path="url(#hoca-hk2)"><path d="M-0.1 12L-0.1 -12L-0.6 -27L-1.5 -42L-2.4 -54L-4.3 -72L-40.1 -67.7L-38.3 -50.8L-37.4 -39.5L-36.6 -25.4L-36.1 -11.3L-36.1 11.3Z" fill="#8E9E80"/><path d="M9.2 -12.2C9.2 -12.2 10.4 -18.5 10.4 -22C10.5 -25.5 10.1 -29.5 9.5 -33C8.9 -36.4 7 -42.6 7 -42.6C7 -42.6 5 -40 4.8 -37.6C4.7 -35.1 5.9 -31.1 6.2 -27.9C6.4 -24.7 5.8 -20.8 6.3 -18.2C6.8 -15.6 9.2 -12.2 9.2 -12.2Z" fill="#B3BCA2"/><path d="M1.6 -40.3C1.6 -41.6 2.7 -42.7 4.1 -42.7C5.4 -42.7 6.5 -41.6 6.5 -40.3C6.5 -38.9 5.4 -37.8 4.1 -37.8C2.7 -37.8 1.6 -38.9 1.6 -40.3ZM4.7 -9.9C4.7 -11.3 5.9 -12.5 7.3 -12.5C8.8 -12.5 10 -11.3 10 -9.9C10 -8.4 8.8 -7.2 7.3 -7.2C5.9 -7.2 4.7 -8.4 4.7 -9.9ZM-9.7 -24.4C-9.7 -25.7 -8.6 -26.9 -7.2 -26.9C-5.9 -26.9 -4.7 -25.7 -4.7 -24.4C-4.7 -23 -5.9 -21.9 -7.2 -21.9C-8.6 -21.9 -9.7 -23 -9.7 -24.4ZM-7.5 -11C-7.5 -12.3 -6.5 -13.3 -5.2 -13.3C-4 -13.3 -2.9 -12.3 -2.9 -11C-2.9 -9.8 -4 -8.7 -5.2 -8.7C-6.5 -8.7 -7.5 -9.8 -7.5 -11Z" fill="#BDC3AB"/><path d="M-2 0Q-2.1 -27 -2.2 -51.6Q0.9 -27 2 0Z" fill="#B4BFA6"/></g></g><g id="hoca-hl30"><use href="#hoca-hp1" fill="#405D43"/><g clip-path="url(#hoca-hk1)"><path d="M0.1 12L0.1 -12L0.6 -27L1.5 -42L2.4 -54L4.3 -72L-31.4 -76.3L-33.4 -57.2L-34.4 -44.5L-35.4 -28.6L-35.9 -12.7L-35.9 12.7Z" fill="#34503A"/><path d="M9.5 -11.8C9.5 -11.8 10.9 -17.9 11.2 -21.2C11.5 -24.5 11.4 -28.5 11.2 -31.8C11 -35.2 9.9 -41.4 9.9 -41.4C9.9 -41.4 7.5 -39.2 7.1 -36.8C6.7 -34.5 7.5 -30.5 7.4 -27.3C7.4 -24.1 6.5 -20.4 6.9 -17.8C7.2 -15.2 9.5 -11.8 9.5 -11.8Z" fill="#5F755D"/><path d="M-2.2 0Q-1.1 -27 2.2 -51.6Q2.3 -27 2.2 0Z" fill="#7A8E76"/></g></g><g id="hoca-hl31"><use href="#hoca-hp2" fill="#7F9273"/><g clip-path="url(#hoca-hk2)"><path d="M-0.1 12L-0.1 -12L-0.6 -27L-1.5 -42L-2.4 -54L-4.3 -72L-40.1 -67.7L-38.3 -50.8L-37.4 -39.5L-36.6 -25.4L-36.1 -11.3L-36.1 11.3Z" fill="#6A7E60"/></g></g><g id="hoca-hl32"><use href="#hoca-hp1" fill="#5B7458"/><g clip-path="url(#hoca-hk1)"><path d="M0.1 12L0.1 -12L0.6 -27L1.5 -42L2.4 -54L4.3 -72L-31.4 -76.3L-33.4 -57.2L-34.4 -44.5L-35.4 -28.6L-35.9 -12.7L-35.9 12.7Z" fill="#4B6349"/></g></g><g id="hoca-hl33"><use href="#hoca-hp0" fill="#A5B296"/><g clip-path="url(#hoca-hk0)"><path d="M0 12L0 -12L0 -27L0 -42L0 -54L0 -72L-36 -72L-36 -54L-36 -42L-36 -27L-36 -12L-36 12Z" fill="#8E9E80"/></g></g><g id="hoca-hl34"><use href="#hoca-hp0" fill="#7F9273"/><g clip-path="url(#hoca-hk0)"><path d="M0 12L0 -12L0 -27L0 -42L0 -54L0 -72L-36 -72L-36 -54L-36 -42L-36 -27L-36 -12L-36 12Z" fill="#6A7E60"/></g></g><g id="hoca-hl35"><use href="#hoca-hp1" fill="#7F9273"/><g clip-path="url(#hoca-hk1)"><path d="M0.1 12L0.1 -12L0.6 -27L1.5 -42L2.4 -54L4.3 -72L-31.4 -76.3L-33.4 -57.2L-34.4 -44.5L-35.4 -28.6L-35.9 -12.7L-35.9 12.7Z" fill="#6A7E60"/><path d="M9.5 -11.8C9.5 -11.8 10.9 -17.9 11.2 -21.2C11.5 -24.5 11.4 -28.5 11.2 -31.8C11 -35.2 9.9 -41.4 9.9 -41.4C9.9 -41.4 7.5 -39.2 7.1 -36.8C6.7 -34.5 7.5 -30.5 7.4 -27.3C7.4 -24.1 6.5 -20.4 6.9 -17.8C7.2 -15.2 9.5 -11.8 9.5 -11.8Z" fill="#93A185"/><path d="M-2.5 0Q-1.3 -27 2.2 -51.6Q2.5 -27 2.5 0Z" fill="#9EAD92"/></g></g><g id="hoca-hl36"><use href="#hoca-hp2" fill="#405D43"/><g clip-path="url(#hoca-hk2)"><path d="M-0.1 12L-0.1 -12L-0.6 -27L-1.5 -42L-2.4 -54L-4.3 -72L31.4 -76.3L33.4 -57.2L34.4 -44.5L35.4 -28.6L35.9 -12.7L35.9 12.7Z" fill="#34503A"/><path d="M-9.5 -11.8C-9.5 -11.8 -10.9 -17.9 -11.2 -21.2C-11.5 -24.5 -11.4 -28.5 -11.2 -31.8C-11 -35.2 -9.9 -41.4 -9.9 -41.4C-9.9 -41.4 -7.5 -39.2 -7.1 -36.8C-6.7 -34.5 -7.5 -30.5 -7.4 -27.3C-7.4 -24.1 -6.5 -20.4 -6.9 -17.8C-7.2 -15.2 -9.5 -11.8 -9.5 -11.8Z" fill="#5F755D"/><path d="M-12.1 -36C-12.1 -38 -10.5 -39.6 -8.5 -39.6C-6.4 -39.6 -4.8 -38 -4.8 -36C-4.8 -33.9 -6.4 -32.3 -8.5 -32.3C-10.5 -32.3 -12.1 -33.9 -12.1 -36ZM5.8 -22.6C5.8 -24.6 7.4 -26.2 9.3 -26.2C11.3 -26.2 12.9 -24.6 12.9 -22.6C12.9 -20.6 11.3 -19 9.3 -19C7.4 -19 5.8 -20.6 5.8 -22.6ZM3.7 -11.3C3.7 -13.3 5.3 -15 7.4 -15C9.4 -15 11 -13.3 11 -11.3C11 -9.3 9.4 -7.6 7.4 -7.6C5.3 -7.6 3.7 -9.3 3.7 -11.3ZM-9.7 -14.5C-9.7 -16.2 -8.3 -17.6 -6.6 -17.6C-4.9 -17.6 -3.5 -16.2 -3.5 -14.5C-3.5 -12.8 -4.9 -11.4 -6.6 -11.4C-8.3 -11.4 -9.7 -12.8 -9.7 -14.5Z" fill="#7C8D76"/><path d="M-2.8 0Q-2.7 -27 -2.2 -51.6Q1.5 -27 2.8 0Z" fill="#7A8E76"/></g></g><g id="hoca-hl37"><use href="#hoca-hp2" fill="#5B7458"/><g clip-path="url(#hoca-hk2)"><path d="M-0.1 12L-0.1 -12L-0.6 -27L-1.5 -42L-2.4 -54L-4.3 -72L-40.1 -67.7L-38.3 -50.8L-37.4 -39.5L-36.6 -25.4L-36.1 -11.3L-36.1 11.3Z" fill="#4B6349"/></g></g><g id="hoca-hl38"><use href="#hoca-hp1" fill="#A5B296"/><g clip-path="url(#hoca-hk1)"><path d="M0.1 12L0.1 -12L0.6 -27L1.5 -42L2.4 -54L4.3 -72L-31.4 -76.3L-33.4 -57.2L-34.4 -44.5L-35.4 -28.6L-35.9 -12.7L-35.9 12.7Z" fill="#8E9E80"/></g></g><g id="hoca-hl39"><use href="#hoca-hp0" fill="#405D43"/><g clip-path="url(#hoca-hk0)"><path d="M0 12L0 -12L0 -27L0 -42L0 -54L0 -72L-36 -72L-36 -54L-36 -42L-36 -27L-36 -12L-36 12Z" fill="#34503A"/></g></g></defs><ellipse cx="300" cy="588" rx="100" ry="15" fill="#92543D"/><ellipse cx="300" cy="590.5" rx="92" ry="11.8" fill="#5C4331"/><path d="M214 589 Q300 579.8 386 589" fill="none" stroke="#4F392A" stroke-width="3"/><g stroke="#8E9E80" stroke-linecap="round" fill="none"><path d="M265.8 521.7L277.9 508.2" stroke-width="3.9"/><path d="M212.7 433.9L212.9 413.6" stroke-width="3.9"/><path d="M168.6 399.3L180 383.8" stroke-width="3.9"/><path d="M164 290.3L181.6 290.2" stroke-width="3.9"/><path d="M185.3 199.8L204 200.4" stroke-width="3.9"/><path d="M267.3 121.8L261.5 141.4" stroke-width="3.9"/><path d="M373.3 173.8L366.1 191.7" stroke-width="3.9"/><path d="M390.8 222.5L390 239" stroke-width="3.9"/><path d="M424.6 273.5L411.8 282.1" stroke-width="3.9"/><path d="M325.6 543.3L310.8 533.8" stroke-width="3.9"/><path d="M370.2 437.6L363.6 419.5" stroke-width="3.9"/></g><use href="#hoca-hl1" transform="translate(274.4 512.2) rotate(41.9) scale(0.882)"/><use href="#hoca-hl3" transform="translate(212.9 419.9) rotate(0.7) scale(1.050)"/><use href="#hoca-hl5" transform="translate(176.6 388.5) rotate(36.1) scale(0.966)"/><use href="#hoca-hl7" transform="translate(176.5 290.2) rotate(89.6) scale(0.840)"/><use href="#hoca-hl9" transform="translate(198.4 200.3) rotate(92) scale(0.924)"/><use href="#hoca-hl11" transform="translate(263.3 135.3) rotate(196.4) scale(1.050)"/><use href="#hoca-hl13" transform="translate(368.3 186.3) rotate(202) scale(0.966)"/><use href="#hoca-hl15" transform="translate(390.2 234.4) rotate(183) scale(0.756)"/><use href="#hoca-hl17" transform="translate(415.2 279.8) rotate(236.1) scale(0.672)"/><use href="#hoca-hl24" transform="translate(315 536.5) rotate(-57.2) scale(0.840)"/><use href="#hoca-hl26" transform="translate(365.6 424.9) rotate(-19.9) scale(0.966)"/><path id="hoca-hstm" d="M271 611.8C271 611.8 270.3 601.1 269.8 595.8C269.4 590.4 268.4 585 268.5 579.9C268.5 574.7 269.6 569.9 270 564.7C270.5 559.5 270.9 553.9 271.1 548.5C271.3 543.1 271.8 537.7 271.3 532.2C270.8 526.7 270.7 520.1 268.1 515.7C265.4 511.3 259.1 509.3 255.2 505.8C251.3 502.4 247.8 498.9 244.5 494.9C241.2 491 238.1 486.6 235.3 482.2C232.6 477.8 229.2 473.1 228 468.5C226.7 463.9 228.7 459.9 227.5 454.8C226.4 449.8 223.9 443.1 221 438.3C218.1 433.6 213.8 430.1 210.1 426.2C206.3 422.4 202.7 418.5 198.3 415.2C193.9 411.9 187.8 409 183.6 406.3C179.4 403.6 175.9 402.5 172.9 399C169.9 395.5 167.5 390.2 165.6 385.4C163.7 380.6 162.2 375.5 161.3 370.5C160.5 365.4 159.4 359.7 160.4 355C161.5 350.4 166 347.3 167.6 342.4C169.1 337.5 169.4 331.3 169.8 325.8C170.1 320.3 169.9 315 169.6 309.6C169.3 304.2 169.2 298.9 168 293.5C166.9 288 164.4 281.8 162.6 277.1C160.7 272.3 157.8 269.5 156.9 264.9C156.1 260.3 156.8 254.4 157.5 249.3C158.1 244.1 159.3 238.9 160.9 234C162.5 229.1 164.2 223.5 167.2 219.8C170.2 216 175.2 215.1 179 211.6C182.7 208.1 186.5 203.1 189.7 198.7C192.9 194.2 195.5 189.6 198.3 185C201 180.4 203.9 175.9 206.1 170.9C208.3 165.9 209.9 159.8 211.5 155C213.2 150.2 213.3 146.1 216 142.2C218.7 138.4 223.4 134.8 227.6 131.9C231.9 129 236.7 126.5 241.5 124.8C246.4 123.1 252 121.1 256.7 121.7C261.3 122.2 264.8 126 269.4 128C274 130 279.5 131.7 284.4 133.8C289.2 136 293.8 138.6 298.7 140.9C303.6 143.1 308.5 146.4 313.6 147.4C318.7 148.3 324.2 145.9 329.3 146.5C334.3 147 339.2 148.6 343.9 150.6C348.5 152.6 353.2 155.5 357.2 158.8C361.2 162 365.3 165.9 367.9 170C370.6 174.1 371.7 178.3 372.9 183.2C374 188.1 373.4 194.3 375 199.4C376.6 204.5 379.8 209.1 382.5 213.8C385.2 218.4 387.6 223.3 391.2 227.3C394.8 231.3 400.3 234.5 404.1 237.8C407.9 241.2 411.5 243.4 414.1 247.4C416.7 251.5 418.5 257 419.8 262C421.1 267 421.9 272.2 421.9 277.4C421.9 282.5 418.9 288.1 419.9 293C420.9 298 424.2 303.8 428 307.2C431.9 310.6 437.8 311.8 443 313.5C448.1 315.2 453.5 317.3 458.8 317.4C464.2 317.6 470.1 316.4 475.1 314.4C480.1 312.4 484.9 308.9 488.8 305.2C492.6 301.6 498.3 292.3 498.3 292.3C498.3 292.3 497.7 291.7 497.7 291.7C497.7 291.7 491.3 300.5 487.3 303.8C483.4 307.1 478.7 309.8 474 311.6C469.3 313.4 464.1 314.6 459.1 314.4C454.1 314.3 448.9 312.3 444 310.7C439 309 432.9 307.4 429.4 304.5C425.9 301.7 423.6 298 422.8 293.4C422.1 288.9 425 282.8 424.9 277.4C424.9 272 424 266.4 422.7 261.2C421.3 255.9 419.7 250.3 416.7 245.9C413.7 241.6 408.4 238.2 404.5 234.8C400.7 231.4 396.9 229.4 393.7 225.6C390.4 221.8 387.7 216.8 385.1 212.2C382.4 207.7 379.3 202.9 377.7 198.2C376.2 193.5 376.9 189.2 375.7 184.2C374.5 179.2 373.1 172.9 370.4 168.2C367.6 163.6 363.3 159.8 359 156.4C354.8 153 350.1 150 345.1 147.9C340.1 145.7 334.2 144 329.1 143.5C324 142.9 319.4 145.4 314.5 144.5C309.7 143.6 304.8 140.4 300 138.2C295.2 136 290.5 133.3 285.6 131.1C280.7 129 275.5 127.4 270.7 125.3C265.9 123.2 261.6 119.2 256.6 118.7C251.6 118.1 245.6 120.2 240.5 122C235.4 123.8 230.4 126.4 226 129.4C221.5 132.4 216.5 135.8 213.6 140.2C210.7 144.6 210.2 150.9 208.4 155.8C206.7 160.7 205.4 164.9 203.2 169.4C201 174 198.1 178.8 195.4 183.3C192.7 187.8 189.8 192.5 186.8 196.7C183.8 200.9 181.1 204.9 177.3 208.4C173.5 212 167.4 213.8 164.1 217.9C160.8 222 159.1 227.7 157.4 232.9C155.6 238 154.4 243.4 153.7 248.8C153 254.2 152 259.9 153.1 265.1C154.1 270.4 158.3 275.4 160.2 280.2C162 285.1 163.2 289.2 164 294.1C164.9 299 165.2 304.6 165.5 309.8C165.7 315.1 165.9 320.5 165.6 325.7C165.2 330.8 165.2 335.9 163.6 340.7C162 345.6 157.1 349.7 156 354.8C154.9 359.9 156 365.9 156.9 371.3C157.8 376.7 159.3 382 161.4 387.1C163.4 392.2 165.5 397.7 169.2 401.7C172.9 405.7 179.3 408.2 183.6 411C187.9 413.9 191.2 415.6 195 418.7C198.9 421.8 202.9 425.9 206.6 429.7C210.3 433.5 214.4 437.5 217.1 441.4C219.8 445.3 221.7 448.4 222.7 453.2C223.8 458.1 221.8 465.2 223.2 470.5C224.6 475.8 228 480.4 230.9 485C233.8 489.6 236.9 494.1 240.4 498.3C243.9 502.5 248.2 507 252 510.2C255.8 513.5 260.7 514 263 517.7C265.2 521.4 265.3 527.5 265.7 532.5C266.2 537.6 265.7 543 265.5 548.2C265.2 553.5 264.8 558.7 264.3 564C263.8 569.3 262.7 574.9 262.7 580.3C262.6 585.6 263.5 590.9 263.9 596.3C264.3 601.6 265 612.2 265 612.2C265 612.2 271 611.8 271 611.8ZM334.8 611.8C334.8 611.8 334.3 600.9 333.7 595.4C333.1 589.9 332 584.4 331.2 578.9C330.4 573.5 329.5 568.2 328.9 562.8C328.2 557.4 327.5 551.9 327.2 546.6C326.9 541.2 325.8 535.3 327 530.7C328.2 526 331.5 522.9 334.2 518.5C336.9 514.1 340.3 509 343.1 504.2C345.9 499.4 348.5 494.7 350.9 489.7C353.4 484.8 356.9 479.8 358 474.6C359.1 469.4 356.2 463.3 357.3 458.4C358.4 453.5 361.5 449.4 364.6 445.1C367.7 440.8 372.7 436 375.9 432.5C379.1 429.1 380 424.7 383.6 424.6C387.3 424.5 393.1 429.3 397.8 431.9C402.4 434.6 407 437.8 411.6 440.7C416.3 443.5 421 446.5 425.8 449.2C430.7 451.9 435.8 454.1 440.6 456.6C445.4 459.2 450.3 461.4 454.7 464.5C459 467.6 463 471.2 466.7 475.1C470.4 479 473.7 483.3 476.8 487.8C479.8 492.2 482.7 496.9 485.1 501.7C487.5 506.5 489.5 511.5 491.2 516.6C492.9 521.8 494.1 527.1 495.2 532.4C496.3 537.7 497.2 543.1 497.8 548.5C498.5 553.9 498.9 559.3 499.1 564.8C499.3 570.2 499.3 575.6 499 581.1C498.7 586.5 498.2 591.9 497.3 597.2C496.3 602.5 495.1 607.9 493.3 612.9C491.4 617.8 489 622.6 486 627C483 631.4 475.2 639.3 475.2 639.3C475.2 639.3 476.8 640.7 476.8 640.7C476.8 640.7 484.9 633.1 488.1 628.7C491.3 624.2 494.1 619 496.1 613.9C498.1 608.7 499.2 603.2 500.2 597.7C501.2 592.3 501.7 586.7 502 581.2C502.3 575.7 502.3 570.2 502.1 564.6C501.9 559.1 501.5 553.6 500.8 548.1C500.1 542.7 499.3 537.2 498.2 531.8C497.1 526.4 495.9 520.9 494.2 515.7C492.5 510.4 490.4 505.2 487.9 500.2C485.5 495.3 482.6 490.5 479.5 485.9C476.4 481.3 473 476.8 469.2 472.8C465.4 468.7 461.2 464.9 456.7 461.6C452.2 458.4 447.1 455.9 442.2 453.3C437.4 450.7 432.4 448.5 427.6 445.9C422.9 443.2 418.4 440.3 413.7 437.4C409.1 434.5 404.6 431.3 399.8 428.5C395 425.7 389.6 420.2 384.9 420.6C380.3 421 376 427.3 372 430.9C368 434.6 364.3 438 361.1 442.5C357.9 447 354.1 452.8 352.9 457.8C351.7 462.9 354.7 468 353.7 473C352.7 477.9 349.3 482.7 346.8 487.5C344.3 492.3 341.6 497.2 338.9 501.9C336.1 506.6 333.2 510.8 330.4 515.5C327.6 520.1 323.4 524.8 322 530C320.6 535.3 321.8 541.4 322 547C322.3 552.5 323 557.9 323.6 563.4C324.3 568.9 325.2 574.4 325.9 579.8C326.7 585.2 327.6 590.4 328.2 595.8C328.7 601.2 329.2 612.2 329.2 612.2C329.2 612.2 334.8 611.8 334.8 611.8Z" fill="#8E9E80"/><path d="M267.2 592.1C267.2 592.1 264.4 593.2 262.9 593.7C261.5 594.3 260 594.8 258.5 595.4C257.1 596 254.2 597.2 254.2 597.2C254.2 597.2 255.7 600.9 255.7 600.9C255.7 600.9 258.6 599.8 260 599.2C261.5 598.7 262.9 598.2 264.4 597.6C265.8 597.1 268.8 595.9 268.8 595.9C268.8 595.9 267.2 592.1 267.2 592.1Z" fill="#8E9E80"/><path d="M268 612C267.5 603.3 267.2 577.8 265.3 559.9C263.3 542 262.5 521.1 256.3 504.6C250.1 488.2 239.5 475.5 228.2 461.2C216.9 446.9 199.1 436 188.5 418.7C177.9 401.5 169.5 379.5 164.6 357.8C159.8 336.1 158.1 311.6 159.2 288.4C160.4 265.3 164.6 239.6 171.6 218.8C178.6 197.9 189.8 177.6 201.3 163.2C212.9 148.8 227.3 138.8 240.7 132.3C254.2 125.7 268 121.7 282 124C296 126.3 311 137.3 324.9 145.8C338.8 154.4 353.1 162.2 365.5 175.4C377.9 188.5 390.7 204.9 399.5 224.6C408.3 244.4 415.4 271 418.2 293.8C421 316.5 420.3 340 416.3 361.1C412.4 382.2 404.6 403.8 394.7 420.6C384.8 437.5 367.5 448.3 357 462.4C346.6 476.5 336.8 488.9 332 505.2C327.3 521.5 328.5 542.2 328.5 560C328.5 577.8 331.4 603.3 332 612" fill="none" stroke="#92543D" stroke-width="7.5" stroke-linecap="round"/><path d="M268 612C267.5 603.3 267.2 577.8 265.3 559.9C263.3 542 262.5 521.1 256.3 504.6C250.1 488.2 239.5 475.5 228.2 461.2C216.9 446.9 199.1 436 188.5 418.7C177.9 401.5 169.5 379.5 164.6 357.8C159.8 336.1 158.1 311.6 159.2 288.4C160.4 265.3 164.6 239.6 171.6 218.8C178.6 197.9 189.8 177.6 201.3 163.2C212.9 148.8 227.3 138.8 240.7 132.3C254.2 125.7 268 121.7 282 124C296 126.3 311 137.3 324.9 145.8C338.8 154.4 353.1 162.2 365.5 175.4C377.9 188.5 390.7 204.9 399.5 224.6C408.3 244.4 415.4 271 418.2 293.8C421 316.5 420.3 340 416.3 361.1C412.4 382.2 404.6 403.8 394.7 420.6C384.8 437.5 367.5 448.3 357 462.4C346.6 476.5 336.8 488.9 332 505.2C327.3 521.5 328.5 542.2 328.5 560C328.5 577.8 331.4 603.3 332 612" fill="none" stroke="#774C37" stroke-width="7.5" stroke-dasharray="3 4.5"/><clipPath id="hoca-hfm"><path d="M275 611.6L274.7 606.4L274.3 601.1L273.9 595.9L273.4 590.7L272.9 585.6L272.5 580.5L272.3 575.7L272.3 571.1L273.8 566.6L274.3 561.1L274.7 555.9L275 550.7L275.3 545.4L275.5 540.1L275.4 534.6L275.1 528.9L274.3 523.4L272.9 517.5L270.4 511.2L266.4 505.8L257.9 502.4L256 501.5L253.2 498.9L250 495.4L246.9 491.5L230.2 491.3L233.4 495.7L236.6 500L239.9 504L243.6 508.2L248.4 512.5L255.9 515.6L256.9 515.3L258.9 518.1L260 521.6L261 525.7L261.6 530.5L261.8 535.1L261.8 539.9L261.6 545L261.3 550L261 555.1L260.6 560.2L260.2 565L258.6 570.3L258.4 576L258.7 581.6L259.1 586.8L259.6 592L260 597.1L260.4 602.2L260.7 607.3L261 612.4ZM223.7 435.3L220.2 431.1L216.7 427.2L213 423.5L209.2 419.9L205.5 416.4L201.8 413L198 409.5L193.8 406L185.5 402.3L180.5 402.3L180.6 401.7L177.6 398.5L175.1 395.1L159.2 392.3L161.7 397.4L164.5 402L168 406.7L171.8 410.8L180.5 415L185.5 415L186 416.1L189.5 419.1L193.1 422.4L196.8 425.8L200.4 429.2L203.9 432.7L207.3 436.1ZM172.8 337.4L173.4 331.8L173.8 326.3L173.9 320.9L173.8 315.4L173.6 309.9L173.3 304.5L172.8 299.1L172.1 293.7L171.2 288.2L169.8 282.4L167.1 276.4L161.5 271.3L161.7 270.2L148.9 261.5L149.2 267.4L150.1 273L154.7 281.1L157 282.9L158.5 286.5L159.5 290.9L160.2 295.8L160.8 300.8L161.2 306L161.5 311.1L161.7 316.2L161.7 321.2L161.5 326.3ZM178.7 216.3L184.2 212.3L188 207.8L191.2 203.5L194.2 199.1L197.1 194.7L199.8 190.2L202.5 185.7L205.1 181.2L207.7 176.6L210.1 171.9L212.5 167.1L214.9 161.4L215.3 153.6L206.7 142.8L204 148.3L204.5 156.6L204.2 158.1L202.2 162.5L200 167L197.6 171.4L195.1 175.8L192.6 180.2L190 184.5L187.3 188.8L184.5 193L181.7 197.1L178.7 201.1ZM262.9 127.1L268.7 132.1L274.1 134.2L278.8 135.9L283.3 137.8L287.9 139.9L292.5 142.2L297.2 144.6L301.9 146.9L306.9 149.1L312.2 151.1L318.2 152.8L326.4 151.6L316.1 140.8L311.6 139.2L307 137.1L302.4 134.9L297.8 132.6L293.1 130.3L288.3 127.9L283.2 125.8L278.2 123.9L273.8 122.3L271.8 120.8L265.3 115.7L258.4 114.6ZM368 177.9L369.1 181.4L368.4 183.7L367.9 191.9L370 198L372.3 203.2L374.9 208.3L377.5 213.2L380.3 218L383.3 222.7L386.3 227.3L389.7 231.9L392.9 217.4L390.2 213L387.5 208.4L385 203.9L382.6 199.2L380.5 194.6L378.7 189.8L378.4 188.3L380.1 180.3L378.3 174.1L375.3 168.5L371.8 163.4ZM409.9 248.2L412 252.2L413.9 256.6L415.3 260.8L416.5 265.5L417.3 269.9L417.8 274.3L417.9 279L417.6 283.2L416.8 287.9L415.8 293.3L416.3 300.8L420.8 307.2L425.8 310.5L430.8 313L435.7 315L440.5 316.8L445.4 318.6L450.6 320.1L456.1 321.1L461.9 321.5L468 320.8L473.4 319.3L478.6 317.3L483.5 314.6L488.1 311.4L492.4 307.2L495.7 303L498.7 298.7L501.4 294.8L494.6 289.2L491.2 293.3L488.2 297L485.1 300.5L482 303.1L478.2 305.3L474.2 307.2L470 308.8L465.7 310L461.8 310.5L457.7 310.3L453.3 309.4L448.8 308.1L444.3 306.5L439.7 304.8L435.3 303L431.3 301L428 298.8L426.7 297.2L426.7 294.5L427.5 290.2L428.4 285.1L428.9 279.2L428.8 273.9L428.2 268.4L427.2 262.9L425.9 257.9L424.1 252.6L422.1 247.8L419.5 242.8L416.3 237.9L412.3 233.6ZM338.8 611.6L338.4 606.4L338.1 601.2L337.7 596L337.3 590.8L336.7 585.3L335.5 580L334.6 575L333.9 569.9L333.2 564.9L332.5 559.9L332 554.8L331.5 549.7L331 544.7L330.8 539.7L330.8 535L331.1 530.5L331.9 526L331.8 525.9L337.2 521.2L340.5 516.1L343.1 511.8L345.9 507.3L348.6 502.5L351 498L353.5 493.4L337.5 496.1L335.2 500.4L332.5 504.7L329.7 509.2L327.3 512.9L325.1 514.8L319.6 522L318.2 528.5L317.7 534.4L317.7 540L317.9 545.4L318.3 550.7L318.8 556L319.4 561.2L320 566.5L320.7 571.8L321.4 576.9L322.3 582.2L323.4 587L323.9 591.8L324.2 596.9L324.6 602.1L324.9 607.3L325.2 612.4ZM374 440.5L377.5 437.1L380.9 429.7L381.8 427.6L380.7 428L384.3 429.1L388.3 431.1L392.5 433.4L396.6 436L400.9 438.6L405.1 441.3L409.4 444L413.7 446.7L418 449.3L422.6 452L427.2 454.4L431.8 456.7L436.3 459L440.8 461.2L445.1 463.4L449.2 465.8L453.1 468.3L456.7 471L460.1 474.1L463.5 477.6L466.6 481.1L469.6 484.8L472.5 488.6L475.2 492.6L477.8 496.7L480.1 500.9L482.3 505.2L484.3 509.4L486 513.8L487.6 518.3L488.9 523L490.1 527.7L491.2 532.5L492.1 537.3L492.9 542.1L493.6 547L494.2 551.9L494.6 556.7L495 561.6L495.2 566.5L495.2 571.4L495.2 576.3L495 581.1L494.7 586L494.2 590.8L493.5 595.6L492.6 600.2L491.5 604.9L490.2 609.5L488.6 613.9L486.9 618.1L484.8 621.8L482.1 625.5L479 629.1L475.7 632.7L472.1 636.7L479.9 643.3L483.1 639.9L486.7 636.2L490.3 632.2L493.6 627.9L496.6 622.9L498.9 617.9L500.7 612.8L502.1 607.7L503.4 602.6L504.3 597.3L505.1 592.1L505.6 586.9L506 581.8L506.2 576.6L506.2 571.4L506.2 566.2L505.9 561L505.6 555.8L505.1 550.7L504.5 545.6L503.7 540.5L502.9 535.4L501.9 530.3L500.9 525.2L499.6 520.1L498.2 515.2L496.6 510.1L494.6 505.2L492.4 500.3L490 495.6L487.4 491L484.7 486.6L481.8 482.2L478.7 477.9L475.4 473.7L471.8 469.7L468.2 466L464.2 462.3L459.8 458.9L455.3 455.9L450.7 453.2L446.1 450.8L441.5 448.5L437 446.3L432.6 444L428.4 441.7L424.2 439.3L420 436.6L415.8 434L411.6 431.2L407.3 428.5L403 425.8L398.6 423.1L394 420.4L389 418L383 416L372.8 419.5L369.2 426.3L369.1 428.2L365.4 431.8L361.7 435.7L358.1 439.9Z"/></clipPath><g clip-path="url(#hoca-hfm)"><use href="#hoca-hstm"/></g><g stroke="#8E9E80" stroke-linecap="round" fill="none"><path d="M265.8 521.7L275.2 511.3" stroke-width="3.9"/><path d="M212.7 433.9L212.9 418.7" stroke-width="3.9"/><path d="M168.6 399.3L177.3 387.5" stroke-width="3.9"/><path d="M164 290.3L177.7 290.2" stroke-width="3.9"/><path d="M185.3 199.8L199.6 200.3" stroke-width="3.9"/><path d="M267.3 121.8L263 136.5" stroke-width="3.9"/><path d="M373.3 173.8L367.8 187.4" stroke-width="3.9"/><path d="M390.8 222.5L390.1 235.6" stroke-width="3.9"/><path d="M424.6 273.5L414.2 280.5" stroke-width="3.9"/><path d="M325.6 543.3L314 535.9" stroke-width="3.9"/><path d="M370.2 437.6L365.2 423.8" stroke-width="3.9"/></g><path d="M184.4 410.4C184.4 410.4 194.8 407.3 199.9 405.7C205.1 404.1 210.3 402.6 215.4 400.8C220.6 399 225.7 397.1 230.7 395C235.7 393 240.7 390.9 245.6 388.6C250.5 386.2 255.5 383.7 260.1 380.9C264.8 378.1 269.3 375 273.7 371.8C278 368.5 282.3 365.1 286.3 361.4C290.4 357.8 294.4 354.1 298 350C301.7 346 305.1 341.6 308.2 337.1C311.3 332.7 314.4 328.1 316.9 323.3C319.4 318.4 321.5 313.2 323.2 308.1C324.8 302.9 326.8 292.2 326.8 292.2C326.8 292.2 325.2 291.8 325.2 291.8C325.2 291.8 322.8 302.4 320.9 307.4C319.1 312.4 316.8 317.1 314.3 321.8C311.7 326.5 308.8 331.1 305.7 335.4C302.7 339.8 299.4 344 295.8 348C292.2 351.9 288.3 355.6 284.3 359.2C280.3 362.8 276.2 366.1 271.9 369.3C267.6 372.5 263.2 375.6 258.6 378.4C254 381.1 249.2 383.5 244.4 385.8C239.5 388.1 234.5 390.2 229.5 392.1C224.5 394.1 219.5 396 214.4 397.7C209.3 399.4 204.1 400.9 199 402.4C193.8 404 183.4 407 183.4 407C183.4 407 184.4 410.4 184.4 410.4Z" fill="#8E9E80"/><g stroke="#8E9E80" stroke-linecap="round" fill="none"><path d="M268.3 521L248.5 516.2" stroke-width="3.9"/><path d="M214.2 432L191 439.3" stroke-width="4"/><path d="M170.9 397.6L147.1 406.4" stroke-width="4.3"/><path d="M166.9 290.9L146.1 282" stroke-width="3.9"/><path d="M187 201.3L183.8 178.4" stroke-width="3.9"/><path d="M265.3 123.1L289.9 126.6" stroke-width="4.2"/><path d="M371.3 175.2L393.8 175.2" stroke-width="3.9"/><path d="M389.2 224L407.9 224.6" stroke-width="3.9"/><path d="M422 273.7L437.9 281.1" stroke-width="3.9"/><path d="M495.2 297.5L493.3 285.9" stroke-width="3.9"/><path d="M493.5 296.1L504.4 295.2" stroke-width="3.9"/><path d="M323.1 543.3L339.8 532.8" stroke-width="3.9"/><path d="M368.2 435.9L390.9 440" stroke-width="3.9"/><path d="M424.7 448L441.4 434.5" stroke-width="3.9"/><path d="M426.2 445.6L421.7 463.7" stroke-width="3.9"/><path d="M487.9 506.9L507.5 509.6" stroke-width="3.9"/><path d="M490.4 506L478.1 520.1" stroke-width="3.9"/><path d="M499.4 573L513.2 581.1" stroke-width="3.9"/><path d="M502 573L489.4 580.9" stroke-width="3.9"/><path d="M479.6 634.8L478.3 646.8" stroke-width="3.9"/><path d="M480.9 636.3L469.7 636.8" stroke-width="3.9"/><path d="M227.4 396L230.7 375.9" stroke-width="3.9"/><path d="M226.6 393.5L239.6 406.1" stroke-width="3.9"/><path d="M278.1 367.9L277.2 349.3" stroke-width="3.9"/><path d="M276.7 365.9L292.5 372.1" stroke-width="3.9"/><path d="M325.9 297.1L318.7 286.8" stroke-width="3.9"/><path d="M323.8 296.7L333.6 290.3" stroke-width="3.9"/></g><use href="#hoca-hl0" transform="translate(254.6 517.6) rotate(-76.3) scale(1.050)"/><use href="#hoca-hl2" transform="translate(198.7 436.9) rotate(-107.6) scale(1.344)"/><use href="#hoca-hl4" transform="translate(155.2 403.4) rotate(-110.2) scale(1.428)"/><use href="#hoca-hl6" transform="translate(152.8 284.9) rotate(-66.9) scale(1.218)"/><use href="#hoca-hl8" transform="translate(184.8 185.9) rotate(-8) scale(1.260)"/><use href="#hoca-hl10" transform="translate(281.7 125.4) rotate(98.2) scale(1.386)"/><use href="#hoca-hl12" transform="translate(386.5 175.2) rotate(90) scale(1.218)"/><use href="#hoca-hl14" transform="translate(402.4 224.4) rotate(92) scale(0.924)"/><use href="#hoca-hl16" transform="translate(433.3 279) rotate(114.9) scale(0.840)"/><use href="#hoca-hl18" transform="translate(493.7 288.2) rotate(-9.2) scale(0.399)"/><use href="#hoca-hl19" transform="translate(502.4 295.3) rotate(85) scale(0.336)"/><use href="#hoca-hl23" transform="translate(334.7 536) rotate(57.8) scale(1.008)"/><use href="#hoca-hl25" transform="translate(383.5 438.7) rotate(100.1) scale(1.260)"/><use href="#hoca-hl27" transform="translate(436.1 438.7) rotate(50.9) scale(1.134)"/><use href="#hoca-hl28" transform="translate(423 458.4) rotate(194.2) scale(0.924)"/><use href="#hoca-hl29" transform="translate(501.5 508.8) rotate(97.8) scale(1.008)"/><use href="#hoca-hl30" transform="translate(481.8 515.9) rotate(221) scale(0.924)"/><use href="#hoca-hl31" transform="translate(509.5 578.9) rotate(-239.6) scale(0.714)"/><use href="#hoca-hl32" transform="translate(492.6 578.9) rotate(-122.2) scale(0.630)"/><use href="#hoca-hl33" transform="translate(478.6 644.3) rotate(-174.1) scale(0.420)"/><use href="#hoca-hl34" transform="translate(471.8 636.7) rotate(-92.6) scale(0.357)"/><use href="#hoca-hl0" transform="translate(229.7 382.2) rotate(9.2) scale(1.050)"/><use href="#hoca-hl20" transform="translate(235.8 402.4) rotate(133.9) scale(0.882)"/><use href="#hoca-hl21" transform="translate(277.5 354.8) rotate(-2.8) scale(0.924)"/><use href="#hoca-hl22" transform="translate(288.1 370.4) rotate(111.5) scale(0.798)"/><use href="#hoca-hl18" transform="translate(320.3 289.1) rotate(-34.9) scale(0.462)"/><use href="#hoca-hl19" transform="translate(331.6 291.6) rotate(56.9) scale(0.399)"/><path d="M185.6 201.2C185.6 201.2 190 203.8 192.3 206.2C194.6 208.7 197.4 210.6 199.2 215.7C201 220.8 202.1 230 203.1 236.8C204.1 243.6 204.4 253.1 205.3 256.3C206.2 259.5 208.1 259.3 208.3 256C208.4 252.7 207.2 243.3 206.2 236.4C205.2 229.5 204.3 220.1 202.3 214.6C200.4 209.1 196.9 206.3 194.5 203.6C192.1 200.9 188 198.5 188 198.5C188 198.5 185.6 201.2 185.6 201.2Z" fill="#B97479"/><ellipse cx="206.8" cy="260.5" rx="28.1" ry="21.6" fill="#B97479"/><use href="#hoca-hfb" transform="translate(176.5 239) rotate(-147.8) scale(0.53 1.05) rotate(216.6)"/><use href="#hoca-hfb" transform="translate(237.2 273.3) rotate(32.1) scale(0.48 0.95) rotate(-28)"/><use href="#hoca-hfb" transform="translate(171.1 259.6) rotate(173.8) scale(0.51 1.03) rotate(-113.7)"/><use href="#hoca-hfb" transform="translate(186.5 282.5) rotate(124.7) scale(0.49 0.98) rotate(-76.5)"/><use href="#hoca-hf" transform="translate(204.3 287.7) rotate(94) scale(0.51 1.01) rotate(-50.4)"/><use href="#hoca-hf" transform="translate(221.5 284.7) rotate(65) scale(0.48 0.96) rotate(-23.2)"/><use href="#hoca-hf" transform="translate(241 252.5) rotate(-6.7) scale(0.53 0.99) rotate(37.7)"/><use href="#hoca-hf" transform="translate(175.7 247.1) rotate(-162) scale(0.69 1.06) rotate(214.1)"/><use href="#hoca-hf" transform="translate(179.8 268.7) rotate(152.6) scale(0.74 1.01) rotate(-84.2)"/><use href="#hoca-hf" transform="translate(234 264.8) rotate(19.5) scale(0.75 0.97) rotate(12.6)"/><use href="#hoca-hf" transform="translate(195.3 278.6) rotate(114.8) scale(0.76 0.94) rotate(-112.2)"/><use href="#hoca-hf" transform="translate(229.2 243.1) rotate(-33) scale(0.80 0.98) rotate(66.4)"/><use href="#hoca-hf" transform="translate(220.1 276.4) rotate(59.4) scale(0.87 1.05) rotate(-32)"/><use href="#hoca-hf" transform="translate(187.4 256.5) rotate(178.9) scale(0.92 1.01) rotate(-141)"/><use href="#hoca-hf" transform="translate(201 244.9) rotate(-114.7) scale(0.91 0.94) rotate(131.7)"/><use href="#hoca-hf" transform="translate(219.4 255.1) rotate(-5.4) scale(0.93 0.96) rotate(28.8)"/><use href="#hoca-hf" transform="translate(205.5 266.6) rotate(96.3) scale(1.03 1.06) rotate(-59.5)"/><path d="M425.3 445.4C425.3 445.4 419 446.6 415.4 448.3C411.8 450.1 406.5 451.8 403.5 456C400.6 460.2 399 468 397.5 473.5C396 479 394.4 486.5 394.4 489.2C394.4 491.9 396.3 492.4 397.3 489.9C398.4 487.4 399.1 479.5 400.6 474.2C402.1 468.9 403.6 461.7 406.2 457.9C408.9 454.1 413.1 453.1 416.5 451.6C419.9 450.1 426.5 448.8 426.5 448.8C426.5 448.8 425.3 445.4 425.3 445.4Z" fill="#B97479"/><ellipse cx="395.9" cy="493.5" rx="25.7" ry="19.8" fill="#B97479"/><use href="#hoca-hfb" transform="translate(424.2 474.3) rotate(-30.9) scale(0.51 1.03) rotate(75.7)"/><use href="#hoca-hfb" transform="translate(367.6 504.8) rotate(149.1) scale(0.53 1.05) rotate(-91.8)"/><use href="#hoca-hfb" transform="translate(423.4 505.7) rotate(33.1) scale(0.53 1.05) rotate(20.1)"/><use href="#hoca-hf" transform="translate(426.8 486) rotate(-7.2) scale(0.57 1.00) rotate(9.3)"/><use href="#hoca-hf" transform="translate(394.3 517.3) rotate(92.9) scale(0.60 1.02) rotate(-25)"/><use href="#hoca-hf" transform="translate(365.8 493) rotate(172.7) scale(0.60 0.95) rotate(-107.8)"/><use href="#hoca-hf" transform="translate(378.4 511.2) rotate(125.8) scale(0.64 0.97) rotate(-92.1)"/><use href="#hoca-hf" transform="translate(409 511.5) rotate(61.6) scale(0.74 1.01) rotate(-22.5)"/><use href="#hoca-hf" transform="translate(420.7 498.5) rotate(21.8) scale(0.74 0.97) rotate(-20.9)"/><use href="#hoca-hf" transform="translate(372.5 480.4) rotate(-156.6) scale(0.84 1.05) rotate(176.7)"/><use href="#hoca-hf" transform="translate(414.6 479.6) rotate(-30.4) scale(0.83 0.96) rotate(85.6)"/><use href="#hoca-hf" transform="translate(379 499.2) rotate(147.3) scale(0.85 0.96) rotate(-89.9)"/><use href="#hoca-hf" transform="translate(396.8 505.1) rotate(87) scale(0.88 0.96) rotate(-42.6)"/><use href="#hoca-hf" transform="translate(406.5 492.3) rotate(16.1) scale(1.01 1.04) rotate(-16)"/><use href="#hoca-hf" transform="translate(387.5 486.5) rotate(-158.4) scale(0.95 0.97) rotate(173.5)"/><ellipse cx="300" cy="755" rx="105" ry="8" fill="#D8DCD9"/><clipPath id="hoca-pc1"><path d="M207 618 L225 738 Q227 751 241 752 Q300 759 359 752 Q373 751 375 738 L393 618Z"/></clipPath><path d="M207 618 L225 738 Q227 751 241 752 Q300 759 359 752 Q373 751 375 738 L393 618Z" fill="#B96E4A"/><g clip-path="url(#hoca-pc1)"><path d="M348.4 618 Q344 685 329.8 762 L500 762 L500 618Z" fill="#AD6646"/><path d="M100 691.7 Q300 707.7 500 691.7" fill="none" stroke="#A96445" stroke-width="4"/><clipPath id="hoca-ps2"><path d="M348.4 618 Q344 685 329.8 762 L500 762 L500 618Z"/></clipPath><path d="M100 691.7 Q300 707.7 500 691.7" fill="none" stroke="#A25F42" stroke-width="4" clip-path="url(#hoca-ps2)"/><clipPath id="hoca-pt3"><path d="M100 612 H500 V628 Q300 640 100 628Z"/></clipPath><clipPath id="hoca-pt4"><path d="M348.4 618 Q344 685 329.8 762 L500 762 L500 618Z"/></clipPath><path d="M100 612 H500 V628 Q300 640 100 628Z" fill="#AA6445"/><path d="M100 612 H500 V628 Q300 640 100 628Z" fill="#A35F43" clip-path="url(#hoca-pt4)"/><path d="M234.9 632 Q244.6 685 256 740" fill="none" stroke="#CA8662" stroke-width="7" stroke-linecap="round"/><path d="M234.9 632 Q244.6 685 256 740" fill="none" stroke="#C38260" stroke-width="7" stroke-linecap="round" clip-path="url(#hoca-pt3)"/></g><clipPath id="hoca-rs6"><path d="M355 568 Q362 620 350 650 L500 650 L500 568Z"/></clipPath><clipPath id="hoca-rc5"><path d="M200 588 A100 15 0 0 0 400 588 L398.5 615 Q398 620 391 621 Q300 638 209 621 Q202 620 201.5 615Z"/></clipPath><path d="M200 588 A100 15 0 0 0 400 588 L398.5 615 Q398 620 391 621 Q300 638 209 621 Q202 620 201.5 615Z" fill="#CB825D"/><g clip-path="url(#hoca-rc5)"><path d="M355 568 Q362 620 350 650 L500 650 L500 568Z" fill="#C17753"/><path d="M222 600 L220 616" stroke="#D3906C" stroke-width="6" stroke-linecap="round"/><path d="M195 589 A105 16 0 0 0 405 589" fill="none" stroke="#D59470" stroke-width="5"/><path d="M195 589 A105 16 0 0 0 405 589" fill="none" stroke="#D2916D" stroke-width="5" clip-path="url(#hoca-rs6)"/></g><path d="M257.9 595.7C257.9 595.7 247.2 600.2 241.9 602.9C236.7 605.5 231.4 608.1 226.6 611.4C221.8 614.8 217.2 618.7 213.2 623C209.2 627.3 205.7 632.2 202.6 637.2C199.6 642.2 196.8 647.4 194.7 652.9C192.5 658.3 190.7 664.1 189.8 669.8C188.9 675.6 188.6 681.7 189.4 687.5C190.2 693.3 191.9 699.4 194.5 704.6C197.1 709.8 200.8 714.9 205 718.9C209.2 722.9 219.5 728.7 219.5 728.7C219.5 728.7 220.5 727.3 220.5 727.3C220.5 727.3 210.6 721.1 206.7 717.1C202.8 713.1 199.6 708.2 197.2 703.2C194.8 698.2 193.1 692.7 192.4 687.2C191.6 681.8 191.9 675.8 192.7 670.3C193.6 664.8 195.4 659.3 197.5 654C199.6 648.8 202.3 643.6 205.3 638.8C208.4 634.1 211.8 629.4 215.7 625.3C219.5 621.3 223.9 617.6 228.6 614.4C233.2 611.3 238.5 608.8 243.6 606.3C248.8 603.8 259.4 599.5 259.4 599.5C259.4 599.5 257.9 595.7 257.9 595.7Z" fill="#8E9E80"/><g stroke="#8E9E80" stroke-linecap="round" fill="none"><path d="M208.5 629L218.4 643.5" stroke-width="3.9"/><path d="M210.8 630.6L194.7 627.1" stroke-width="3.9"/><path d="M189.5 687.3L204.4 693" stroke-width="3.9"/><path d="M192.2 687.1L178.8 694.6" stroke-width="3.9"/><path d="M215.1 725.8L227.7 725.9" stroke-width="3.9"/><path d="M216.1 724.4L220.3 735.7" stroke-width="3.9"/></g><use href="#hoca-hl35" transform="translate(215.6 639.3) rotate(-214.5) scale(0.840)"/><use href="#hoca-hl36" transform="translate(199.1 628) rotate(-77.8) scale(0.756)"/><use href="#hoca-hl37" transform="translate(200.4 691.4) rotate(110.6) scale(0.714)"/><use href="#hoca-hl38" transform="translate(182.3 692.6) rotate(241.1) scale(0.672)"/><use href="#hoca-hl34" transform="translate(225 725.9) rotate(90.6) scale(0.462)"/><use href="#hoca-hl39" transform="translate(219.4 733.4) rotate(159.6) scale(0.420)"/>
</svg>
